<?xml version="1.0" encoding="iso-8859-1"?>
<!-- Generator: Adobe Illustrator 16.0.0, SVG Export Plug-In . SVG Version: 6.00 Build 0)  -->
<!DOCTYPE svg PUBLIC "-//W3C//DTD SVG 1.1//EN" "http://www.w3.org/Graphics/SVG/1.1/DTD/svg11.dtd">
<svg version="1.1" id="Layer_1" xmlns="http://www.w3.org/2000/svg" xmlns:xlink="http://www.w3.org/1999/xlink" x="0px" y="0px"
	 width="841px" height="595px" viewBox="0 0 841 595" style="enable-background:new 0 0 841 595;" xml:space="preserve">
<rect x="-94.385" y="-50.892" style="fill-rule:evenodd;clip-rule:evenodd;fill:#FF007A;" width="1207.439" height="793.46"/>
<path style="fill-rule:evenodd;clip-rule:evenodd;fill:#FFFFFF;" d="M105.766,503.46l-24.512,9.366
	c11.523-54.299,21.796-213.99,19.249-228.731c-2.271-3.76-2.992-8.108-3.82-13.206c-4.817-6.83-3.522-25.172-3.438-40.681
	l1.804-2.696c-0.616-2.401-1.189-5.079-1.422-10.844c-2.781-4.664-5.625-8.622-6.728-11.808c-0.68-3.426-2.123-6.436-4.457-8.956
	l-3.566-78.861c3.184-3.543,2.483-12.497-0.998-15.095L77.37,90.514c7.641-5.806,15.79-11.475,24.788-16.984v-3.091l13.434-8.856
	c1.995,0.059,4.075-0.334,6.325-1.595c0.849-0.647,1.677-1.594,2.525-4.093c0.51-5.157,0.276-9.958-0.191-14.644l0.998-1.002
	c0.085-7.991,2.866-15.412,9.381-22.102c6.41-4.802,12.861-3.169,19.759,1.692c6.091-2.086,17.954,8.443,21.837,14.131l1.273,0.59
	c-0.954,1.889-0.339,3.425,0,5.02c-1.23,0.039-1.93,0.294-1.464,1.002l0.277,0.669l-0.53,1.083h-1.083
	c0.255,5.708-2.101,9.938-5.05,13.796c0.126,3.603,0.211,7.224,0.614,10.293c-1.336,0.669-3.438,0.965-5.772,1.181l-0.084,3.247
	l-1.443,0.177l0.084,0.669l-0.892,0.334c-2.333,0.217-3.309,1.692-3.247,4.113c-0.275,1.91-6.282,2.047-7.322,0.414
	c-2.058-3.188-8.212-0.925-8.106,1.671c0,3.936-0.255,6.181-1.804,5.768c-1.57,2.047-1.719,4.074-1.549,6.101
	c2.292,1.831,4.414,3.758,5.433,6.278c-0.021,2.913,0.488,4.329,1.421,4.605c2.398,1.634,4.84,3.207,5.879,6.357
	c1.337,2.283,2.293,5.63,3.163,9.27c0.784,0.178,1.549,0.434,2.058,1.772c0.468,2.321,0.318,4.624,0.383,6.947
	c4.308,3.424,4.032,10.824,4.139,17.89c1.23,2.046,1.442,4.075,1.804,6.121c1.633,9.427,1.761,21.176,2.632,33.044
	c0.827,0.217,2.673,0.256,4.223-0.177c3.015-8.128,6.303-13.265,10.017-14.13c0.508-1.458,0.892-2.915,1.167-4.352
	c-1.953-1.672-4.288-3.699-6.94-6.021c-1.888-1.909-3.395-3.818-1.995-5.944c4.479-6.987,8.193-14.663,11.46-22.751
	c-0.636-4.606,5.073-9.23,9.466-13.837c1.76-4.88,2.271-10.372,2.1-17.003c-2.843-3.346-3.267-4.507-3.352-10.194
	c-2.483-1.693-5.2-3.208-8.129-4.488c-5.348-0.945-6.154-3.266-4.01-5.767c0.169-0.688,0.36-1.397,0.552-2.085l0.189-2.657
	l0.85-1.24v-2.854l1.167-0.235c0.255-0.75,0.531-1.497,0.829-2.205l-1.423-2.854c2.271-2.047,5.072-3.484,8.213-4.508l0.255-3.581
	c2.695-2.854,5.177-5.649,11.481-9.468c1.994-0.649,3.713-1.199,5.771-1.081c3.1-0.079,6.347,0.176,9.892,0.923
	c3.331,0.414,6.557,0.826,9.209,1.24c5.052-3.09,9.189-3.836,15.132-3.836c8.467,0.511,14.411,3.462,18.358,10.528
	c1.569,7.853,0.19,13.325-2.145,18.027c-1.401,2.795-3.926,4.036-7.216,4.173l0.361,16.532l-2.143,2.165
	c-2.441,1.437-5.03,2.401-7.938,2.52l-17.467,0.157l-8.637-4.842c-2.971,0-2.993,1.831-1.783,4.409
	c1.337,3.837,2.907,7.694,5.709,11.553c6.473,5.432,12.457,7.95,13.561,18.343c0.021,18.795-2.61,31.726-8.085,45.423l-4.945,12.281
	l-3.396,3.13c-2.547,5.137-4.5,10.272-5.709,15.409c-1.358,13.462,2.504,22.417,11.948,29.837
	c9.04,2.814,17.615,8.817,25.956,16.139c12.691,10.844,23.43,23.852,32.705,38.496c39.325,57.35,67.042,114.601,87.479,152.842"/>
<path style="fill:#FF007A;" d="M227.096,168.843c-0.85,3.896-1.4,7.282-1.719,10.49l0,0c-0.87,8.403,2.144,26.116,3.035,28.222l0,0
	c13.455,32.021,32.259,50.285,69.143,77.052l0,0c22.539,16.353,43.677,34.343,68.506,55.933l0,0
	c19.037,16.552,66.893,79.903,71.563,90.04l0,0c6.261,13.602,21.413,73.372,22.368,91.517l0,0l-1.04,3.229
	c-21.18,8.913-36.121,18.38-56.282,21.057l0,0c-39.707,5.255-71.202,2.638-93.613-2.892l0,0
	c-18.4-4.549-72.051-28.401-80.583-30.821l0,0c-28.65-8.146-42.806-19.542-69.122-21.235l0,0
	c-21.542-1.378-37.522,6.456-57.514,9.998l0,0c-1.549-8.798,6.77-72.88,9.635-94.922l0,0c3.141-24.188,12.374-52.666,20.905-75.417
	l0,0c6.43-17.122,34.168-83.427,48.981-100.963l0,0c3.077-3.661,12.946-20.842,11.587-43.18l0,0
	c-0.255-3.958,0.127-7.223-0.573-12.596l0,0c-0.383-2.834-1.846-9.86-3.268-12.399l0,0c-3.884-6.928-5.073-9.566-2.653-13.383l0,0
	c3.331-3.956,7.449-6.554,13.625-13.895l0,0C200.547,153.019,223.339,166.461,227.096,168.843L227.096,168.843z"/>
<path style="fill:#FFFFFF;" d="M227.096,168.843c-0.85,3.896-1.4,7.282-1.719,10.49l0,0c-0.87,8.403,2.144,26.116,3.035,28.222l0,0
	c13.455,32.021,32.259,50.285,69.143,77.052l0,0c22.539,16.353,43.677,34.343,68.506,55.933l0,0
	c19.037,16.552,66.893,79.903,71.563,90.04l0,0c6.261,13.602,21.413,73.372,22.368,91.517l0,0l-1.04,3.229
	c-21.18,8.913-36.121,18.38-56.282,21.057l0,0c-39.707,5.255-71.202,2.638-93.613-2.892l0,0
	c-18.4-4.549-72.051-28.401-80.583-30.821l0,0c-28.65-8.146-42.806-19.542-69.122-21.235l0,0
	c-21.542-1.378-37.522,6.456-57.514,9.998l0,0c-1.549-8.798,6.77-72.88,9.635-94.922l0,0c3.141-24.188,12.374-52.666,20.905-75.417
	l0,0c6.43-17.122,34.168-83.427,48.981-100.963l0,0c3.077-3.661,12.946-20.842,11.587-43.18l0,0
	c-0.255-3.958,0.127-7.223-0.573-12.596l0,0c-0.383-2.834-1.846-9.86-3.268-12.399l0,0c-3.884-6.928-5.073-9.566-2.653-13.383l0,0
	c3.331-3.956,7.449-6.554,13.625-13.895l0,0C200.547,153.019,223.339,166.461,227.096,168.843L227.096,168.843z"/>
<path style="fill:#FF007A;" d="M193.054,187.421c-0.043-0.097,0.192,3.662-0.128,11.022c-0.338,7.262-1.421,18.678-8.764,31.51
	c-7.025,12.398-14.9,25.388-21.266,38.396c-6.43,12.969-11.757,25.645-15.853,36.154c-4.266,11.415-8.086,21.55-12.415,34.579
	c-4.393,12.732-8.957,28.381-12.967,44.774c-8.256,33.124-11.864,67.21-12.861,73.923c-2.992,23.874-4.117,38.041-4.437,42.942
	c0.127-5.354,0.043-21.393,1.507-47.115c0.552-6.731,2.164-40.327,8.913-73.135c3.249-16.158,7.131-31.668,11.227-44.322
	c4.075-12.891,8.107-23.065,13.137-34.243c4.563-10.511,10.972-23.126,18.549-35.919c7.492-12.852,16.681-25.624,24.364-37.531
	c7.916-12.084,9.55-23.086,10.292-30.23C193.054,191.024,193.034,187.324,193.054,187.421z"/>
<g>
	<path style="fill:#FF007A;" d="M157.613,492.181c3.8,0.059,15.237,0.571,29.903,3.798c14.686,3.109,32.344,9.016,49.428,15.473
		c16.893,6.377,32.98,12.713,46.456,17.416c13.752,4.802,24.788,8.306,37.5,11.552c11.799,2.914,26.613,5.709,42.466,6.298
		c15.854,0.689,32.64-1.044,47.602-4.646c30.392-7.557,44.589-16.414,44.547-15.88c-0.021-0.512-13.943,9.033-44.229,18.42
		c-14.812,4.369-31.6,7.263-47.877,7.655c-16.277,0.494-31.855-1.415-44.333-3.995c-13.456-2.637-25.256-6.16-39.602-11.435
		c-14.113-5.175-30.583-12.438-47.645-19.661c-17.211-7.3-34.699-13.914-49.215-17.438c-14.495-3.659-25.785-4.369-29.5-4.545
		c-17.147-0.964-29.732,1.81-37.669,3.857c-4.33,1.18-7.344,2.185-9.148,2.833c2.187-0.906,6.113-2.479,11.928-4.309
		C126.903,494.879,140.147,491.75,157.613,492.181z"/>
	<path style="fill:#FF007A;" d="M157.613,492.181c3.8,0.059,15.237,0.571,29.903,3.798c14.686,3.109,32.344,9.016,49.428,15.473
		c16.893,6.377,32.98,12.713,46.456,17.416c13.752,4.802,24.788,8.306,37.5,11.552c11.799,2.914,26.613,5.709,42.466,6.298
		c15.854,0.689,32.64-1.044,47.602-4.646c30.392-7.557,44.589-16.414,44.547-15.88c-0.021-0.512-13.943,9.033-44.229,18.42
		c-14.812,4.369-31.6,7.263-47.877,7.655c-16.277,0.494-31.855-1.415-44.333-3.995c-13.456-2.637-25.256-6.16-39.602-11.435
		c-14.113-5.175-30.583-12.438-47.645-19.661c-17.211-7.3-34.699-13.914-49.215-17.438c-14.495-3.659-25.785-4.369-29.5-4.545
		c-17.147-0.964-29.732,1.81-37.669,3.857c-4.33,1.18-7.344,2.185-9.148,2.833c2.187-0.906,6.113-2.479,11.928-4.309
		C126.903,494.879,140.147,491.75,157.613,492.181z"/>
	<g>
		
			<image style="overflow:visible;opacity:0.01;" width="357" height="67" xlink:href="3754829.png"  transform="matrix(1 0 0 1 102.5 488.5)">
		</image>
		<path style="fill:#FF007A;" d="M157.613,492.181c3.8,0.059,15.237,0.571,29.903,3.798c14.686,3.109,32.344,9.016,49.428,15.473
			c16.893,6.377,32.98,12.713,46.456,17.416c13.752,4.802,24.788,8.306,37.5,11.552c11.799,2.914,26.613,5.709,42.466,6.298
			c15.854,0.689,32.64-1.044,47.602-4.646c30.392-7.557,44.589-16.414,44.547-15.88c-0.021-0.512-13.943,9.033-44.229,18.42
			c-14.812,4.369-31.6,7.263-47.877,7.655c-16.277,0.494-31.855-1.415-44.333-3.995c-13.456-2.637-25.256-6.16-39.602-11.435
			c-14.113-5.175-30.583-12.438-47.645-19.661c-17.211-7.3-34.699-13.914-49.215-17.438c-14.495-3.659-25.785-4.369-29.5-4.545
			c-17.147-0.964-29.732,1.81-37.669,3.857c-4.33,1.18-7.344,2.185-9.148,2.833c2.187-0.906,6.113-2.479,11.928-4.309
			C126.903,494.879,140.147,491.75,157.613,492.181z"/>
	</g>
</g>
<path style="fill:#FF007A;" d="M432.977,434.634c-8.107-14.367-20.246-31.233-34.169-46.662
	c-13.646-15.292-28.269-28.912-40.663-39.993c-12.668-11.276-23.027-20.133-34.592-30.366
	c-21.373-18.915-54.373-46.073-76.169-74.533c-4.71-6.18-8.489-12.024-11.481-17.378c6.791,15.705,14.39,28.282,19.588,32.493h0.022
	c21.69,17.713,37.395,55.579,39.114,61.582c0.403,1.417,1.421,3.325,1.74,4.782c1.847,4.447,3.311,9.801,3.841,12.341
	c1.02,4.525,3.459,10.745,7.407,16.985c1.995,3.068,4.859,6.021,8.574,7.537c3.649,1.437,8.085,2.006,11.375,0.451
	c3.333-1.494,5.54-4.645,5.284-7.598c-0.149-2.95-2.759-5.018-5.115-5.844c-3.967-1.16-7.13,0.983-8.212,1.397
	c-1.188,0.709-1.592,1.102-2.229,1.043c-0.446,0-1.337-0.847-0.085-2.813c0.637-0.886,1.846-1.85,3.693-2.56
	c1.677-0.552,4.775-1.456,8.043,0.138c3.098,1.358,6.41,4.565,6.345,8.661c0,3.992-3.035,7.438-6.918,9.013
	c-8.469,2.973-18.762-2.283-22.157-8.896c-1.295-2.186-2.695-4.782-3.969-7.42c1.231,3.798,2.228,6.77,3.035,8.6
	c4.413,12.104,15.237,23.304,22.475,22.557c8.404-0.533,10.674-4.312,11.141-4.882c0.848-0.984,1.104-2.52,2.249-2.914
	c0.659-0.393,2.845-0.531,3.672,3.346c1.062,3.779-4.753,11.652-17.105,10.647c-1.274-0.157-2.505-0.371-3.8-0.746
	c0.149,0.492,0.107,1.021-0.042,1.495c0.084,2.065-5.793,4.271-14.028-5.549c-4.329-5.768-8.256-13.739-10.018-22.201
	c-1.167-10.471-1.804-18.304-2.694-24.936c-0.021-0.02-0.021-0.039-0.043-0.078c0.085,0.491-3.354-13.148-6.918-20.47
	c-2.059-5.313-14.686-34.106-33.191-51.071c0.255,0.452,0.487,0.905,0.721,1.358c16.426,18.165,28.459,42.727,31.537,49.831
	c6.6,15.253,2.632,59.339-1.041,71.463c-0.084,1.179-0.127,2.459-0.104,3.857c0.275,6.927,2.207,16.688,6.344,26.863
	c2.122,4.978,5.561,10.018,10.653,13.146c5.01,2.973,11.397,4.843,16.683,3.308c5.347-1.436,9.465-5.589,9.868-9.999
	c0.593-4.406-2.717-8.087-5.963-9.84c-5.561-2.655-10.823-0.216-12.521,0.158c-1.953,0.746-2.653,1.261-3.586,1.023
	c-0.68-0.097-1.762-1.574,0.636-4.172c1.189-1.18,3.226-2.322,6.154-2.934c2.632-0.432,7.45-1.044,11.863,2.066
	c4.203,2.737,8.236,8.248,7.025,14.309c-1.082,5.886-6.495,10.274-12.668,11.689c-13.33,2.441-27.125-7.733-30.35-18.302
	c-2.695-7.283-4.392-17.005-5.241-24.622c-0.976,9.035-1.274,18.442,0.615,27.948c2.016,11.119,8.468,22.043,18.591,29.364
	c3.035,1.987,6.6,3.896,10.887,5.511c2.865,1.201,5.943,2.204,9.231,3.129c0.085,0.039,0.171,0.059,0.234,0.059
	c4.393,0.789,17.084,2.655,34.89-0.374c10.803-2.048,24.257-6.102,33.957-16.293c9.571-10.177,10.632-28.382,0.233-41.666
	c-9.911-13.543-30.751-17.655-42.105-8.643c-12.035,8.229-12.31,24.248-4.563,32.298c7.11,8.68,17.636,12.262,23.749,10.745
	c2.779-0.607,4.583-2.341,5.56-3.504c1.295-1.397,1.952-3.403,1.464-5.213c-0.063-0.336-0.233-0.65-0.404-0.966
	c-0.635-1.101-1.781-1.929-3.076-2.283c-0.573-0.138-1.21-0.157-1.783-0.078c-0.36,0.02-0.826,0.139-0.997,0.472
	c-0.233,0.475,0.339,0.649,0.7,0.807c0.319,0.158,0.593,0.315,0.891,0.474c0.998,0.668,2.101,1.988,1.74,3.168
	c-0.319,0.964-1.441,1.712-2.44,1.948c-0.658,0.158-1.655,0.08-2.313-0.139c-2.356-0.767-2.822-4.112-1.846-5.844
	c1.526-2.638,4.33-3.426,7.279-1.909c0.806,0.395,1.676,1.24,2.187,1.987c0.933,1.359,1.103,3.268,0.785,4.823
	c-0.127,0.334-0.318,0.864-0.425,1.062c-0.977,3.031-3.778,4.881-7.45,5.824c-6.112,1.596-16.787-2.162-24.215-10.921
	c-8.149-8.228-8.171-24.996,4.33-33.753c11.862-9.545,33.849-5.354,44.207,8.856c10.781,13.875,9.591,32.769-0.511,43.238
	c-10.144,10.49-23.833,14.327-34.804,16.198c-5.115,0.807-9.784,1.2-13.985,1.338c1.973-0.038,3.925-0.099,5.899-0.178
	c14.028-0.607,27.887-1.652,41.043,0.433c13.116,1.931,25.617,7.204,33.638,15.806c8.002,8.443,12.756,18.38,14.03,27.671
	c1.442,9.309-1.677,18.165-7.684,22.948c-5.815,4.742-12.755,6.908-18.336,6.12c-4.542-0.393-7.854-1.594-10.187-2.914
	c-2.271-1.082-4.244-2.557-5.836-4.684c-0.998-1.379-2.144-3.108-2.59-4.684c-1.294-4.35,0.807-7.951,2.823-10.982
	c-0.658,1.417-1.231,3.347-0.553,5.177c0.68,1.989,2.908,3.029,4.712,2.854c-1.485,0.57-2.547,2.264-3.12,3.68
	c-0.381,0.925-0.297,2.479,0,3.425c0.405,1.162,1.295,2.105,2.229,2.893c2.864,2.322,6.387,3.72,10.016,4.586
	c0.786,0.098,1.613,0.218,2.484,0.275c5.496,0.649,12.18-1.612,17.743-6.356c5.709-4.723,8.53-13.204,7.002-22.218
	c-1.4-8.955-6.197-18.639-14.069-26.668c-7.79-8.17-19.759-13.089-32.493-14.861c-12.904-1.89-26.485-0.806-40.663-0.136
	c-1.209,0.079-2.461,0.116-3.714,0.176c4.902,0.414,9.805,0.769,14.644,1.24c12.542,1.044,24.598,3.718,33.554,7.734
	c8.53,3.661,12.096,9.15,12.967,12.223c0.828,3.248-0.171,4.31-0.914,4.369c-0.891,0.116-1.762-0.513-3.183-2.5
	c-1.528-1.929-3.819-5.688-11.1-9.841c-7.788-4.507-19.1-7.853-31.516-9.525c-4.095-0.608-8.339-1.141-12.542-1.634
	c0.276,0.021,0.509,0.099,0.807,0.198c12.925,3.306,29.86,9.819,35.419,25.151c2.802,7.222,3.015,15.015,0.764,21.728
	c-2.375,6.752-7.279,12.183-13.114,15.567c-12.118,7.263-27.187,2.422-34.338-4.841c-7.471-7.243-9.635-17.3-4.988-21.256
	c0.659-0.69,1.422-1.141,2.038-1.516c0.808-0.55,2.06-0.808,3.013-0.943c1.614-0.177,3.461,0.136,4.818,0.982
	c0.68,0.476,1.506,1.222,1.954,1.91c0.997,1.712,1.315,3.856,0,5.43c-1.041,1.24-3.036,2.188-4.754,2.205
	c-0.935-0.038-2.123-0.412-2.845-1.021c-1.125-0.966-1.634-2.541-1.125-3.8c0.446-0.984,1.507-1.869,2.675-1.988
	c1.527-0.157,2.886,1.183,3.354,2.479c0.105,0.278,0.105,0.671,0.36,0.887c1.167,0.807,1.4-1.869,1.317-2.362
	c-0.171-1.277-0.786-2.42-1.933-3.208c-0.275-0.195-0.615-0.374-0.933-0.491c-1.146-0.472-2.462-0.491-3.671-0.275
	c-1.168,0.196-2.208,0.688-3.035,1.377c-0.191,0.237-0.426,0.413-0.636,0.65c-0.127,0.099-0.213,0.256-0.319,0.336
	c0,0.02-0.021,0.02-0.021,0.02l0,0l0,0l0,0c-3.926,4.152-1.952,13.401,5.243,20.153c7.109,6.944,21.689,11.373,33.17,4.309
	c5.519-3.325,10.273-8.561,12.479-14.998c2.122-6.453,1.91-13.973-0.785-20.919c-5.286-14.623-21.542-21.06-34.38-24.506
	c-1.72-0.45-3.419-0.862-5.115-1.296c3.692,0.943,7.385,2.124,10.717,4.526c3.12,2.225,5.879,5.863,6.579,9.349
	c0.892,4.428-1.548,7.853-3.841,10.667c0.786-1.338,1.549-3.208,1.061-5.078c-0.53-2.008-2.653-3.229-4.477-3.206
	c1.549-0.455,2.737-2.05,3.416-3.368c2.526-4.762-4.415-9.111-8.594-10.903c-2.886-1.2-5.816-2.204-8.723-2.893
	c0.827,0.197,1.718,0.393,2.546,0.592c-1.401-0.356-2.759-0.631-4.117-0.985c-2.039-0.276-4.032-0.611-5.985-0.945
	c-8.83-0.709-17.658-2.637-25.85-7.183c-13.772-7.36-22.687-20.96-24.937-34.305c-3.141-16.452-0.148-32.827,2.801-48.847
	c1.422-7.519,2.866-15.057,3.693-22.674c0.744-6.631-0.084-13.206-0.127-11.08c-0.318,14.82-10.166,45.503-20.904,55.816
	c-3.076,2.932-6.812,5.156-9.996,7.204c-1.994,1.277-3.862,2.479-5.263,3.579c-4.648,3.622-8.149,6.949-10.229,11.298
	c-2.759,5.787-2.759,12.675,0,18.4c2.122,4.469,5.646,7.64,9.911,8.936c7.237,2.204,13.455,0.809,17.105-3.837
	c3.312-4.23,3.056-10.844-0.573-14.74c-2.187-2.383-5.773-3.801-9.127-3.644c-2.355,0.14-4.286,1.046-5.41,2.6
	c-1.549,2.066-1.19,4.349-0.171,5.687c1.062,1.378,2.781,1.91,4.69,1.42c1.55-0.394,2.271-1.833,2.081-2.993
	c-0.043-0.335-0.043-0.335-1.613-1.378c-1.612-1.063,3.354-0.335,3.63,1.91c0.34,2.479-1.634,3.778-3.736,4.309
	c-2.25,0.572-5.072-0.45-6.345-2.105c-1.444-1.908-1.868-4.448-0.425-7.184c1.018-1.907,4.457-4.212,7.089-4.35
	c3.607-0.177,8.489,1.615,10.865,4.173c3.884,4.174,5.583,11.967,1.019,17.694c-3.904,4.92-12.691,7.319-20.31,4.998
	c-4.499-1.358-8.935-5.471-11.184-10.136c-2.845-5.965-2.547-13.936,0.317-19.937c2.123-4.488,6.982-9.014,11.715-12.714
	c1.443-1.123,11.376-6.712,14.049-9.882c5.837-6.926,8.745-10.96,9.063-16.158c-0.593,0.789-1.167,1.556-1.782,2.324
	c-5.793,6.849-14.071,13.814-22.326,17.969c-12.989,6.475-30.327,5.275-41.087-4.823c-10.59-9.958-14.537-21.55-9.169-37.156
	c1.041-3.091,5.497-6.672,9.275-7.361c3.565-0.629,9.402,2.834,9.656,6.416c0.254,3.878-4.521,7.145-7.661,3.582
	c-4.308-4.763,1.655-4.212,4.754-1.987c4.711-2.717-1.656-5.925-4.606-6.239c-5.963-0.589-9.443,4.881-10.695,9.624
	c-1.718,6.378-0.022,13.581,2.823,19.643c6.048,12.891,21.244,21.669,35.717,19.798c13.221-1.634,24.47-10.843,32.089-20.35
	c1.082-1.358,2.1-2.716,3.076-4.112c0-0.021,0-0.021,0.022-0.04c4.733-6.869,8.043-14.289,10.059-21.749
	c-3.267,8.838-6.408,18.049-13.9,24.504c-5.264,4.525-13.307,7.242-20.649,5.983c-9.36-1.653-16.003-9.073-21.393-15.863
	c2.632,2.598,6.346,5.53,10.314,5.944c4.266,0.511,7.28-2.814,7.598-6.455c0.596,3.404,3.672,7.045,6.282,9.465
	c9.297,8.68,19.758-1.909,24.28-8.975c2.992-4.645,5.518-9.564,7.492-14.701c1.316-4.881,2.122-9.762,2.333-14.505
	c0.022-0.433,0-0.865,0.022-1.278c-0.234,0.649-0.424,1.338-0.679,2.008c-3.459,7.931-9.317,14.543-17.296,18.933
	c-8.256,3.778-19.27,2.303-24.81-4.508c-5.37-6.889-4.754-16.511-0.127-21.609c4.584-5.53,13.965-6.199,17.827-2.164
	c3.885,4.093,5.05,8.423,2.397,12.123c-1.654,2.381-4.838,2.676-4.732,2.775c-0.105-0.1,2.123-1.103,3.756-3.505
	c1.38-2.164,2.292-6.336-1.506-10.213c-3.82-3.779-12.183-3.366-16.342,1.987c-4.287,4.94-5.263,13.737-0.169,19.739
	c5.114,6.044,15.365,7.009,22.538,3.346c6.897-4.054,12.437-10.942,14.984-18.007c2.271-7.263,2.44-15.824,0.637-22.181
	c-3.588-12.694-19.08-35.701-27.144-47.215c4.329,9.053,5.73,15.508,3.947,12.773c-1.167-1.771-2.145-3.622-2.781-4.841
	c3.459,7.518,5.858,17.181,4.118,26.135c-1.167,5.216-3.692,11.08-7.003,15.47c-5.199,6.829-14.962,9.171-23.854,6.356
	c-8.722-2.774-17.233-7.813-17.042-17.378c0.042-1.987,1.062-5.058,2.929-6.377c1.762-1.259,5.984-0.826,7.173,1.064
	c1.273,2.065-0.381,5.058-3.141,3.896c-3.757-1.516-0.339-2.736,2.037-2.283c1.761-2.696-2.673-2.834-4.372-2.264
	c-3.459,1.181-3.757,5.078-3.035,7.991c0.933,3.916,3.989,7.459,7.321,10.057c7.11,5.531,18.019,6.495,25.405,1.811
	c6.77-4.251,10.228-12.144,11.608-19.268c1.167-5.982,1.146-7.794-0.806-0.591c-1.083,3.957-5.178,7.342-9.572,8.523
	c-5.624,1.455-11.439-0.946-16.405-3.288c2.207,0.748,5.113,1.417,7.406,0.65c2.483-0.808,3.163-3.385,2.271-5.473
	c1.314,1.713,4.095,2.934,6.239,3.603c7.64,2.401,10.251-6.042,10.653-11.062c0.277-3.305-1.932-15.862-3.205-18.499
	c-0.106-0.256-0.255-0.493-0.36-0.729c0.064,0.433,0.148,0.866,0.211,1.299c0.446,5.214-0.828,10.312-3.904,14.74
	c-3.417,4.173-10.229,6.711-15.28,4.369c-4.966-2.4-7.598-8.284-6.58-12.26c0.891-4.172,6.6-7.479,9.91-6.238
	c3.333,1.259,5.178,3.444,4.819,6.141c-0.213,1.731-2.059,3.011-1.973,3.05c-0.086-0.04,0.826-1.142,1.018-2.874
	c0.127-1.536-0.594-4.055-3.84-5.236c-3.184-1.081-7.662,1.24-8.362,5.236c-0.892,3.798,1.166,8.856,5.708,10.864
	c4.583,2.026,10.484-0.039,13.349-3.857c2.589-3.976,3.587-9.151,2.907-13.678c-1.295-9.841-2.992-11.908-6.536-16.493
	c-8.235-10.706-16.958-30.447-20.884-44.499c-0.742-1.909-1.357-3.681-1.845-5.314c-3.949-13.147-3.1-30.604-2.081-35.111
	c0.021-0.452,0.807-1.121,1.124-2.185c-5.39-2.381-13.264-9.092-15.684-11.099c-1.357-1.043-2.461-2.107-3.757-3.563
	c-1.251-1.417-2.61-3.267-3.756-5.314c-2.417-4.112-3.311-8.737-3.395-9.623c-0.404-3.307-0.213-5.196-0.191-5.806
	c0.042,0.669,0.148,2.833,1.188,6.14c0.212,0.866,1.656,5.058,4.245,8.601c1.231,1.772,2.61,3.346,3.82,4.605
	c1.21,1.298,2.207,2.322,3.353,3.445c2.165,2.105,5.583,5.018,8.914,7.065c3.354,2.085,6.049,3.325,6.027,3.307
	c1.529-4.369-0.403,3.797-0.616,6.002c-0.954,6.062-1.676,20.92,2.378,33.478c2.78,8.599,9.083,20.861,20.883,34.362
	c23.006,26.471,57.492,50.305,79.99,68.647c12.307,9.644,23.174,18.619,36.226,30.644c12.754,11.79,27.632,26.786,41.236,43.712
	c13.815,17.043,25.36,35.643,32.724,51.23c7.472,15.566,11.036,27.925,12.224,31.979c5.264,18.758,6.6,32.948,7.236,42.098
	c0.447,7.026,0.447,11.179,0.51,12.557c-0.339-3.582-0.572-24.681-13.179-58.138C445.668,460.554,441.21,448.962,432.977,434.634z"
	/>
<path style="fill:#FF007A;" d="M192.143,199.211c4.435-6.988,13.519-36.252,15.577-68.254c0,0,1.231-12.221,9.188-13.914
	c0,0,10.802-0.925,9.36,14.308c0,0-5.561,42.117-22.814,79.866c-23.494,3.07-39.136-18.718-46.626-26.983l2.78-8.935
	C159.608,175.299,181.742,194.31,192.143,199.211L192.143,199.211z"/>
<path style="fill:#FF007A;" d="M161.285,188.663c5.899,6.691,12.33,13.264,20.479,17.634c4.244,2.263,8.978,3.896,13.858,4.368
	c1.571,0.157,5.879,0.729,7.217-0.256c1.421-1.043,2.185-4.861,2.843-6.475c6.876-16.887,12.013-34.344,15.853-52.037
	c1.55-7.144,8.957-28.44-0.699-33.32c-13.753-6.947-14.156,27.357-14.941,32.1c-1.655,9.979-3.991,19.858-6.982,29.581
	c-1.824,5.944-3.29,13.659-6.77,18.932c2.737-4.25,3.84-10.292,5.348-15.035c2.653-8.463,4.733-17.103,6.345-25.782
	c1.698-9.172,2.165-18.441,3.29-27.592c0.742-6.002,4.668-16.217,12.649-14.15c13.794,3.582,5.072,29.205,3.204,37.55
	c-4.159,18.559-9.74,36.902-17.529,54.437c-1.657,3.72-1.657,3.623-6.41,3.623c-5.857-0.02-11.587-1.654-16.702-4.252
	c-4.584-2.322-8.638-5.471-12.352-8.855c-1.889-1.713-3.65-3.524-5.37-5.394c-0.721-0.766-1.443-1.534-2.165-2.342
	C161.305,190.118,161.051,189.823,161.285,188.663z M192.143,199.19c-2.993-1.337-12.564-8.048-17.722-12.083
	c-0.063,1.318,6.156,5.353,7.471,6.278C184.693,195.314,191.611,199.487,192.143,199.19L192.143,199.19z"/>
<path style="fill-rule:evenodd;clip-rule:evenodd;fill:#FF007A;" d="M217.333,418.239c-0.976,0.672-0.339,2.953,1.401,5.099
	c1.74,2.146,3.926,3.345,4.902,2.676c0.956-0.688,0.34-2.973-1.4-5.116C220.496,418.754,218.31,417.57,217.333,418.239z
	 M217.97,416.863c0.148,1.101,2.588,1.753,5.476,1.416c2.864-0.315,5.07-1.496,4.923-2.598c-0.148-1.12-2.59-1.751-5.476-1.437
	C220.027,414.579,217.821,415.742,217.97,416.863z M216.994,415.643c1.104,0.451,2.929-1.201,4.074-3.661
	c1.125-2.479,1.146-4.823,0.022-5.274c-1.104-0.434-2.929,1.2-4.075,3.681C215.89,412.849,215.868,415.208,216.994,415.643z
	 M215.72,418.418c-1.104-0.434-2.929,1.219-4.075,3.68c-1.125,2.459-1.146,4.822-0.022,5.274c1.104,0.434,2.929-1.22,4.075-3.681
	C216.823,421.231,216.845,418.87,215.72,418.418z M215.381,415.839c0.976-0.668,0.339-2.952-1.4-5.117
	c-1.741-2.144-3.926-3.326-4.902-2.657c-0.956,0.689-0.341,2.974,1.399,5.118C212.219,415.328,214.404,416.509,215.381,415.839z
	 M209.821,419.834c2.864-0.334,5.071-1.494,4.923-2.617c-0.149-1.104-2.59-1.751-5.476-1.417c-2.866,0.313-5.072,1.496-4.923,2.597
	C204.494,419.52,206.934,420.149,209.821,419.834L209.821,419.834z"/>
<path style="fill-rule:evenodd;clip-rule:evenodd;fill:#FF007A;" d="M322.873,481.454c-0.955,0.691-0.339,2.974,1.4,5.121
	c1.741,2.144,3.926,3.322,4.903,2.654c0.976-0.669,0.34-2.972-1.401-5.116C326.036,481.986,323.851,480.787,322.873,481.454z
	 M323.51,480.077c0.148,1.123,2.588,1.752,5.476,1.438c2.865-0.336,5.072-1.496,4.923-2.617c-0.148-1.103-2.588-1.752-5.453-1.417
	C325.569,477.795,323.361,478.957,323.51,480.077z M322.534,478.878c1.124,0.432,2.95-1.202,4.075-3.681
	c1.124-2.461,1.146-4.821,0.02-5.274c-1.103-0.434-2.928,1.221-4.052,3.682C321.43,476.063,321.43,478.445,322.534,478.878z
	 M321.26,481.654c-1.104-0.454-2.928,1.197-4.053,3.657c-1.147,2.481-1.167,4.842-0.043,5.276c1.104,0.434,2.93-1.201,4.076-3.681
	C322.365,484.447,322.385,482.086,321.26,481.654z M320.92,479.055c0.977-0.669,0.34-2.953-1.399-5.098
	c-1.741-2.145-3.927-3.346-4.902-2.677c-0.956,0.689-0.341,2.971,1.4,5.118C317.759,478.543,319.944,479.724,320.92,479.055z
	 M315.36,483.05c2.865-0.315,5.071-1.497,4.924-2.598c-0.127-1.122-2.59-1.752-5.454-1.435c-2.865,0.332-5.094,1.495-4.944,2.594
	C310.033,482.734,312.496,483.385,315.36,483.05L315.36,483.05z"/>
<path style="fill-rule:evenodd;clip-rule:evenodd;fill:#FF007A;" d="M208.589,329.479c-0.955,0.669-0.339,2.952,1.4,5.098
	c1.741,2.146,3.949,3.325,4.903,2.657c0.976-0.669,0.34-2.952-1.4-5.098C211.75,329.99,209.566,328.811,208.589,329.479z
	 M209.226,328.081c0.149,1.122,2.59,1.772,5.476,1.438c2.866-0.315,5.073-1.496,4.923-2.618c-0.149-1.102-2.589-1.73-5.454-1.416
	C211.286,325.818,209.079,326.979,209.226,328.081z M208.25,326.882c1.125,0.452,2.95-1.202,4.074-3.682
	c1.125-2.459,1.146-4.821,0.022-5.254c-1.104-0.452-2.929,1.2-4.054,3.681C207.146,324.087,207.146,326.447,208.25,326.882z
	 M206.998,329.656c-1.125-0.433-2.951,1.201-4.074,3.68c-1.125,2.461-1.147,4.822-0.042,5.276c1.103,0.432,2.949-1.222,4.073-3.682
	C208.08,332.45,208.102,330.089,206.998,329.656z M206.637,327.078c0.977-0.688,0.361-2.972-1.38-5.117
	c-1.74-2.146-3.948-3.325-4.923-2.656c-0.955,0.668-0.318,2.971,1.401,5.117C203.496,326.546,205.682,327.747,206.637,327.078z
	 M201.078,331.054c2.864-0.314,5.071-1.496,4.923-2.598c-0.127-1.122-2.589-1.752-5.454-1.437c-2.866,0.334-5.094,1.494-4.945,2.598
	C195.75,330.739,198.211,331.389,201.078,331.054L201.078,331.054z"/>
<path style="fill-rule:evenodd;clip-rule:evenodd;fill:#FF007A;" d="M286.328,451.364c-0.701,0.491-0.255,2.165,1.019,3.721
	c1.274,1.554,2.864,2.419,3.565,1.926c0.7-0.491,0.254-2.163-1.018-3.718C288.621,451.737,287.029,450.87,286.328,451.364z
	 M286.794,450.358c0.106,0.808,1.889,1.281,3.97,1.044c2.079-0.236,3.693-1.081,3.585-1.908c-0.106-0.807-1.889-1.26-3.967-1.023
	C288.28,448.706,286.689,449.552,286.794,450.358z M286.073,449.475c0.828,0.334,2.144-0.865,2.972-2.656
	c0.827-1.793,0.827-3.525,0.021-3.84c-0.806-0.314-2.145,0.887-2.95,2.679C285.288,447.447,285.268,449.18,286.073,449.475z
	 M285.161,451.502c-0.807-0.317-2.144,0.886-2.951,2.677c-0.828,1.789-0.848,3.502-0.042,3.817c0.806,0.314,2.143-0.866,2.971-2.676
	C285.968,453.529,285.968,451.816,285.161,451.502z M284.906,449.611c0.701-0.492,0.255-2.145-1.019-3.699
	c-1.253-1.555-2.845-2.44-3.566-1.948c-0.701,0.492-0.232,2.165,1.019,3.718C282.614,449.236,284.206,450.104,284.906,449.611z
	 M280.874,452.524c2.08-0.235,3.672-1.083,3.565-1.909c-0.105-0.807-1.867-1.259-3.969-1.022c-2.08,0.235-3.692,1.083-3.587,1.889
	C276.991,452.289,278.772,452.761,280.874,452.524L280.874,452.524z"/>
<path style="fill-rule:evenodd;clip-rule:evenodd;fill:#FF007A;" d="M419.181,500.349c-0.7,0.471-0.233,2.147,1.019,3.701
	c1.273,1.555,2.866,2.42,3.565,1.928c0.7-0.493,0.254-2.146-1.02-3.7C421.494,500.704,419.903,499.857,419.181,500.349z
	 M419.648,499.325c0.106,0.827,1.889,1.281,3.989,1.044c2.081-0.235,3.693-1.081,3.589-1.89c-0.108-0.807-1.891-1.279-3.991-1.044
	C421.155,497.673,419.542,498.519,419.648,499.325z M418.948,498.459c0.806,0.314,2.122-0.884,2.95-2.676
	c0.827-1.791,0.848-3.503,0.021-3.839c-0.808-0.314-2.122,0.888-2.951,2.678C418.142,496.414,418.142,498.145,418.948,498.459z
	 M418.014,500.468c-0.806-0.315-2.122,0.885-2.949,2.675c-0.827,1.792-0.827,3.504-0.021,3.839c0.806,0.313,2.122-0.885,2.95-2.676
	C418.821,502.514,418.841,500.782,418.014,500.468z M417.781,498.598c0.7-0.493,0.233-2.164-1.018-3.719
	c-1.274-1.557-2.867-2.423-3.567-1.932c-0.699,0.493-0.253,2.166,1.019,3.702C415.468,498.205,417.059,499.07,417.781,498.598z
	 M413.727,501.49c2.081-0.235,3.693-1.082,3.587-1.888c-0.106-0.808-1.888-1.281-3.967-1.045c-2.103,0.237-3.694,1.082-3.609,1.891
	C409.844,501.255,411.627,501.727,413.727,501.49L413.727,501.49z"/>
<path style="fill-rule:evenodd;clip-rule:evenodd;fill:#FF007A;" d="M421.983,444.339c-0.701,0.491-0.234,2.162,1.018,3.718
	c1.273,1.555,2.865,2.422,3.566,1.93c0.7-0.492,0.254-2.146-1.02-3.721C424.296,444.71,422.684,443.845,421.983,444.339z
	 M422.45,443.332c0.106,0.807,1.888,1.281,3.968,1.044s3.692-1.083,3.588-1.89c-0.107-0.807-1.889-1.279-3.97-1.044
	C423.957,441.68,422.344,442.529,422.45,443.332z M421.749,442.469c0.808,0.314,2.123-0.887,2.95-2.679
	c0.828-1.791,0.828-3.504,0.021-3.838c-0.807-0.313-2.144,0.886-2.95,2.677C420.943,440.419,420.922,442.152,421.749,442.469z
	 M420.816,444.474c-0.807-0.315-2.144,0.887-2.951,2.679c-0.828,1.791-0.848,3.503-0.042,3.818c0.828,0.334,2.143-0.867,2.972-2.658
	C421.622,446.501,421.622,444.788,420.816,444.474z M420.561,442.606c0.701-0.492,0.255-2.167-1.018-3.721
	c-1.252-1.555-2.844-2.419-3.566-1.949c-0.7,0.492-0.233,2.167,1.018,3.721C418.269,442.211,419.86,443.075,420.561,442.606z
	 M416.507,445.5c2.102-0.237,3.693-1.083,3.586-1.893c-0.105-0.805-1.867-1.278-3.967-1.041c-2.081,0.236-3.693,1.083-3.588,1.89
	C412.646,445.263,414.427,445.735,416.507,445.5L416.507,445.5z"/>
<path style="fill-rule:evenodd;clip-rule:evenodd;fill:#FF007A;" d="M344.096,439.595c-0.7,0.492-0.234,2.145,1.019,3.698
	c1.272,1.574,2.864,2.442,3.565,1.949c0.721-0.491,0.255-2.167-0.997-3.721C346.41,439.968,344.817,439.104,344.096,439.595z
	 M344.563,438.591c0.104,0.806,1.889,1.278,3.968,1.042c2.1-0.236,3.714-1.082,3.607-1.908c-0.105-0.809-1.888-1.258-3.989-1.022
	C346.07,436.937,344.458,437.783,344.563,438.591z M343.862,437.706c0.806,0.314,2.123-0.868,2.95-2.66
	c0.828-1.811,0.848-3.522,0.021-3.835c-0.806-0.316-2.123,0.885-2.949,2.677C343.056,435.678,343.056,437.391,343.862,437.706z
	 M342.929,439.731c-0.806-0.335-2.123,0.867-2.95,2.678c-0.827,1.79-0.827,3.503-0.021,3.817c0.806,0.315,2.123-0.886,2.95-2.676
	C343.735,441.76,343.757,440.047,342.929,439.731z M342.695,437.842c0.701-0.492,0.234-2.145-1.019-3.699
	c-1.272-1.575-2.864-2.439-3.565-1.947c-0.702,0.491-0.255,2.164,1.017,3.72C340.381,437.469,341.973,438.334,342.695,437.842z
	 M338.641,440.756c2.08-0.257,3.694-1.101,3.587-1.909c-0.105-0.807-1.889-1.261-3.969-1.024c-2.1,0.236-3.692,1.081-3.586,1.889
	C334.758,440.52,336.562,440.991,338.641,440.756L338.641,440.756z"/>
<path style="fill-rule:evenodd;clip-rule:evenodd;fill:#FF007A;" d="M358.463,366.065c-0.721,0.492-0.254,2.167,0.998,3.722
	c1.274,1.552,2.866,2.421,3.565,1.927c0.7-0.492,0.255-2.145-0.997-3.718C360.755,366.441,359.164,365.573,358.463,366.065z
	 M358.909,365.063c0.106,0.808,1.888,1.279,3.967,1.043c2.103-0.235,3.715-1.084,3.609-1.89c-0.107-0.826-1.89-1.278-3.99-1.043
	C360.416,363.41,358.804,364.254,358.909,365.063z M358.209,364.195c0.806,0.315,2.123-0.885,2.95-2.676
	c0.828-1.792,0.85-3.503,0.021-3.838c-0.806-0.314-2.122,0.888-2.951,2.678C357.402,362.147,357.402,363.883,358.209,364.195z
	 M357.275,366.204c-0.807-0.316-2.122,0.886-2.95,2.675c-0.828,1.791-0.828,3.504-0.022,3.819c0.808,0.334,2.123-0.865,2.951-2.656
	C358.082,368.251,358.103,366.52,357.275,366.204z M357.042,364.335c0.7-0.493,0.234-2.165-1.019-3.72
	c-1.273-1.556-2.866-2.422-3.564-1.949c-0.701,0.512-0.255,2.164,1.019,3.719C354.729,363.959,356.341,364.808,357.042,364.335z
	 M352.988,367.227c2.081-0.236,3.692-1.082,3.587-1.891c-0.106-0.806-1.889-1.277-3.969-1.04c-2.101,0.234-3.713,1.081-3.608,1.889
	C349.105,366.99,350.909,367.464,352.988,367.227L352.988,367.227z"/>
<path style="fill-rule:evenodd;clip-rule:evenodd;fill:#FF007A;" d="M312.708,327.963c-0.701,0.493-0.255,2.166,0.996,3.721
	c1.274,1.574,2.866,2.42,3.566,1.948c0.722-0.512,0.255-2.165-0.997-3.72C315,328.357,313.407,327.491,312.708,327.963z
	 M313.153,326.961c0.106,0.806,1.888,1.278,3.99,1.042c2.081-0.236,3.692-1.082,3.587-1.889c-0.106-0.808-1.889-1.279-3.99-1.044
	C314.66,325.307,313.047,326.153,313.153,326.961z M312.453,326.093c0.807,0.315,2.122-0.865,2.95-2.675
	c0.827-1.791,0.849-3.504,0.021-3.838c-0.806-0.315-2.122,0.886-2.951,2.695C311.647,324.066,311.647,325.779,312.453,326.093z
	 M311.521,328.102c-0.809-0.314-2.124,0.886-2.951,2.677c-0.828,1.79-0.828,3.503-0.021,3.837c0.807,0.315,2.144-0.885,2.95-2.676
	C312.326,330.147,312.347,328.416,311.521,328.102z M311.285,326.231c0.7-0.492,0.235-2.165-1.019-3.72
	c-1.273-1.554-2.864-2.421-3.565-1.929c-0.701,0.493-0.254,2.166,1.019,3.72C308.973,325.858,310.564,326.725,311.285,326.231z
	 M307.232,329.125c2.08-0.235,3.692-1.082,3.587-1.89c-0.107-0.807-1.89-1.279-3.969-1.042c-2.1,0.235-3.692,1.081-3.608,1.888
	C303.369,328.89,305.152,329.361,307.232,329.125L307.232,329.125z"/>
<path style="fill-rule:evenodd;clip-rule:evenodd;fill:#FF007A;" d="M233.781,255.539c-0.7,0.492-0.233,2.163,1.019,3.719
	c1.273,1.555,2.865,2.42,3.565,1.929c0.7-0.493,0.255-2.145-1.019-3.719C236.094,255.932,234.503,255.046,233.781,255.539z
	 M234.248,254.534c0.105,0.808,1.889,1.279,3.968,1.043c2.101-0.236,3.715-1.083,3.587-1.889c-0.084-0.808-1.867-1.28-3.969-1.043
	C235.754,252.881,234.142,253.727,234.248,254.534z M233.547,253.668c0.806,0.314,2.144-0.887,2.949-2.677
	c0.829-1.792,0.849-3.504,0.022-3.838c-0.807-0.314-2.124,0.886-2.95,2.676C232.741,251.621,232.741,253.353,233.547,253.668z
	 M232.613,255.675c-0.806-0.315-2.122,0.887-2.95,2.677c-0.827,1.792-0.827,3.503-0.021,3.838c0.806,0.315,2.122-0.886,2.949-2.677
	C233.419,257.723,233.441,255.991,232.613,255.675z M232.38,253.806c0.701-0.492,0.233-2.165-1.018-3.719
	c-1.273-1.556-2.866-2.421-3.566-1.949c-0.7,0.512-0.255,2.165,1.019,3.739C230.066,253.432,231.657,254.279,232.38,253.806z
	 M228.327,256.7c2.079-0.237,3.693-1.083,3.586-1.89c-0.105-0.807-1.889-1.278-3.968-1.044c-2.101,0.237-3.692,1.083-3.587,1.891
	C224.464,256.462,226.226,256.936,228.327,256.7L228.327,256.7z"/>
<path style="fill-rule:evenodd;clip-rule:evenodd;fill:#FF007A;" d="M389.703,532.075c-0.573,0.393-0.191,1.731,0.829,3.012
	c1.039,1.259,2.313,1.967,2.907,1.572c0.552-0.412,0.19-1.75-0.827-3.029C391.571,532.388,390.276,531.662,389.703,532.075z
	 M390.085,531.249c0.085,0.669,1.528,1.041,3.226,0.847c1.697-0.178,2.992-0.889,2.907-1.535c-0.085-0.652-1.526-1.045-3.226-0.847
	C391.295,529.908,390.001,530.599,390.085,531.249z M389.512,530.541c0.658,0.255,1.741-0.71,2.397-2.167
	c0.659-1.456,0.68-2.853,0.021-3.107c-0.657-0.257-1.74,0.727-2.397,2.164C388.854,528.886,388.854,530.284,389.512,530.541z
	 M388.749,532.175c-0.638-0.257-1.719,0.728-2.398,2.183c-0.659,1.438-0.679,2.835,0,3.091c0.637,0.275,1.719-0.709,2.398-2.164
	C389.406,533.827,389.427,532.429,388.749,532.175z M388.557,530.658c0.573-0.395,0.192-1.752-0.827-3.01
	c-1.018-1.282-2.313-1.969-2.887-1.578c-0.572,0.395-0.212,1.754,0.828,3.013C386.689,530.342,387.984,531.05,388.557,530.658z
	 M385.268,532.999c1.698-0.176,2.992-0.866,2.907-1.535c-0.083-0.648-1.527-1.022-3.226-0.826c-1.698,0.178-2.992,0.867-2.906,1.537
	C382.127,532.823,383.57,533.197,385.268,532.999L385.268,532.999z"/>
<path style="fill-rule:evenodd;clip-rule:evenodd;fill:#FF007A;" d="M289.15,477.875c-0.595,0.391-0.212,1.749,0.806,3.01
	c1.042,1.261,2.335,1.967,2.909,1.576c0.551-0.395,0.19-1.754-0.828-3.014C290.998,478.188,289.702,477.48,289.15,477.875z
	 M289.512,477.047c0.085,0.67,1.527,1.044,3.226,0.847c1.697-0.177,2.992-0.867,2.907-1.536c-0.084-0.648-1.529-1.022-3.226-0.826
	C290.721,475.709,289.427,476.398,289.512,477.047z M288.938,476.338c0.659,0.275,1.74-0.709,2.398-2.165
	c0.658-1.455,0.68-2.833,0.022-3.107c-0.658-0.259-1.741,0.707-2.398,2.183C288.28,474.703,288.28,476.084,288.938,476.338z
	 M288.195,477.972c-0.658-0.255-1.739,0.729-2.397,2.184c-0.679,1.456-0.679,2.837-0.021,3.11c0.637,0.255,1.719-0.729,2.399-2.184
	C288.833,479.624,288.853,478.248,288.195,477.972z M287.982,476.456c0.573-0.393,0.192-1.753-0.826-3.011
	c-1.019-1.279-2.314-1.968-2.887-1.574c-0.574,0.393-0.191,1.751,0.828,3.012C286.116,476.142,287.41,476.851,287.982,476.456z
	 M284.694,478.817c1.697-0.194,3.014-0.884,2.929-1.554c-0.086-0.65-1.55-1.022-3.227-0.828c-1.696,0.178-3.013,0.867-2.929,1.536
	C281.573,478.623,283.018,478.995,284.694,478.817L284.694,478.817z"/>
<path style="fill-rule:evenodd;clip-rule:evenodd;fill:#FF007A;" d="M235.606,351.069c-0.572,0.394-0.213,1.731,0.827,3.012
	c1.019,1.259,2.314,1.968,2.887,1.573c0.573-0.413,0.212-1.77-0.828-3.031C237.474,351.364,236.179,350.656,235.606,351.069z
	 M235.967,350.243c0.105,0.648,1.549,1.043,3.226,0.847c1.697-0.198,3.013-0.888,2.928-1.537c-0.084-0.668-1.526-1.022-3.226-0.845
	C237.197,348.905,235.882,349.594,235.967,350.243z M235.393,349.534c0.659,0.256,1.74-0.709,2.42-2.165
	c0.658-1.456,0.658-2.854,0-3.111c-0.658-0.254-1.719,0.711-2.399,2.167C234.757,347.88,234.735,349.278,235.393,349.534z
	 M234.65,351.167c-0.658-0.255-1.719,0.709-2.398,2.166c-0.678,1.457-0.678,2.854-0.021,3.109s1.74-0.71,2.399-2.167
	C235.309,352.821,235.309,351.423,234.65,351.167z M234.46,349.651c0.551-0.413,0.19-1.751-0.828-3.01
	c-1.04-1.28-2.334-1.988-2.886-1.575c-0.595,0.395-0.212,1.753,0.807,3.012C232.592,349.337,233.887,350.046,234.46,349.651z
	 M231.17,351.995c1.698-0.18,2.993-0.886,2.908-1.535c-0.085-0.65-1.528-1.024-3.226-0.847c-1.696,0.196-2.992,0.886-2.907,1.533
	C228.029,351.815,229.473,352.191,231.17,351.995L231.17,351.995z"/>
<path style="fill-rule:evenodd;clip-rule:evenodd;fill:#FF007A;" d="M273.489,313.537c-0.595,0.394-0.212,1.752,0.807,3.012
	c1.039,1.279,2.334,1.969,2.908,1.575c0.571-0.395,0.19-1.753-0.829-3.012C275.334,313.853,274.04,313.145,273.489,313.537z
	 M273.849,312.731c0.085,0.648,1.527,1.022,3.226,0.826c1.697-0.178,3.014-0.866,2.907-1.536c-0.085-0.648-1.527-1.023-3.226-0.826
	C275.059,311.373,273.764,312.061,273.849,312.731z M273.277,312.002c0.657,0.275,1.74-0.708,2.397-2.165
	c0.679-1.456,0.679-2.833,0.021-3.089c-0.657-0.276-1.74,0.709-2.398,2.164C272.618,310.369,272.618,311.747,273.277,312.002z
	 M272.533,313.655c-0.658-0.255-1.739,0.708-2.397,2.166c-0.681,1.456-0.701,2.833-0.022,3.109c0.658,0.255,1.719-0.71,2.398-2.186
	C273.169,315.309,273.19,313.912,272.533,313.655z M272.321,312.121c0.573-0.394,0.212-1.752-0.828-3.013
	c-1.018-1.259-2.313-1.968-2.886-1.573c-0.573,0.393-0.19,1.752,0.828,3.01C270.453,311.825,271.748,312.514,272.321,312.121z
	 M269.033,314.481c1.696-0.196,3.012-0.885,2.927-1.534c-0.084-0.67-1.549-1.044-3.226-0.847c-1.697,0.197-3.013,0.866-2.928,1.536
	C265.891,314.285,267.355,314.66,269.033,314.481L269.033,314.481z"/>
<path style="fill-rule:evenodd;clip-rule:evenodd;fill:#FF007A;" d="M302.732,393.58c-0.572,0.414-0.212,1.752,0.828,3.01
	c1.019,1.28,2.313,1.968,2.887,1.576c0.572-0.393,0.19-1.752-0.828-3.011S303.307,393.187,302.732,393.58z M303.094,392.772
	c0.085,0.65,1.528,1.023,3.226,0.848c1.697-0.197,3.012-0.888,2.928-1.557c-0.105-0.648-1.548-1.022-3.226-0.826
	C304.324,391.415,303.009,392.104,303.094,392.772z M302.52,392.063c0.659,0.255,1.742-0.706,2.398-2.163
	c0.68-1.477,0.68-2.854,0.021-3.109c-0.658-0.276-1.719,0.709-2.397,2.164C301.884,390.411,301.862,391.809,302.52,392.063z
	 M301.778,393.697c-0.658-0.256-1.74,0.709-2.397,2.167c-0.68,1.454-0.68,2.832-0.021,3.107c0.658,0.258,1.74-0.708,2.398-2.164
	C302.435,395.35,302.435,393.953,301.778,393.697z M301.587,392.161c0.552-0.392,0.191-1.75-0.848-3.009
	c-1.019-1.261-2.314-1.969-2.887-1.575c-0.572,0.415-0.19,1.751,0.828,3.031C299.72,391.869,301.014,392.557,301.587,392.161z
	 M298.298,394.523c1.676-0.195,2.991-0.885,2.906-1.534c-0.084-0.671-1.527-1.043-3.226-0.846c-1.697,0.197-2.992,0.886-2.928,1.536
	C295.135,394.328,296.599,394.721,298.298,394.523L298.298,394.523z"/>
<path style="fill-rule:evenodd;clip-rule:evenodd;fill:#FF007A;" d="M382.807,408.064c-0.574,0.395-0.213,1.754,0.826,3.012
	c1.021,1.28,2.315,1.968,2.887,1.574c0.574-0.395,0.192-1.751-0.828-3.01C384.673,408.38,383.379,407.673,382.807,408.064z
	 M383.166,407.258c0.085,0.649,1.53,1.024,3.227,0.847c1.698-0.197,3.014-0.886,2.928-1.555c-0.085-0.649-1.528-1.024-3.226-0.826
	C384.398,405.9,383.081,406.589,383.166,407.258z M382.594,406.55c0.657,0.255,1.74-0.709,2.398-2.166
	c0.679-1.454,0.679-2.852,0.021-3.128c-0.658-0.237-1.719,0.728-2.398,2.186C381.957,404.897,381.936,406.294,382.594,406.55z
	 M381.85,408.185c-0.657-0.257-1.74,0.707-2.397,2.164c-0.658,1.456-0.679,2.834-0.02,3.108c0.657,0.256,1.739-0.708,2.397-2.185
	C382.509,409.837,382.509,408.439,381.85,408.185z M381.639,406.647c0.573-0.394,0.211-1.731-0.807-3.012
	c-1.04-1.258-2.334-1.968-2.906-1.572c-0.574,0.412-0.193,1.77,0.826,3.03C379.792,406.353,381.087,407.042,381.639,406.647z
	 M378.37,409.011c1.698-0.199,2.992-0.886,2.907-1.537c-0.083-0.669-1.526-1.042-3.226-0.844c-1.697,0.194-2.992,0.886-2.928,1.535
	C375.23,408.812,376.673,409.206,378.37,409.011L378.37,409.011z"/>
<path style="fill-rule:evenodd;clip-rule:evenodd;fill:#FF007A;" d="M365.765,498.578c-0.573,0.395-0.212,1.75,0.806,3.011
	c1.039,1.278,2.334,1.969,2.908,1.596c0.572-0.415,0.191-1.771-0.828-3.032C367.61,498.894,366.315,498.183,365.765,498.578z
	 M366.125,497.77c0.085,0.65,1.527,1.046,3.226,0.849c1.697-0.198,3.013-0.886,2.907-1.536c-0.084-0.668-1.529-1.043-3.205-0.845
	C367.356,496.434,366.04,497.121,366.125,497.77z M365.553,497.063c0.658,0.255,1.739-0.709,2.397-2.165
	c0.679-1.457,0.679-2.854,0.021-3.11s-1.741,0.71-2.397,2.166C364.895,495.409,364.895,496.806,365.553,497.063z M364.809,498.696
	c-0.658-0.258-1.74,0.708-2.397,2.165c-0.68,1.457-0.68,2.855-0.022,3.109c0.659,0.255,1.72-0.709,2.398-2.166
	C365.446,500.349,365.468,498.952,364.809,498.696z M364.596,497.181c0.574-0.415,0.213-1.751-0.828-3.031
	c-1.019-1.258-2.313-1.969-2.886-1.555c-0.573,0.395-0.19,1.732,0.829,3.011C362.729,496.866,364.024,497.575,364.596,497.181z
	 M361.329,499.523c1.676-0.198,2.993-0.887,2.907-1.536c-0.085-0.649-1.529-1.044-3.225-0.845c-1.698,0.195-3.015,0.883-2.908,1.533
	C358.188,499.345,359.631,499.72,361.329,499.523L361.329,499.523z"/>
<path style="fill-rule:evenodd;clip-rule:evenodd;fill:#FF007A;" d="M197.299,391.335c-0.573,0.395-0.211,1.733,0.828,3.014
	c1.019,1.258,2.313,1.967,2.886,1.572c0.573-0.413,0.192-1.77-0.827-3.031C199.167,391.632,197.871,390.923,197.299,391.335z
	 M197.66,390.509c0.084,0.669,1.528,1.044,3.226,0.849c1.698-0.197,2.993-0.887,2.907-1.536c-0.084-0.65-1.527-1.044-3.204-0.846
	C198.89,389.171,197.575,389.859,197.66,390.509z M197.088,389.802c0.656,0.256,1.739-0.709,2.397-2.167
	c0.679-1.455,0.679-2.852,0.02-3.108c-0.658-0.255-1.719,0.709-2.397,2.165C196.45,388.146,196.429,389.544,197.088,389.802z
	 M196.344,391.436c-0.658-0.258-1.741,0.708-2.399,2.164c-0.657,1.456-0.678,2.854-0.021,3.11c0.659,0.256,1.719-0.709,2.398-2.167
	C196.98,393.088,197.003,391.692,196.344,391.436z M196.152,389.92c0.553-0.413,0.192-1.751-0.826-3.012
	c-1.041-1.278-2.335-1.987-2.908-1.576c-0.573,0.396-0.19,1.752,0.828,3.013C194.264,389.604,195.58,390.313,196.152,389.92z
	 M192.864,392.262c1.696-0.179,2.992-0.867,2.907-1.535c-0.084-0.649-1.528-1.025-3.225-0.847c-1.699,0.197-3.014,0.886-2.909,1.535
	C189.723,392.083,191.166,392.458,192.864,392.262L192.864,392.262z"/>
<path style="fill-rule:evenodd;clip-rule:evenodd;fill:#FF007A;" d="M243.352,47.923c-0.572,0.394-0.212,1.731,0.807,3.011
	c1.04,1.259,2.334,1.949,2.907,1.574c0.573-0.413,0.19-1.751-0.829-3.03C245.22,48.218,243.925,47.51,243.352,47.923z
	 M243.712,47.097c0.085,0.649,1.529,1.042,3.227,0.846c1.696-0.197,3.012-0.885,2.928-1.535c-0.085-0.65-1.528-1.043-3.226-0.846
	C244.943,45.758,243.628,46.447,243.712,47.097z M243.139,46.388c0.658,0.256,1.741-0.709,2.398-2.164
	c0.68-1.458,0.68-2.854,0.022-3.11c-0.659-0.255-1.719,0.708-2.398,2.166C242.503,44.735,242.482,46.132,243.139,46.388z
	 M242.397,48.022c-0.659-0.256-1.741,0.709-2.398,2.164c-0.679,1.458-0.679,2.854-0.021,3.11c0.658,0.255,1.718-0.708,2.397-2.166
	C243.035,49.676,243.055,48.278,242.397,48.022z M242.186,46.487c0.572-0.394,0.212-1.732-0.829-3.011
	c-1.018-1.26-2.313-1.968-2.886-1.576c-0.573,0.414-0.191,1.772,0.828,3.032C240.317,46.191,241.612,46.9,242.186,46.487z
	 M238.895,48.849c1.699-0.196,3.013-0.886,2.929-1.536c-0.085-0.649-1.549-1.023-3.226-0.846c-1.697,0.197-3.013,0.886-2.928,1.535
	C235.754,48.671,237.218,49.045,238.895,48.849L238.895,48.849z"/>
<path style="fill:#FF007A;" d="M147.468,185.395c0,0-26.21,21.925-28.013,23.913c0,0.412,0.021,0.845,0.064,1.259
	c0.232,2.617,1.421,4.743,3.311,5.982c0.084,0.059,0.19,0.119,0.275,0.177c3.184,1.988,6.388,2.027,8.957,0.177
	c0.572-0.414,1.062-0.906,1.464-1.476c1.337-1.83,1.761-4.311,0.955-6.2c-0.425-0.964-1.188-1.791-2.123-2.381
	c-0.53-0.335-1.125-0.571-1.74-0.708c-1.189-0.256-2.25-0.041-3.078,0.571c-0.255,0.216-0.488,0.432-0.658,0.668
	c-0.51,0.708-0.595,1.536-0.403,2.105c0.125,0.415,0.38,0.729,0.721,0.945c0.318,0.198,0.721,0.315,1.208,0.315
	c0.489,0,0.914-0.255,1.147-0.59c0.127-0.177,0.212-0.354,0.233-0.531c0.042-0.119,0.064-0.473-0.212-0.611
	c-0.042-0.039-0.106-0.059-0.191-0.079c-0.042-0.019-0.085-0.039-0.128-0.058c-0.169-0.118-0.253-0.315-0.19-0.492
	c0.021-0.06,0.042-0.1,0.084-0.139c0.106-0.157,0.319-0.236,0.51-0.197c0.169,0.04,0.339,0.1,0.467,0.197
	c0.509,0.295,0.721,0.886,0.595,1.497c-0.064,0.313-0.192,0.629-0.404,0.905c-0.404,0.571-1.103,1.003-1.973,1.003
	c-0.638-0.02-1.231-0.177-1.699-0.472c-0.531-0.315-0.892-0.787-1.082-1.397c-0.319-0.944-0.085-2.008,0.551-2.873
	c0.235-0.335,0.531-0.63,0.85-0.887c1.083-0.807,2.461-1.081,3.905-0.767c0.721,0.157,1.422,0.452,2.058,0.845
	c1.061,0.67,1.932,1.634,2.419,2.737c0.956,2.204,0.468,4.999-1.039,7.065c-0.489,0.649-1.062,1.24-1.699,1.713
	c-2.928,2.105-6.6,2.046-10.038-0.1c0,0,0-0.019-0.021-0.019c-0.085-0.06-0.192-0.118-0.298-0.197
	c-2.101-1.397-3.417-3.739-3.692-6.592c-0.021-0.119,0-0.238-0.021-0.375c-3.227,3.76-6.325,8.385-6.728,13.619
	c-1.74,5.216-1.634,11.514,0.594,16.67c2.589,5.039,9.146,8.541,14.982,6.967c5.794-1.555,9.275-7.164,9.02-11.808
	c0-4.862-4.796-8.424-8.808-7.696c-4.074,0.788-5.454,3.641-5.624,5.491c-0.148,2.066,0.723,3.542,0.616,3.582
	c0.107-0.04-1.825-1.889-1.719-3.976c0.128-3.247,2.781-5.492,6.982-6.396c4.16-0.865,10.23,4.055,10.399,9.172
	c0.402,4.881-3.947,11.356-10.314,13.324c-6.451,1.851-14.007-2.381-17.169-7.912c-2.716-5.786-3.141-12.063-1.528-18.146
	c0.149-0.492,0.339-1.004,0.531-1.476c-0.192,0.256-0.403,0.512-0.595,0.767c-2.058,2.913-3.842,6.141-5.306,9.584
	c-1.209,3.839-1.973,7.755-2.334,11.711c-0.572,6.003,0.742,16.473,10.292,14.997c2.674-0.394,6.198-1.338,8.107-3.129
	c-1.486,2.303-1.21,5.472,1.549,6.869c2.545,1.319,6.133,1.042,8.891,0.551c-6.366,1.909-13.73,3.68-20.075,0.944
	c-4.945-2.164-8.49-6.985-9.529-11.768c-1.465-6.83,0.913-13.562,3.056-20.115c-2.716,6.318-4.288,13.364-4.138,20.646
	c0.127,8.699,2.568,18.637,9.699,24.876c7.745,6.869,20.841,7.676,30.413,2.42c4.499-2.48,8.849-6.1,10.758-10.568
	c1.443-3.326,1.911-7.99-1.909-9.998c-1.89-0.984-7.173-1.614-5.645,1.889c2.887-0.097,6.685,1.949,1.931,3.071
	c-3.523,0.866-4.837-2.972-2.908-5.176c1.804-2.028,6.877-1.771,8.703,0.019c1.952,1.909,2.503,5.727,2.144,8.069
	c-1.762,11.337-12.884,15.785-23.791,17.496c-9.487,1.477-17.976-2.106-23.196-8.817c9.593,15.215,23.43,25.172,23.472,25.192
	c2.44,2.027,9.634,7.696,22.05,12.046c7.619,2.518,17.72,4.742,27.993,1.73c10.186-3.011,18.292-14.071,17.21-26.057
	c-0.657-11.986-12.054-21.925-22.898-20.272c-10.909,0.944-17.637,10.903-16.087,18.678c0.934,7.951,6.069,13.915,10.506,15.114
	c1.995,0.592,3.841,0.139,4.923-0.256c1.379-0.393,2.632-1.436,3.056-2.755c0.085-0.216,0.127-0.491,0.149-0.747
	c0.042-0.905-0.34-1.831-0.998-2.521c-0.298-0.274-0.7-0.511-1.081-0.669c-0.235-0.117-0.574-0.197-0.808-0.039
	c-0.361,0.197-0.085,0.511,0.084,0.748c0.149,0.197,0.256,0.393,0.361,0.609c0.362,0.769,0.509,1.969-0.19,2.598
	c-0.595,0.492-1.613,0.553-2.335,0.355c-0.466-0.119-1.061-0.531-1.4-0.886c-1.147-1.319-0.085-3.583,1.251-4.311
	c2.038-1.141,4.117-0.648,5.348,1.339c0.34,0.531,0.552,1.378,0.552,2.028c0.042,1.181-0.658,2.439-1.485,3.307
	c-0.213,0.157-0.213,1.239-0.383,1.317c-1.847,1.555-5.008,1.595-7.703,0.906c-4.5-1.161-10.314-7.597-11.397-15.725
	c-1.761-8.03,6.579-19.897,18.018-20.98c11.354-1.83,24.258,10.076,24.915,22.653c1.104,12.497-9.338,24.778-19.97,27.79
	c-10.652,3.011-20.415-0.236-28.078-2.933l0,0c7.259,3.621,14.348,7.302,20.31,12.084c7.429,5.826,13.115,13.56,14.624,21.767
	c1.57,8.128,0.488,16.041-2.527,22.317c-2.906,6.358-8.234,11.436-13.962,12.321c-5.604,0.926-11.354-0.235-14.539-2.677
	c-2.695-1.85-4.223-3.935-5.135-5.569c-0.976-1.477-1.423-3.523-1.549-5.394c-0.064-1.219-0.085-2.716,0.296-3.876
	c0.977-3.171,3.756-4.684,6.261-5.886c-0.976,0.649-2.144,1.653-2.462,3.051c-0.381,1.476,0.595,2.933,1.783,3.465
	c-1.167-0.176-2.526,0.511-3.459,1.199c-0.616,0.454-1.209,1.438-1.4,2.146c-0.233,0.866-0.043,1.771,0.211,2.597
	c0.85,2.479,2.485,4.606,4.415,6.417c0.445,0.354,0.913,0.689,1.443,1.043c3.184,2.343,8.319,3.286,13.73,2.265
	c5.519-0.946,10.761-5.296,13.5-11.474c2.8-6.123,3.755-13.897,2.1-21.71c-1.549-7.873-7.046-15.174-14.325-20.763
	c-7.302-5.747-16.278-9.841-25.446-14.407c-0.806-0.394-1.613-0.807-2.419-1.22c2.928,2.007,5.858,3.955,8.702,5.943
	c7.448,5.079,13.899,11.002,17.889,16.67c3.842,5.313,3.842,10.018,3.121,12.261c-0.806,2.322-1.868,2.637-2.355,2.402
	c-0.616-0.237-0.891-0.927-0.976-2.677c-0.149-1.772-0.064-4.921-2.929-10.098c-3.034-5.57-8.765-11.67-15.895-17.082
	c-2.314-1.811-4.755-3.641-7.195-5.452c0.169,0.118,0.275,0.256,0.424,0.433c6.771,6.613,15.725,17.359,12.946,28.951
	c-1.188,5.512-4.118,10.273-8.278,13.698c-4.265,3.403-10.611,5.57-15.661,5.649c-10.57,0.294-19.398-9.015-20.925-16.1
	c-1.72-7.185,1.932-14.426,6.472-15.272c0.7-0.197,1.549-0.414,2.101-0.433c0.744-0.06,1.974,0.137,2.653,0.412
	c1.061,0.453,2.08,1.338,2.568,2.342c0.233,0.532,0.616,1.812,0.616,2.401c-0.085,1.437-1.104,2.735-2.569,3.268
	c-1.146,0.434-2.802,0.314-3.884-0.276c-0.573-0.354-1.168-1.023-1.358-1.653c-0.318-1.004,0-2.164,0.849-2.774
	c0.658-0.472,1.699-0.649,2.484-0.314c1.019,0.452,1.337,1.751,1.082,2.734c-0.042,0.218-0.212,0.474-0.127,0.689
	c0.403,0.926,1.655-0.689,1.804-1.003c0.403-0.867,0.466-1.811,0.085-2.696c-0.085-0.236-0.212-0.474-0.382-0.65
	c-0.531-0.708-1.337-1.181-2.186-1.476c-0.806-0.276-1.677-0.335-2.483-0.197c-0.212,0.078-0.425,0.118-0.658,0.178
	c-0.127,0.02-0.234,0.098-0.339,0.117h-0.021l0,0l0,0l0,0c-4.162,1.221-6.707,7.716-4.968,14.486
	c1.614,6.888,8.978,14.798,19.058,14.407c4.817-0.139,9.953-1.772,13.965-5.021c3.989-3.307,6.94-8.107,8.107-13.422
	c2.675-11.041-4.902-20.803-11.566-27.493c-0.891-0.887-1.784-1.753-2.675-2.619c1.932,1.89,3.778,3.937,4.881,6.612
	c1.041,2.501,1.295,5.768,0.297,8.188c-1.273,3.089-4.18,4.408-6.791,5.352c1.061-0.569,2.292-1.475,2.758-2.813
	c0.488-1.457-0.36-2.973-1.507-3.602c1.147,0.275,2.569-0.315,3.523-0.905c3.545-2.107,0.977-7.263-0.933-9.86
	c-1.295-1.791-2.738-3.445-4.266-4.9c0.425,0.433,0.89,0.846,1.337,1.259c-0.723-0.709-1.465-1.358-2.187-2.047
	c-1.146-0.904-2.271-1.811-3.353-2.696c-5.264-3.562-17.402-14.918-21.669-20.055c-8.043-9.664-9.571-16.649-9.996-17.831
	c-0.021-0.04-0.021-0.059-0.042-0.099c0-0.019,0-0.019,0-0.019l0,0c-2.016-5.097-3.184-10.962-3.417-16.118
	c-0.169-10.982,2.611-25.389,15.896-41.331C135.012,189.941,147.468,185.395,147.468,185.395L147.468,185.395z"/>
<path style="fill-rule:evenodd;clip-rule:evenodd;fill:#FF007A;" d="M171.578,184.529c-0.978,0.668-0.362,2.992,1.4,5.156
	s3.969,3.366,4.945,2.676c0.977-0.669,0.34-2.992-1.4-5.156C174.761,185.041,172.554,183.84,171.578,184.529z M172.214,183.131
	c0.127,1.123,2.611,1.772,5.518,1.437c2.886-0.334,5.114-1.516,4.988-2.638c-0.149-1.121-2.632-1.751-5.519-1.437
	C174.294,180.829,172.065,182.009,172.214,183.131z M171.216,181.912c1.125,0.452,2.973-1.221,4.118-3.721
	c1.145-2.479,1.145-4.859,0.021-5.313c-1.124-0.434-2.95,1.219-4.096,3.718C170.113,179.078,170.091,181.479,171.216,181.912z
	 M169.943,184.706c-1.125-0.432-2.972,1.221-4.118,3.72c-1.146,2.479-1.167,4.861-0.021,5.313c1.125,0.433,2.95-1.219,4.097-3.719
	C171.047,187.54,171.067,185.159,169.943,184.706z M169.604,182.109c0.976-0.689,0.339-2.993-1.422-5.176
	c-1.762-2.146-3.969-3.366-4.945-2.678c-0.976,0.689-0.34,2.991,1.401,5.157C166.398,181.577,168.627,182.777,169.604,182.109z
	 M163.98,186.124c2.886-0.335,5.136-1.516,4.988-2.618c-0.17-1.143-2.632-1.772-5.54-1.458c-2.887,0.335-5.114,1.516-4.988,2.638
	C158.61,185.808,161.072,186.458,163.98,186.124L163.98,186.124z"/>
<path style="fill-rule:evenodd;clip-rule:evenodd;fill:#FF007A;" d="M154.769,172.818c-0.977,0.689-0.339,2.992,1.422,5.158
	c1.74,2.164,3.968,3.365,4.944,2.675c0.976-0.668,0.34-2.991-1.421-5.156C157.974,173.332,155.745,172.13,154.769,172.818z
	 M155.406,171.421c0.148,1.122,2.63,1.771,5.518,1.437c2.907-0.334,5.136-1.515,4.987-2.636c-0.148-1.124-2.61-1.752-5.517-1.437
	C157.507,169.12,155.256,170.3,155.406,171.421z M154.43,170.2c1.125,0.454,2.97-1.219,4.096-3.719
	c1.146-2.48,1.167-4.861,0.042-5.314c-1.125-0.433-2.949,1.221-4.095,3.721C153.326,167.367,153.305,169.749,154.43,170.2z
	 M153.156,172.996c-1.146-0.434-2.971,1.22-4.117,3.719c-1.146,2.481-1.168,4.862-0.043,5.315c1.125,0.453,2.972-1.22,4.117-3.72
	C154.259,175.831,154.28,173.449,153.156,172.996z M152.796,170.397c0.976-0.688,0.36-2.991-1.401-5.175
	c-1.762-2.145-3.99-3.366-4.945-2.677c-0.997,0.688-0.361,3.011,1.401,5.156C149.612,169.866,151.82,171.066,152.796,170.397z
	 M147.172,174.412c2.907-0.314,5.135-1.494,4.986-2.618c-0.148-1.121-2.61-1.77-5.517-1.456c-2.908,0.334-5.137,1.516-4.988,2.638
	C141.801,174.098,144.285,174.747,147.172,174.412L147.172,174.412z"/>
<path style="fill-rule:evenodd;clip-rule:evenodd;fill:#FF007A;" d="M151.204,193.346c-1.168-0.294-2.78,1.555-3.565,4.153
	c-0.807,2.618-0.489,4.98,0.678,5.294c1.188,0.315,2.781-1.554,3.588-4.173C152.688,196.022,152.392,193.661,151.204,193.346z
	 M152.796,192.973c-0.871,0.787,0.063,3.01,2.101,4.959c2.037,1.948,4.393,2.874,5.285,2.086c0.87-0.788-0.085-3.013-2.122-4.94
	C156.021,193.13,153.664,192.186,152.796,192.973z M153.24,191.516c0.298,1.102,2.844,1.457,5.667,0.786
	c2.844-0.669,4.902-2.084,4.605-3.187c-0.298-1.103-2.844-1.457-5.688-0.788C155.003,188.977,152.943,190.414,153.24,191.516z
	 M150.079,192.263c-0.318-1.101-2.844-1.456-5.687-0.788c-2.823,0.65-4.882,2.067-4.584,3.188c0.297,1.102,2.843,1.457,5.666,0.788
	C148.316,194.783,150.376,193.366,150.079,192.263z M152.095,190.434c1.188,0.294,2.78-1.554,3.586-4.173
	c0.786-2.597,0.489-4.959-0.678-5.274c-1.188-0.314-2.802,1.555-3.587,4.154C150.609,187.757,150.928,190.118,152.095,190.434z
	 M145.24,188.702c2.037,1.948,4.392,2.893,5.263,2.106c0.892-0.788-0.064-3.012-2.079-4.959c-2.038-1.949-4.415-2.874-5.286-2.087
	C142.269,184.548,143.202,186.773,145.24,188.702L145.24,188.702z"/>
<path style="fill-rule:evenodd;clip-rule:evenodd;fill:#FF007A;" d="M134.056,182.109c-1.125-0.473-2.993,1.141-4.224,3.601
	c-1.209,2.46-1.294,4.842-0.19,5.314c1.126,0.473,3.013-1.143,4.224-3.603C135.074,184.962,135.159,182.58,134.056,182.109z
	 M135.69,181.951c-0.998,0.65-0.446,2.992,1.251,5.196c1.699,2.204,3.862,3.463,4.883,2.813c0.996-0.668,0.402-2.991-1.274-5.194
	C138.852,182.562,136.667,181.301,135.69,181.951z M136.369,180.572c0.106,1.123,2.568,1.831,5.476,1.576
	c2.908-0.257,5.178-1.358,5.051-2.5c-0.105-1.122-2.568-1.831-5.476-1.575C138.513,178.33,136.241,179.452,136.369,180.572z
	 M133.1,180.869c-0.105-1.141-2.568-1.831-5.475-1.594c-2.907,0.256-5.179,1.376-5.071,2.519c0.126,1.121,2.588,1.831,5.496,1.574
	C130.957,183.112,133.228,181.99,133.1,180.869z M135.415,179.333c1.103,0.472,2.992-1.143,4.223-3.602
	c1.209-2.46,1.293-4.842,0.19-5.313c-1.125-0.473-3.014,1.14-4.223,3.6C134.396,176.479,134.311,178.862,135.415,179.333z
	 M128.92,176.676c1.675,2.205,3.861,3.464,4.859,2.815c0.998-0.669,0.424-2.992-1.273-5.197c-1.677-2.204-3.863-3.463-4.86-2.814
	C126.648,172.149,127.221,174.472,128.92,176.676L128.92,176.676z"/>
<path style="fill-rule:evenodd;clip-rule:evenodd;fill:#FF007A;" d="M134.629,163.293c-1.188-0.275-2.76,1.595-3.523,4.212
	c-0.764,2.616-0.425,4.959,0.742,5.274c1.189,0.295,2.759-1.594,3.523-4.211C136.135,165.97,135.817,163.608,134.629,163.293z
	 M136.22,162.919c-0.871,0.788,0.085,2.991,2.143,4.921c2.059,1.929,4.437,2.833,5.306,2.026c0.87-0.787-0.105-2.991-2.165-4.92
	C139.446,163.038,137.091,162.112,136.22,162.919z M136.644,161.443c0.32,1.102,2.845,1.437,5.668,0.728
	c2.822-0.688,4.88-2.125,4.563-3.227c-0.319-1.103-2.865-1.418-5.688-0.729C138.363,158.905,136.326,160.361,136.644,161.443z
	 M133.482,162.23c-0.317-1.103-2.864-1.418-5.687-0.729c-2.824,0.689-4.861,2.126-4.542,3.228c0.296,1.103,2.843,1.437,5.667,0.729
	C131.743,164.77,133.78,163.313,133.482,162.23z M135.478,160.38c1.188,0.295,2.758-1.594,3.543-4.211
	c0.743-2.619,0.425-4.979-0.764-5.275c-1.167-0.295-2.759,1.594-3.523,4.212C133.971,157.704,134.311,160.065,135.478,160.38z
	 M128.602,158.728c2.058,1.93,4.436,2.834,5.305,2.027c0.848-0.787-0.106-2.993-2.164-4.921c-2.059-1.929-4.437-2.834-5.306-2.046
	C125.587,154.594,126.543,156.798,128.602,158.728L128.602,158.728z"/>
<path style="fill-rule:evenodd;clip-rule:evenodd;fill:#FF007A;" d="M171.11,164.828c-1.167-0.294-2.738,1.575-3.522,4.193
	c-0.765,2.617-0.424,4.979,0.765,5.274c1.167,0.295,2.758-1.574,3.522-4.191S172.299,165.124,171.11,164.828z M172.702,164.435
	c-0.87,0.806,0.106,3.011,2.166,4.939c2.058,1.91,4.435,2.834,5.283,2.028c0.871-0.788-0.105-2.992-2.142-4.921
	C175.949,164.553,173.572,163.648,172.702,164.435z M173.126,162.979c0.318,1.102,2.864,1.417,5.687,0.728s4.86-2.145,4.542-3.248
	c-0.297-1.083-2.844-1.417-5.667-0.728C174.867,160.42,172.829,161.876,173.126,162.979z M169.964,163.747
	c-0.317-1.083-2.865-1.418-5.688-0.729c-2.821,0.689-4.859,2.145-4.541,3.247c0.318,1.083,2.865,1.418,5.687,0.729
	C168.244,166.304,170.283,164.848,169.964,163.747z M171.98,161.896c1.167,0.295,2.759-1.574,3.522-4.191
	c0.765-2.617,0.425-4.98-0.742-5.275c-1.189-0.294-2.781,1.594-3.545,4.192C170.453,159.239,170.792,161.601,171.98,161.896z
	 M165.105,160.262c2.059,1.909,4.414,2.834,5.284,2.027c0.87-0.788-0.106-3.011-2.165-4.921c-2.059-1.929-4.415-2.834-5.285-2.047
	C162.07,156.129,163.046,158.333,165.105,160.262L165.105,160.262z"/>
<path style="fill-rule:evenodd;clip-rule:evenodd;fill:#FF007A;" d="M153.644,154.142c-1.188-0.295-2.759,1.594-3.523,4.191
	c-0.763,2.618-0.424,4.98,0.744,5.275c1.188,0.295,2.758-1.575,3.543-4.193C155.172,156.798,154.832,154.437,153.644,154.142z
	 M155.236,153.748c-0.871,0.808,0.085,3.012,2.143,4.941c2.059,1.909,4.436,2.813,5.305,2.026c0.871-0.787-0.106-3.011-2.165-4.919
	C158.462,153.866,156.106,152.961,155.236,153.748z M155.661,152.292c0.318,1.083,2.865,1.417,5.687,0.727
	c2.823-0.687,4.86-2.145,4.541-3.248c-0.316-1.081-2.864-1.416-5.687-0.728C157.379,149.733,155.342,151.19,155.661,152.292z
	 M152.499,153.059c-0.318-1.082-2.866-1.416-5.688-0.727c-2.822,0.687-4.86,2.145-4.542,3.246c0.297,1.083,2.844,1.417,5.667,0.729
	C150.758,155.618,152.796,154.161,152.499,153.059z M154.493,151.208c1.188,0.295,2.76-1.573,3.543-4.192
	c0.766-2.617,0.426-4.979-0.763-5.274c-1.167-0.294-2.758,1.594-3.523,4.193C152.986,148.552,153.326,150.914,154.493,151.208z
	 M147.617,149.556c2.059,1.928,4.436,2.833,5.307,2.047c0.869-0.808-0.107-3.012-2.166-4.941c-2.059-1.908-4.436-2.813-5.305-2.026
	C144.604,145.423,145.558,147.647,147.617,149.556L147.617,149.556z"/>
<g>
	<g style="opacity:0.66;">
		<path style="fill:#FFFFFF;" d="M319.362,185.431c-5.507,0-8.299-1.36-8.299-4.042c0-0.775,0.277-1.716,0.847-2.877
			c1.59-3.343,5.938-10.514,12.92-21.307c6.118-9.394,11.735-18.622,16.696-27.429c3.104-5.397,3.755-7.42,3.755-8.168
			c0.002-0.041-0.064-0.09-0.296-0.09c-1.878,0-5.18,0.247-9.815,0.735c-4.236,0.394-7.625,0.593-10.079,0.593
			c-2.913,0-3.524-1.155-3.524-2.124c0-0.313,0.106-0.908,1.021-2.467c0.105-0.195,0.451-0.837,1.065-0.837
			c0.318,0,0.744,0.167,0.96,0.959c0.031,0.094,0.595,1.107,8.885,1.107c4.723,0,9.681-0.149,14.736-0.442
			c12.093-1.031,16.073-1.416,17.074-1.546c0.072-0.05,0.16-0.079,0.259-0.079c5.448,0,9.85,0.815,13.083,2.423
			c5.029,2.449,7.581,6.289,7.581,11.412c0,4.958-2.345,9.765-6.969,14.288c-4.059,3.89-8.791,6.745-14.067,8.489
			c-5.254,1.737-10.349,2.618-15.143,2.618c-2.702,0-5.064-0.44-7.021-1.309c-0.474-0.152-0.772-0.556-0.772-1.089
			c0-0.191,0.082-0.816,1.137-0.816c0.234,0,0.771,0.042,2.864,0.375c1.499,0.241,2.73,0.363,3.662,0.363
			c4.468,0,8.414-0.779,11.727-2.315c5.918-2.792,10.556-7.142,13.78-12.927c1.542-2.765,2.324-5.861,2.324-9.204
			c0-6.715-4.314-9.98-13.188-9.98c-2.912,0-5.277,0.243-7.031,0.721c-1.151,0.267-2.117,1.036-2.889,2.289
			c-13.163,20.367-23.472,37.204-30.647,50.052c-1.161,1.981-1.747,3.679-1.747,5.054c0,3.03,2.7,4.502,8.254,4.502h2.388
			c1.169,0,1.295,0.659,1.295,0.943c0,0.32-0.156,0.886-1.204,1.082C328.39,185.082,323.813,185.431,319.362,185.431z"/>
		<path style="fill:#FFFFFF;" d="M381.91,185.431c-5.295,0-7.98-2.254-7.98-6.699c0-1.218,0.111-2.346,0.33-3.354
			c0.968-4.289,3.169-8.627,6.542-12.898c3.373-4.268,7.147-7.539,11.218-9.725c2.507-1.313,4.888-1.979,7.08-1.979
			c3.5,0,5.275,1.062,5.275,3.157c0,2.511-3.017,4.979-9.222,7.547c-3.035,1.262-6.523,2.298-10.372,3.083
			c-2.313,4.158-3.485,8.08-3.485,11.659c0,3.736,1.763,5.552,5.389,5.552c1.229,0,2.634-0.194,4.177-0.576
			c8.026-1.933,15.592-7.189,22.493-15.625c0.366-0.513,0.847-0.626,1.183-0.626c0.594,0,0.978,0.37,0.978,0.943
			c0,0.34-0.161,0.662-0.478,0.957c-4.012,4.703-8.925,8.859-14.563,12.312C393.743,183.32,387.496,185.431,381.91,185.431z
			 M396.076,153.4c-1.146,0-2.375,0.556-3.654,1.651c-2.246,1.91-4.35,4.359-6.266,7.292c7.519-1.709,11.329-4.238,11.329-7.524
			C397.485,153.812,397.077,153.4,396.076,153.4z"/>
		<path style="fill:#FFFFFF;" d="M405.464,184.545c-0.781,0-2.092-0.352-2.092-2.711c0-0.693,0.39-1.649,1.191-2.921
			c1.953-3.108,4.585-7.422,7.823-12.821l8.566-14.042c0.503-0.935,1.133-1.42,1.86-1.42c1.965,0,3.047,1.112,3.047,3.131
			c0,0.502-0.211,1.03-0.646,1.615c-0.789,1.325-1.791,2.971-2.989,4.914c2.165-1.988,4.773-3.903,7.809-5.75
			c4.256-2.631,7.519-3.911,9.969-3.911c3.306,0,4,1.396,4,2.566c0,0.534-0.333,1.132-1.019,1.827
			c-0.554,0.559-1.358,1.719-2.395,3.448c-0.41,0.573-0.89,0.686-1.224,0.686c-0.401,0-0.729-0.199-0.92-0.561
			c-0.953-1.499-2.532-2.244-4.811-2.244c-2.623,0-5.404,1.25-8.268,3.717c-2.399,2.126-4.865,4.906-7.324,8.257
			c-2.464,3.353-6.238,8.591-11.218,15.567C406.608,184.192,406.199,184.545,405.464,184.545z"/>
		<path style="fill:#FFFFFF;" d="M339.411,272.52c-4.525,0-8.253-0.869-11.082-2.582c-3.499-2.03-5.721-5.221-6.598-9.479
			c-0.007-0.033-0.01-0.067-0.01-0.101v-0.443c0-1.012,0.626-1.09,0.818-1.09c0.336,0,0.929,0.169,1.129,1.299
			c0.507,3.278,2.459,5.888,5.804,7.769c2.566,1.427,5.86,2.15,9.787,2.15c11.31,0,23.618-4.341,36.583-12.902
			c13.003-8.589,25.578-20.864,37.374-36.483c7.488-10.069,16.906-24.849,27.989-43.925c4.854-8.288,9.173-15.621,12.851-21.814
			c-0.315-0.004-0.639-0.007-0.971-0.007c-3.025,0-6.822,0.19-11.283,0.565c-0.091,0.078-0.243,0.138-0.363,0.138
			c-0.726,0-0.982-0.479-0.982-0.89c0-1.119,1.511-1.795,4.898-2.192c0.877-0.088,2.286-0.133,4.196-0.133h5.924
			c10.945-18.275,21.397-34.422,31.071-48c7.317-10.247,14.525-18.242,21.423-23.761c6.316-5.074,12.309-7.698,17.811-7.799h0.646
			c2.625,0,4.746,0.471,6.304,1.399c0.882,0.468,1.358,1.284,1.358,2.349v0.59c0,0.037-0.004,0.073-0.012,0.108
			c-0.733,3.302-1.212,7.247-1.422,11.724c0.001,0.649-0.435,1.067-1.135,1.067c-0.594,0-0.978-0.37-0.978-0.943v-0.147
			c0-0.066,0-0.189,0.244-1.774c0.155-1.005,0.233-1.849,0.233-2.507c0-3.244-2.807-4.867-8.58-4.961h-1.106
			c-4.124,0-8.048,1.221-11.66,3.629c-5.968,4.005-12.135,10.507-18.33,19.323c-4.216,6.098-11.757,19.321-22.409,39.301
			c-0.299,0.558-2.144,3.869-5.797,10.402h13.632c3.229,0.082,5.741,0.123,7.48,0.123c0.518,0,0.906,0.237,1.094,0.669
			c0.027,0.063,0.042,0.131,0.042,0.2c0,1.028-1.536,1.238-3.842,1.238c-2.216,0-5.721,0.042-10.416,0.125
			c-4.547,0.08-7.771,0.122-9.32,0.122h-0.028c-5.31,9.308-10.297,17.768-14.825,25.15c-9.199,15.103-19.228,29.128-29.806,41.686
			c-14.184,16.884-27.983,29.705-41.015,38.107C363.057,268.247,350.703,272.52,339.411,272.52z"/>
		<path style="fill:#FFFFFF;" d="M478.675,185.431c-5.296,0-7.98-2.254-7.98-6.699c0-1.218,0.111-2.346,0.33-3.354
			c0.968-4.289,3.169-8.627,6.542-12.898c3.372-4.267,7.146-7.539,11.218-9.725c2.508-1.313,4.888-1.979,7.08-1.979
			c3.5,0,5.274,1.062,5.274,3.157c0,2.511-3.017,4.979-9.222,7.547c-3.033,1.261-6.522,2.298-10.371,3.083
			c-2.313,4.158-3.485,8.08-3.485,11.659c0,3.736,1.763,5.552,5.39,5.552c1.229,0,2.634-0.194,4.177-0.576
			c8.026-1.933,15.593-7.189,22.493-15.625c0.366-0.514,0.848-0.626,1.183-0.626c0.594,0,0.978,0.37,0.978,0.943
			c0,0.34-0.161,0.662-0.478,0.957c-4.014,4.704-8.927,8.86-14.563,12.312C490.508,183.32,484.261,185.431,478.675,185.431z
			 M492.84,153.4c-1.146,0-2.374,0.556-3.653,1.651c-2.246,1.91-4.35,4.359-6.266,7.292c7.52-1.709,11.329-4.238,11.329-7.524
			C494.25,153.812,493.842,153.4,492.84,153.4z"/>
		<path style="fill:#FFFFFF;" d="M513.052,185.136c-5.929,0-8.936-2.552-8.936-7.585c0-1.734,0.496-3.739,1.476-5.958
			c4.384-10.018,11.599-17.059,21.442-20.929c1.349-0.521,2.397-0.773,3.207-0.773c2.638,0,4.663,1.437,6.021,4.269
			c0.257,0.6,0.367,0.979,0.367,1.25c0,0.658-0.336,1.241-0.999,1.73c-0.063,0.064-0.676,0.609-1.796,1.597
			c-1.592,1.407-2.133,1.601-2.479,1.601c-0.473,0-0.978-0.287-0.978-1.09v-0.295c0-0.035,0.004-0.07,0.011-0.104
			c0.099-0.462,0.148-0.825,0.148-1.077c0-1.433-0.477-3.338-4.594-3.338c-3.71,0-7.31,3.189-10.7,9.479
			c-1.874,3.474-3.033,6.99-3.446,10.45l0.004,1.564c0,3.835,1.763,5.7,5.389,5.7c4.004,0,9.147-2.447,15.289-7.273
			c4.52-3.511,8.726-7.51,12.504-11.89c0.277-0.391,0.693-0.616,1.175-0.616c0.722,0,0.978,0.429,0.978,0.795
			c0,0.329-0.182,0.699-0.59,1.201c-8.834,9.971-17.147,16.473-24.722,19.342C518.381,184.48,515.43,185.136,513.052,185.136z"/>
		<path style="fill:#FFFFFF;" d="M546.793,184.545c-5.401,0-8.14-2.453-8.14-7.29c0-3.775,3.095-10.842,9.456-21.586l-6.542,0.387
			c-1.708,0-1.959-0.775-1.959-1.237c0-0.781,0.433-1.423,1.286-1.91c0.765-0.436,1.785-0.656,3.033-0.656h6.245
			c3.554-5.804,7.581-11.841,11.971-17.948c1.209-1.733,2.614-2.981,4.175-3.704c3.811-1.818,6.432-2.703,8.009-2.703
			c0.473,0,0.978,0.287,0.978,1.09c0,0.519-0.304,0.908-0.832,1.069c-2.334,0.659-4.014,1.643-5.001,2.926
			c-4.976,6.404-9.416,12.882-13.208,19.27h17.427c0.085,0,0.169,0.022,0.243,0.063c0.728,0.406,1.053,0.65,1.053,1.027
			c0,0.868-0.484,1.386-1.296,1.386c-8.257,0.191-14.688,0.478-19.112,0.852c-5.573,9.785-8.399,16.748-8.399,20.697
			c0,3.146,1.51,4.611,4.752,4.611c2.978,0,7.182-1.469,12.494-4.367c0.311-0.144,0.595-0.208,0.876-0.208
			c0.593,0,0.977,0.37,0.977,0.943c0,0.382-0.24,0.724-0.714,1.016C557.506,182.437,551.529,184.545,546.793,184.545z"/>
		<path style="fill:#FFFFFF;" d="M502.229,276.49c-0.911,0-1.455-0.518-1.455-1.386c0-0.31,0.136-0.647,0.414-1.031
			c0.466-0.696,0.76-1.855,0.86-3.429c1.161-14.408,1.75-30.138,1.75-46.759c0-0.714-0.106-1.566-0.614-1.566
			c-0.398,0-0.819,0.204-1.251,0.606c-5.108,4.356-13.727,11.973-25.632,22.653c-11.921,10.693-21.603,19.995-28.777,27.646
			c-0.813,0.862-1.757,1.41-2.81,1.628c-2.558,0.396-3.001,0.527-3.077,0.558c-2.832,0.97-3.652,1.081-4.027,1.081
			c-0.7,0-1.136-0.418-1.137-1.091c0-0.203,0.12-0.377,0.294-0.456c0.366-0.608,1.607-3.154,5.637-12.466
			c2.017-4.642,5.279-13.095,9.697-25.125c4.946-13.502,7.507-21.417,7.61-23.525c0.039-0.553-0.065-0.96-0.309-1.222
			c-0.292-0.313-0.823-0.473-1.579-0.473c-1.016,0-2.509,0.195-4.438,0.581c-2.013,0.404-3.269,0.6-3.838,0.6
			c-1.202,0-1.296-0.834-1.296-1.09c0-0.302,0.117-1.027,1.204-1.23c3.887-0.681,10.042-1.823,18.301-3.395
			c2.159-0.429,3.043-0.634,3.403-0.73c0.083-0.101,0.207-0.165,0.354-0.165l0,0c1.2,0.001,1.294,0.835,1.294,1.091
			c0,0.57-0.247,1.023-0.716,1.311c-0.462,0.335-1.798,2.199-5.209,10.684c-5.484,13.692-10.72,28.604-15.562,44.318v0.145
			c0.106-0.023,0.194-0.07,0.273-0.144c14.504-13.057,35.068-31.235,61.129-54.034c0.401-0.373,0.891-0.566,1.442-0.566
			c1.601,0,1.773,0.969,1.773,1.386c0,0.428-0.194,1.011-1.122,1.354c-0.676,0.234-1.088,0.925-1.271,2.116
			c-1.159,8.199-1.854,17.714-2.063,28.274v7.223c0,7.281,0.052,12.248,0.159,15.186c0,0.282,0.039,0.435,0.069,0.504
			c0.065-0.064,0.167-0.174,0.315-0.357c13.111-14.515,22.755-24.949,28.679-31.032c10.996-11.375,21.397-21.17,30.915-29.114
			c5.582-4.68,10.295-7.054,14.008-7.054c0.996,0,2.17,0.206,3.49,0.612c1.24,0.361,2.899,0.99,2.899,2.249
			c0,0.456-0.299,0.943-1.137,0.943c-0.247,0-0.579-0.048-1.013-0.147h-1.057c-4.321,0-10.644,3.242-18.791,9.636
			c-9.699,7.625-19.535,16.549-29.235,26.524c-12.864,13.201-22.537,24.648-28.749,34.025c-0.714,0.993-2.04,1.824-4.067,2.556
			c-3.265,1.089-4.266,1.503-4.533,1.659C502.916,276.352,502.534,276.49,502.229,276.49z M492.88,222.724
			c-0.276,0-0.5-0.224-0.5-0.5s0.224-0.5,0.5-0.5s0.5,0.224,0.5,0.5S493.156,222.724,492.88,222.724z"/>
		<path style="fill:#FFFFFF;" d="M560.64,274.719c-5.296,0-7.98-2.254-7.98-6.699c0-1.218,0.111-2.346,0.33-3.354
			c0.968-4.289,3.169-8.627,6.542-12.898c3.372-4.267,7.146-7.539,11.218-9.725c2.508-1.313,4.888-1.979,7.08-1.979
			c3.5,0,5.274,1.062,5.274,3.157c0,2.511-3.017,4.979-9.222,7.547c-3.033,1.261-6.522,2.298-10.371,3.083
			c-2.313,4.158-3.485,8.08-3.485,11.659c0,3.736,1.763,5.552,5.39,5.552c1.229,0,2.634-0.194,4.177-0.576
			c8.026-1.933,15.593-7.189,22.493-15.625c0.366-0.514,0.848-0.626,1.183-0.626c0.594,0,0.978,0.37,0.978,0.943
			c0,0.34-0.161,0.662-0.478,0.957c-4.014,4.704-8.927,8.86-14.563,12.312C572.473,272.608,566.226,274.719,560.64,274.719z
			 M574.805,242.688c-1.146,0-2.374,0.556-3.653,1.651c-2.246,1.91-4.35,4.359-6.266,7.292c7.52-1.709,11.329-4.238,11.329-7.524
			C576.215,243.099,575.807,242.688,574.805,242.688z"/>
		<path style="fill:#FFFFFF;" d="M608.386,279.737c-2.914,0-6.389-1.265-6.389-7.29c0-2.219,0.547-4.787,1.624-7.631
			c0.808-2.136,1.933-4.766,3.356-7.844c-2.625,2.808-6.195,6.382-10.659,10.67c-2.973,2.451-5.596,3.682-7.827,3.682
			c-2.618,0-4.002-1.347-4.002-3.895c0-1.96,0.885-4.288,2.63-6.919c7.634-11.601,17.522-18.514,29.392-20.548
			c9.17-15.324,18.678-28.688,28.264-39.727c9.336-10.924,18.071-18.22,25.96-21.681c3.334-1.496,6.348-2.256,8.955-2.256
			c1.108,0,4.479,0,4.479,1.976c0,0.289-0.122,0.783-1.029,2.255c-0.771,1.251-1.007,1.723-1.068,1.897
			c-0.35,1.126-1.056,1.367-1.586,1.367c-0.143,0-0.408,0-2.63-0.766c-1.375-0.471-2.632-0.71-3.736-0.71
			c-3.604,0-6.783,0.82-9.45,2.437c-4.806,2.906-10.327,8.524-16.41,16.698c-17.51,23.38-30.716,45.346-39.254,65.289
			c-1.135,2.676-1.711,4.994-1.711,6.888c0,2.86,1.531,3.19,2.684,3.19c1.702,0,3.922-0.772,6.597-2.296
			c6.9-3.877,13.911-11.173,20.838-21.687c0.322-0.449,0.673-0.667,1.055-0.667c0.594,0,0.978,0.37,0.978,0.942
			c0,0.276-0.073,0.554-0.218,0.826c-7.034,10.582-14.209,18.131-21.35,22.481C614.313,278.62,611.118,279.737,608.386,279.737z
			 M614.843,242.889c-4.771,0.402-8.954,2.608-12.448,6.567c-6.571,7.353-9.902,13.001-9.902,16.792
			c0,0.533,0.157,0.533,0.296,0.533c0.313,0,0.694-0.166,1.135-0.492c4.4-3.4,9.676-8.739,15.672-15.861
			C611.835,247.658,613.599,245.125,614.843,242.889z"/>
		<path style="fill:#FFFFFF;" d="M652.472,279.737c-2.914,0-6.389-1.265-6.389-7.29c0-2.219,0.547-4.787,1.624-7.631
			c0.808-2.136,1.933-4.766,3.356-7.844c-2.625,2.808-6.195,6.382-10.659,10.67c-2.973,2.451-5.596,3.682-7.827,3.682
			c-2.618,0-4.002-1.347-4.002-3.895c0-1.96,0.885-4.288,2.63-6.919c7.634-11.601,17.522-18.514,29.392-20.548
			c9.17-15.324,18.678-28.688,28.264-39.727c9.336-10.924,18.071-18.22,25.96-21.681c3.334-1.496,6.348-2.256,8.955-2.256
			c1.108,0,4.479,0,4.479,1.976c0,0.289-0.122,0.783-1.029,2.255c-0.771,1.251-1.007,1.723-1.068,1.897
			c-0.35,1.126-1.056,1.367-1.586,1.367c-0.143,0-0.408,0-2.63-0.766c-1.375-0.471-2.632-0.71-3.736-0.71
			c-3.604,0-6.783,0.82-9.45,2.437c-4.806,2.906-10.327,8.524-16.41,16.698c-17.51,23.38-30.716,45.346-39.254,65.289
			c-1.135,2.676-1.711,4.994-1.711,6.888c0,2.86,1.531,3.19,2.684,3.19c1.702,0,3.922-0.772,6.597-2.296
			c6.9-3.877,13.911-11.173,20.838-21.687c0.322-0.449,0.673-0.667,1.055-0.667c0.594,0,0.978,0.37,0.978,0.942
			c0,0.276-0.073,0.554-0.218,0.826c-7.034,10.582-14.209,18.131-21.35,22.481C658.398,278.62,655.204,279.737,652.472,279.737z
			 M658.929,242.889c-4.771,0.402-8.954,2.608-12.448,6.567c-6.571,7.353-9.902,13.001-9.902,16.792
			c0,0.533,0.157,0.533,0.296,0.533c0.313,0,0.694-0.166,1.135-0.492c4.4-3.4,9.676-8.739,15.672-15.861
			C655.921,247.658,657.685,245.125,658.929,242.889z"/>
		<path style="fill:#FFFFFF;" d="M681.278,273.686c-4.979,0-7.503-1.857-7.503-5.519c0-1.648,0.606-3.709,1.803-6.126
			c3.073-6.389,6.892-12.625,11.349-18.53c1.469-1.991,3.211-3.003,5.175-3.003c1.011,0,1.614,0.518,1.614,1.386
			c0,0.49-0.188,1.029-0.558,1.6c-5.681,8.195-9.514,15.547-11.4,21.865c-0.303,1.031-0.457,1.828-0.457,2.366
			c0,1.975,1.055,2.895,3.32,2.895c2.033,0,4.365-0.676,6.932-2.01c7.435-3.788,13.857-9.105,19.095-15.806
			c0.298-0.416,0.648-0.634,1.03-0.634c0.378,0,0.818,0.247,0.818,0.942c0,0.433-0.165,0.815-0.479,1.105
			c-5.171,6.17-11.21,11.372-17.906,15.413C689.702,272.32,685.384,273.686,681.278,273.686z M699.146,226.156
			c-1.581,0-2.452-0.807-2.452-2.271c0-1.403,0.592-2.758,1.759-4.028c1.177-1.283,2.56-1.933,4.108-1.933
			c1.686,0,2.613,0.859,2.613,2.419c0,1.314-0.652,2.625-1.938,3.898C701.951,225.512,700.575,226.156,699.146,226.156z"/>
		<path style="fill:#FFFFFF;" d="M721.546,276.195c-4.492,0-5.435-2.611-5.435-4.801c0-2.362,1.151-5.348,3.422-8.875
			c3.962-6.219,6.72-11.35,8.197-15.25v-0.291c-0.107,0.011-0.146,0.029-0.146,0.029c-5.487,3.335-10.366,7.267-14.55,11.722
			c-2.129,3.546-5.553,8.754-10.176,15.479c-0.563,0.657-1.052,0.955-1.526,0.955c-0.431,0-0.818-0.356-1.381-1.271
			c-0.693-1.178-1.028-2.129-1.028-2.918c0-0.887,0.296-1.776,0.881-2.642c1.894-2.537,4.674-6.503,8.276-11.81
			c1.873-3.479,4.767-8.696,8.573-15.463c0.425-0.659,1.011-0.993,1.709-0.993c0.543,0,1.163,0.275,1.897,0.843
			c0.773,0.599,1.149,1.163,1.149,1.724c0,0.398-0.183,0.874-0.558,1.453c-1.156,1.897-2.671,4.74-4.508,8.461
			c5.904-4.871,12.005-9.14,18.161-12.708c0.387-0.238,0.797-0.362,1.206-0.362c2.097,0,2.41,1.331,2.41,2.124
			c0,0.611-0.294,1.29-0.899,2.077c-6.091,8.376-10.462,15.936-12.981,22.459c-0.4,1.021-0.603,1.902-0.603,2.624
			c0,2.177,1.055,3.19,3.319,3.19c1.299,0,2.724-0.38,4.233-1.129c8.378-4.079,15.652-10.285,21.625-18.446
			c0.073-0.149,0.361-0.5,1.04-0.5c0.594,0,0.978,0.371,0.978,0.945c0,0.308-0.135,0.646-0.411,1.033
			c-6.288,8.155-13.518,14.448-21.499,18.719C728.518,274.975,724.689,276.195,721.546,276.195z"/>
		<path style="fill:#FFFFFF;" d="M685.099,350.885c-3.506,0-7.283-0.351-11.228-1.041c-5.367-0.998-10.126-3.092-14.148-6.225
			c-4.042-3.149-6.697-6.836-7.892-10.956c-0.541-1.911-0.815-3.745-0.815-5.454c0-2.116,0.387-4.165,1.149-6.089
			c0.379-0.872,0.894-1.052,1.261-1.052c0.378,0,0.818,0.246,0.818,0.941v0.443c0,0.058-0.01,0.115-0.029,0.169
			c-0.614,1.709-0.926,3.489-0.926,5.292c0,1.708,0.313,3.491,0.929,5.302c1.232,3.522,3.718,6.696,7.385,9.428
			c3.68,2.74,7.805,4.421,12.26,4.997c2.101,0.292,4.326,0.439,6.62,0.439c18.523,0,36.165-11.501,52.436-34.184
			c4.206-5.851,8.642-12.839,13.183-20.771c2.765-4.834,6.94-12.233,12.411-21.989c1.227-2.205,2.956-5.261,5.249-9.273
			c-2.373,2.666-5.404,5.963-9.063,9.86c-2.755,2.657-5.281,3.995-7.526,3.995c-1.753,0-3.843-0.727-3.843-4.19
			c0-1.238,0.332-2.738,0.985-4.458c1.813-4.855,4.863-9.75,9.064-14.543c4.204-4.8,8.665-8.342,13.259-10.528
			c2.598-1.208,5.232-1.82,7.837-1.82c0.525,0,1.015-0.008,1.467-0.026l5.316-8.176c0.842-1.428,1.666-2.13,2.506-2.13
			c1.503,0,2.266,1.459,2.266,4.338c0,0.971-0.292,1.951-0.867,2.913c-4.856,8.519-12.09,20.444-21.491,35.435
			c-6.465,10.024-15.622,24.326-27.219,42.514c-7.635,11.898-14.79,20.677-21.27,26.094
			C706.427,347.271,696.308,350.885,685.099,350.885z M773.431,242.245c-3.372,0-5.895,0.612-7.497,1.818
			c-6.982,5.317-11.956,13.371-14.778,23.937c-0.287,1.059-0.302,1.308-0.302,1.347c0,0.681,0.192,0.681,0.296,0.681
			c0.225,0,0.92-0.173,2.511-1.771c6.999-6.967,13.894-15.693,20.502-25.948C773.823,242.276,773.503,242.247,773.431,242.245z"/>
		<path style="fill:#FFFFFF;" d="M787.756,277.376c-2.305,0-4.743-0.717-7.249-2.131c-2.911-1.557-4.393-3.443-4.393-5.602
			c0-0.811,0.311-1.569,0.924-2.253c0.55-0.613,1.456-1.406,2.772-2.423c0.271-0.255,0.707-0.399,1.26-0.399
			c0.245,0,0.659,0.167,0.659,0.795c0,0.378-0.127,0.806-0.379,1.271c-0.17,0.315-0.257,0.632-0.257,0.943
			c0,0.799,0.462,2.06,1.372,3.748c1.296,2.406,3.494,3.575,6.722,3.575c3.571,0,6.3-1.427,8.344-4.362
			c1.749-2.48,2.897-5.634,3.417-9.377c0.103-0.771,0.369-4.881,0.792-12.211c0.222-3.002,2.111-5.808,5.617-8.347
			c3.946-2.845,6.697-4.228,8.41-4.228c2.513,0,2.888,1.331,2.888,2.124c0,1.94-1.025,3.009-2.888,3.009
			c-0.376,0-0.916-0.103-1.65-0.315c-0.645-0.183-1.161-0.275-1.533-0.275c-1.98,0-3.175,1.031-3.649,3.152
			c-0.207,0.951-0.524,5.344-0.944,13.055c-0.324,6.609-2.528,11.599-6.553,14.828C797.017,275.55,792.412,277.376,787.756,277.376z
			"/>
	</g>
	<g>
		<g>
			<path style="fill:#FFFFFF;" d="M319.362,185.431c-5.507,0-8.299-1.36-8.299-4.042c0-0.775,0.277-1.716,0.847-2.877
				c1.59-3.343,5.938-10.514,12.92-21.307c6.118-9.394,11.735-18.622,16.696-27.429c3.104-5.397,3.755-7.42,3.755-8.168
				c0.002-0.041-0.064-0.09-0.296-0.09c-1.878,0-5.18,0.247-9.815,0.735c-4.236,0.394-7.625,0.593-10.079,0.593
				c-2.913,0-3.524-1.155-3.524-2.124c0-0.313,0.106-0.908,1.021-2.467c0.105-0.195,0.451-0.837,1.065-0.837
				c0.318,0,0.744,0.167,0.96,0.959c0.031,0.094,0.595,1.107,8.885,1.107c4.723,0,9.681-0.149,14.736-0.442
				c12.093-1.031,16.073-1.416,17.074-1.546c0.072-0.05,0.16-0.079,0.259-0.079c5.448,0,9.85,0.815,13.083,2.423
				c5.029,2.449,7.581,6.289,7.581,11.412c0,4.958-2.345,9.765-6.969,14.288c-4.059,3.89-8.791,6.745-14.067,8.489
				c-5.254,1.737-10.349,2.618-15.143,2.618c-2.702,0-5.064-0.44-7.021-1.309c-0.474-0.152-0.772-0.556-0.772-1.089
				c0-0.191,0.082-0.816,1.137-0.816c0.234,0,0.771,0.042,2.864,0.375c1.499,0.241,2.73,0.363,3.662,0.363
				c4.468,0,8.414-0.779,11.727-2.315c5.918-2.792,10.556-7.142,13.78-12.927c1.542-2.765,2.324-5.861,2.324-9.204
				c0-6.715-4.314-9.98-13.188-9.98c-2.912,0-5.277,0.243-7.031,0.721c-1.151,0.267-2.117,1.036-2.889,2.289
				c-13.163,20.367-23.472,37.204-30.647,50.052c-1.161,1.981-1.747,3.679-1.747,5.054c0,3.03,2.7,4.502,8.254,4.502h2.388
				c1.169,0,1.295,0.659,1.295,0.943c0,0.32-0.156,0.886-1.204,1.082C328.39,185.082,323.813,185.431,319.362,185.431z"/>
			<path style="fill:#FFFFFF;" d="M381.91,185.431c-5.295,0-7.98-2.254-7.98-6.699c0-1.218,0.111-2.346,0.33-3.354
				c0.968-4.289,3.169-8.627,6.542-12.898c3.373-4.268,7.147-7.539,11.218-9.725c2.507-1.313,4.888-1.979,7.08-1.979
				c3.5,0,5.275,1.062,5.275,3.157c0,2.511-3.017,4.979-9.222,7.547c-3.035,1.262-6.523,2.298-10.372,3.083
				c-2.313,4.158-3.485,8.08-3.485,11.659c0,3.736,1.763,5.552,5.389,5.552c1.229,0,2.634-0.194,4.177-0.576
				c8.026-1.933,15.592-7.189,22.493-15.625c0.366-0.513,0.847-0.626,1.183-0.626c0.594,0,0.978,0.37,0.978,0.943
				c0,0.34-0.161,0.662-0.478,0.957c-4.012,4.703-8.925,8.859-14.563,12.312C393.743,183.32,387.496,185.431,381.91,185.431z
				 M396.076,153.4c-1.146,0-2.375,0.556-3.654,1.651c-2.246,1.91-4.35,4.359-6.266,7.292c7.519-1.709,11.329-4.238,11.329-7.524
				C397.485,153.812,397.077,153.4,396.076,153.4z"/>
			<path style="fill:#FFFFFF;" d="M405.464,184.545c-0.781,0-2.092-0.352-2.092-2.711c0-0.693,0.39-1.649,1.191-2.921
				c1.953-3.108,4.585-7.422,7.823-12.821l8.566-14.042c0.503-0.935,1.133-1.42,1.86-1.42c1.965,0,3.047,1.112,3.047,3.131
				c0,0.502-0.211,1.03-0.646,1.615c-0.789,1.325-1.791,2.971-2.989,4.914c2.165-1.988,4.773-3.903,7.809-5.75
				c4.256-2.631,7.519-3.911,9.969-3.911c3.306,0,4,1.396,4,2.566c0,0.534-0.333,1.132-1.019,1.827
				c-0.554,0.559-1.358,1.719-2.395,3.448c-0.41,0.573-0.89,0.686-1.224,0.686c-0.401,0-0.729-0.199-0.92-0.561
				c-0.953-1.499-2.532-2.244-4.811-2.244c-2.623,0-5.404,1.25-8.268,3.717c-2.399,2.126-4.865,4.906-7.324,8.257
				c-2.464,3.353-6.238,8.591-11.218,15.567C406.608,184.192,406.199,184.545,405.464,184.545z"/>
			<path style="fill:#FFFFFF;" d="M339.411,272.52c-4.525,0-8.253-0.869-11.082-2.582c-3.499-2.03-5.721-5.221-6.598-9.479
				c-0.007-0.033-0.01-0.067-0.01-0.101v-0.443c0-1.012,0.626-1.09,0.818-1.09c0.336,0,0.929,0.169,1.129,1.299
				c0.507,3.278,2.459,5.888,5.804,7.769c2.566,1.427,5.86,2.15,9.787,2.15c11.31,0,23.618-4.341,36.583-12.902
				c13.003-8.589,25.578-20.864,37.374-36.483c7.488-10.069,16.906-24.849,27.989-43.925c4.854-8.288,9.173-15.621,12.851-21.814
				c-0.315-0.004-0.639-0.007-0.971-0.007c-3.025,0-6.822,0.19-11.283,0.565c-0.091,0.078-0.243,0.138-0.363,0.138
				c-0.726,0-0.982-0.479-0.982-0.89c0-1.119,1.511-1.795,4.898-2.192c0.877-0.088,2.286-0.133,4.196-0.133h5.924
				c10.945-18.275,21.397-34.422,31.071-48c7.317-10.247,14.525-18.242,21.423-23.761c6.316-5.074,12.309-7.698,17.811-7.799h0.646
				c2.625,0,4.746,0.471,6.304,1.399c0.882,0.468,1.358,1.284,1.358,2.349v0.59c0,0.037-0.004,0.073-0.012,0.108
				c-0.733,3.302-1.212,7.247-1.422,11.724c0.001,0.649-0.435,1.067-1.135,1.067c-0.594,0-0.978-0.37-0.978-0.943v-0.147
				c0-0.066,0-0.189,0.244-1.774c0.155-1.005,0.233-1.849,0.233-2.507c0-3.244-2.807-4.867-8.58-4.961h-1.106
				c-4.124,0-8.048,1.221-11.66,3.629c-5.968,4.005-12.135,10.507-18.33,19.323c-4.216,6.098-11.757,19.321-22.409,39.301
				c-0.299,0.558-2.144,3.869-5.797,10.402h13.632c3.229,0.082,5.741,0.123,7.48,0.123c0.518,0,0.906,0.237,1.094,0.669
				c0.027,0.063,0.042,0.131,0.042,0.2c0,1.028-1.536,1.238-3.842,1.238c-2.216,0-5.721,0.042-10.416,0.125
				c-4.547,0.08-7.771,0.122-9.32,0.122h-0.028c-5.31,9.308-10.297,17.768-14.825,25.15c-9.199,15.103-19.228,29.128-29.806,41.686
				c-14.184,16.884-27.983,29.705-41.015,38.107C363.057,268.247,350.703,272.52,339.411,272.52z"/>
			<path style="fill:#FFFFFF;" d="M478.675,185.431c-5.296,0-7.98-2.254-7.98-6.699c0-1.218,0.111-2.346,0.33-3.354
				c0.968-4.289,3.169-8.627,6.542-12.898c3.372-4.267,7.146-7.539,11.218-9.725c2.508-1.313,4.888-1.979,7.08-1.979
				c3.5,0,5.274,1.062,5.274,3.157c0,2.511-3.017,4.979-9.222,7.547c-3.033,1.261-6.522,2.298-10.371,3.083
				c-2.313,4.158-3.485,8.08-3.485,11.659c0,3.736,1.763,5.552,5.39,5.552c1.229,0,2.634-0.194,4.177-0.576
				c8.026-1.933,15.593-7.189,22.493-15.625c0.366-0.514,0.848-0.626,1.183-0.626c0.594,0,0.978,0.37,0.978,0.943
				c0,0.34-0.161,0.662-0.478,0.957c-4.014,4.704-8.927,8.86-14.563,12.312C490.508,183.32,484.261,185.431,478.675,185.431z
				 M492.84,153.4c-1.146,0-2.374,0.556-3.653,1.651c-2.246,1.91-4.35,4.359-6.266,7.292c7.52-1.709,11.329-4.238,11.329-7.524
				C494.25,153.812,493.842,153.4,492.84,153.4z"/>
			<path style="fill:#FFFFFF;" d="M513.052,185.136c-5.929,0-8.936-2.552-8.936-7.585c0-1.734,0.496-3.739,1.476-5.958
				c4.384-10.018,11.599-17.059,21.442-20.929c1.349-0.521,2.397-0.773,3.207-0.773c2.638,0,4.663,1.437,6.021,4.269
				c0.257,0.6,0.367,0.979,0.367,1.25c0,0.658-0.336,1.241-0.999,1.73c-0.063,0.064-0.676,0.609-1.796,1.597
				c-1.592,1.407-2.133,1.601-2.479,1.601c-0.473,0-0.978-0.287-0.978-1.09v-0.295c0-0.035,0.004-0.07,0.011-0.104
				c0.099-0.462,0.148-0.825,0.148-1.077c0-1.433-0.477-3.338-4.594-3.338c-3.71,0-7.31,3.189-10.7,9.479
				c-1.874,3.474-3.033,6.99-3.446,10.45l0.004,1.564c0,3.835,1.763,5.7,5.389,5.7c4.004,0,9.147-2.447,15.289-7.273
				c4.52-3.511,8.726-7.51,12.504-11.89c0.277-0.391,0.693-0.616,1.175-0.616c0.722,0,0.978,0.429,0.978,0.795
				c0,0.329-0.182,0.699-0.59,1.201c-8.834,9.971-17.147,16.473-24.722,19.342C518.381,184.48,515.43,185.136,513.052,185.136z"/>
			<path style="fill:#FFFFFF;" d="M546.793,184.545c-5.401,0-8.14-2.453-8.14-7.29c0-3.775,3.095-10.842,9.456-21.586l-6.542,0.387
				c-1.708,0-1.959-0.775-1.959-1.237c0-0.781,0.433-1.423,1.286-1.91c0.765-0.436,1.785-0.656,3.033-0.656h6.245
				c3.554-5.804,7.581-11.841,11.971-17.948c1.209-1.733,2.614-2.981,4.175-3.704c3.811-1.818,6.432-2.703,8.009-2.703
				c0.473,0,0.978,0.287,0.978,1.09c0,0.519-0.304,0.908-0.832,1.069c-2.334,0.659-4.014,1.643-5.001,2.926
				c-4.976,6.404-9.416,12.882-13.208,19.27h17.427c0.085,0,0.169,0.022,0.243,0.063c0.728,0.406,1.053,0.65,1.053,1.027
				c0,0.868-0.484,1.386-1.296,1.386c-8.257,0.191-14.688,0.478-19.112,0.852c-5.573,9.785-8.399,16.748-8.399,20.697
				c0,3.146,1.51,4.611,4.752,4.611c2.978,0,7.182-1.469,12.494-4.367c0.311-0.144,0.595-0.208,0.876-0.208
				c0.593,0,0.977,0.37,0.977,0.943c0,0.382-0.24,0.724-0.714,1.016C557.506,182.437,551.529,184.545,546.793,184.545z"/>
			<path style="fill:#FFFFFF;" d="M502.229,276.49c-0.911,0-1.455-0.518-1.455-1.386c0-0.31,0.136-0.647,0.414-1.031
				c0.466-0.696,0.76-1.855,0.86-3.429c1.161-14.408,1.75-30.138,1.75-46.759c0-0.714-0.106-1.566-0.614-1.566
				c-0.398,0-0.819,0.204-1.251,0.606c-5.108,4.356-13.727,11.973-25.632,22.653c-11.921,10.693-21.603,19.995-28.777,27.646
				c-0.813,0.862-1.757,1.41-2.81,1.628c-2.558,0.396-3.001,0.527-3.077,0.558c-2.832,0.97-3.652,1.081-4.027,1.081
				c-0.7,0-1.136-0.418-1.137-1.091c0-0.203,0.12-0.377,0.294-0.456c0.366-0.608,1.607-3.154,5.637-12.466
				c2.017-4.642,5.279-13.095,9.697-25.125c4.946-13.502,7.507-21.417,7.61-23.525c0.039-0.553-0.065-0.96-0.309-1.222
				c-0.292-0.313-0.823-0.473-1.579-0.473c-1.016,0-2.509,0.195-4.438,0.581c-2.013,0.404-3.269,0.6-3.838,0.6
				c-1.202,0-1.296-0.834-1.296-1.09c0-0.302,0.117-1.027,1.204-1.23c3.887-0.681,10.042-1.823,18.301-3.395
				c2.159-0.429,3.043-0.634,3.403-0.73c0.083-0.101,0.207-0.165,0.354-0.165l0,0c1.2,0.001,1.294,0.835,1.294,1.091
				c0,0.57-0.247,1.023-0.716,1.311c-0.462,0.335-1.798,2.199-5.209,10.684c-5.484,13.692-10.72,28.604-15.562,44.318v0.145
				c0.106-0.023,0.194-0.07,0.273-0.144c14.504-13.057,35.068-31.235,61.129-54.034c0.401-0.373,0.891-0.566,1.442-0.566
				c1.601,0,1.773,0.969,1.773,1.386c0,0.428-0.194,1.011-1.122,1.354c-0.676,0.234-1.088,0.925-1.271,2.116
				c-1.159,8.199-1.854,17.714-2.063,28.274v7.223c0,7.281,0.052,12.248,0.159,15.186c0,0.282,0.039,0.435,0.069,0.504
				c0.065-0.064,0.167-0.174,0.315-0.357c13.111-14.515,22.755-24.949,28.679-31.032c10.996-11.375,21.397-21.17,30.915-29.114
				c5.582-4.68,10.295-7.054,14.008-7.054c0.996,0,2.17,0.206,3.49,0.612c1.24,0.361,2.899,0.99,2.899,2.249
				c0,0.456-0.299,0.943-1.137,0.943c-0.247,0-0.579-0.048-1.013-0.147h-1.057c-4.321,0-10.644,3.242-18.791,9.636
				c-9.699,7.625-19.535,16.549-29.235,26.524c-12.864,13.201-22.537,24.648-28.749,34.025c-0.714,0.993-2.04,1.824-4.067,2.556
				c-3.265,1.089-4.266,1.503-4.533,1.659C502.916,276.352,502.534,276.49,502.229,276.49z M492.88,222.724
				c-0.276,0-0.5-0.224-0.5-0.5s0.224-0.5,0.5-0.5s0.5,0.224,0.5,0.5S493.156,222.724,492.88,222.724z"/>
			<path style="fill:#FFFFFF;" d="M560.64,274.719c-5.296,0-7.98-2.254-7.98-6.699c0-1.218,0.111-2.346,0.33-3.354
				c0.968-4.289,3.169-8.627,6.542-12.898c3.372-4.267,7.146-7.539,11.218-9.725c2.508-1.313,4.888-1.979,7.08-1.979
				c3.5,0,5.274,1.062,5.274,3.157c0,2.511-3.017,4.979-9.222,7.547c-3.033,1.261-6.522,2.298-10.371,3.083
				c-2.313,4.158-3.485,8.08-3.485,11.659c0,3.736,1.763,5.552,5.39,5.552c1.229,0,2.634-0.194,4.177-0.576
				c8.026-1.933,15.593-7.189,22.493-15.625c0.366-0.514,0.848-0.626,1.183-0.626c0.594,0,0.978,0.37,0.978,0.943
				c0,0.34-0.161,0.662-0.478,0.957c-4.014,4.704-8.927,8.86-14.563,12.312C572.473,272.608,566.226,274.719,560.64,274.719z
				 M574.805,242.688c-1.146,0-2.374,0.556-3.653,1.651c-2.246,1.91-4.35,4.359-6.266,7.292c7.52-1.709,11.329-4.238,11.329-7.524
				C576.215,243.099,575.807,242.688,574.805,242.688z"/>
			<path style="fill:#FFFFFF;" d="M608.386,279.737c-2.914,0-6.389-1.265-6.389-7.29c0-2.219,0.547-4.787,1.624-7.631
				c0.808-2.136,1.933-4.766,3.356-7.844c-2.625,2.808-6.195,6.382-10.659,10.67c-2.973,2.451-5.596,3.682-7.827,3.682
				c-2.618,0-4.002-1.347-4.002-3.895c0-1.96,0.885-4.288,2.63-6.919c7.634-11.601,17.522-18.514,29.392-20.548
				c9.17-15.324,18.678-28.688,28.264-39.727c9.336-10.924,18.071-18.22,25.96-21.681c3.334-1.496,6.348-2.256,8.955-2.256
				c1.108,0,4.479,0,4.479,1.976c0,0.289-0.122,0.783-1.029,2.255c-0.771,1.251-1.007,1.723-1.068,1.897
				c-0.35,1.126-1.056,1.367-1.586,1.367c-0.143,0-0.408,0-2.63-0.766c-1.375-0.471-2.632-0.71-3.736-0.71
				c-3.604,0-6.783,0.82-9.45,2.437c-4.806,2.906-10.327,8.524-16.41,16.698c-17.51,23.38-30.716,45.346-39.254,65.289
				c-1.135,2.676-1.711,4.994-1.711,6.888c0,2.86,1.531,3.19,2.684,3.19c1.702,0,3.922-0.772,6.597-2.296
				c6.9-3.877,13.911-11.173,20.838-21.687c0.322-0.449,0.673-0.667,1.055-0.667c0.594,0,0.978,0.37,0.978,0.942
				c0,0.276-0.073,0.554-0.218,0.826c-7.034,10.582-14.209,18.131-21.35,22.481C614.313,278.62,611.118,279.737,608.386,279.737z
				 M614.843,242.889c-4.771,0.402-8.954,2.608-12.448,6.567c-6.571,7.353-9.902,13.001-9.902,16.792
				c0,0.533,0.157,0.533,0.296,0.533c0.313,0,0.694-0.166,1.135-0.492c4.4-3.4,9.676-8.739,15.672-15.861
				C611.835,247.658,613.599,245.125,614.843,242.889z"/>
			<path style="fill:#FFFFFF;" d="M652.472,279.737c-2.914,0-6.389-1.265-6.389-7.29c0-2.219,0.547-4.787,1.624-7.631
				c0.808-2.136,1.933-4.766,3.356-7.844c-2.625,2.808-6.195,6.382-10.659,10.67c-2.973,2.451-5.596,3.682-7.827,3.682
				c-2.618,0-4.002-1.347-4.002-3.895c0-1.96,0.885-4.288,2.63-6.919c7.634-11.601,17.522-18.514,29.392-20.548
				c9.17-15.324,18.678-28.688,28.264-39.727c9.336-10.924,18.071-18.22,25.96-21.681c3.334-1.496,6.348-2.256,8.955-2.256
				c1.108,0,4.479,0,4.479,1.976c0,0.289-0.122,0.783-1.029,2.255c-0.771,1.251-1.007,1.723-1.068,1.897
				c-0.35,1.126-1.056,1.367-1.586,1.367c-0.143,0-0.408,0-2.63-0.766c-1.375-0.471-2.632-0.71-3.736-0.71
				c-3.604,0-6.783,0.82-9.45,2.437c-4.806,2.906-10.327,8.524-16.41,16.698c-17.51,23.38-30.716,45.346-39.254,65.289
				c-1.135,2.676-1.711,4.994-1.711,6.888c0,2.86,1.531,3.19,2.684,3.19c1.702,0,3.922-0.772,6.597-2.296
				c6.9-3.877,13.911-11.173,20.838-21.687c0.322-0.449,0.673-0.667,1.055-0.667c0.594,0,0.978,0.37,0.978,0.942
				c0,0.276-0.073,0.554-0.218,0.826c-7.034,10.582-14.209,18.131-21.35,22.481C658.398,278.62,655.204,279.737,652.472,279.737z
				 M658.929,242.889c-4.771,0.402-8.954,2.608-12.448,6.567c-6.571,7.353-9.902,13.001-9.902,16.792
				c0,0.533,0.157,0.533,0.296,0.533c0.313,0,0.694-0.166,1.135-0.492c4.4-3.4,9.676-8.739,15.672-15.861
				C655.921,247.658,657.685,245.125,658.929,242.889z"/>
			<path style="fill:#FFFFFF;" d="M681.278,273.686c-4.979,0-7.503-1.857-7.503-5.519c0-1.648,0.606-3.709,1.803-6.126
				c3.073-6.389,6.892-12.625,11.349-18.53c1.469-1.991,3.211-3.003,5.175-3.003c1.011,0,1.614,0.518,1.614,1.386
				c0,0.49-0.188,1.029-0.558,1.6c-5.681,8.195-9.514,15.547-11.4,21.865c-0.303,1.031-0.457,1.828-0.457,2.366
				c0,1.975,1.055,2.895,3.32,2.895c2.033,0,4.365-0.676,6.932-2.01c7.435-3.788,13.857-9.105,19.095-15.806
				c0.298-0.416,0.648-0.634,1.03-0.634c0.378,0,0.818,0.247,0.818,0.942c0,0.433-0.165,0.815-0.479,1.105
				c-5.171,6.17-11.21,11.372-17.906,15.413C689.702,272.32,685.384,273.686,681.278,273.686z M699.146,226.156
				c-1.581,0-2.452-0.807-2.452-2.271c0-1.403,0.592-2.758,1.759-4.028c1.177-1.283,2.56-1.933,4.108-1.933
				c1.686,0,2.613,0.859,2.613,2.419c0,1.314-0.652,2.625-1.938,3.898C701.951,225.512,700.575,226.156,699.146,226.156z"/>
			<path style="fill:#FFFFFF;" d="M721.546,276.195c-4.492,0-5.435-2.611-5.435-4.801c0-2.362,1.151-5.348,3.422-8.875
				c3.962-6.219,6.72-11.35,8.197-15.25v-0.291c-0.107,0.011-0.146,0.029-0.146,0.029c-5.487,3.335-10.366,7.267-14.55,11.722
				c-2.129,3.546-5.553,8.754-10.176,15.479c-0.563,0.657-1.052,0.955-1.526,0.955c-0.431,0-0.818-0.356-1.381-1.271
				c-0.693-1.178-1.028-2.129-1.028-2.918c0-0.887,0.296-1.776,0.881-2.642c1.894-2.537,4.674-6.503,8.276-11.81
				c1.873-3.479,4.767-8.696,8.573-15.463c0.425-0.659,1.011-0.993,1.709-0.993c0.543,0,1.163,0.275,1.897,0.843
				c0.773,0.599,1.149,1.163,1.149,1.724c0,0.398-0.183,0.874-0.558,1.453c-1.156,1.897-2.671,4.74-4.508,8.461
				c5.904-4.871,12.005-9.14,18.161-12.708c0.387-0.238,0.797-0.362,1.206-0.362c2.097,0,2.41,1.331,2.41,2.124
				c0,0.611-0.294,1.29-0.899,2.077c-6.091,8.376-10.462,15.936-12.981,22.459c-0.4,1.021-0.603,1.902-0.603,2.624
				c0,2.177,1.055,3.19,3.319,3.19c1.299,0,2.724-0.38,4.233-1.129c8.378-4.079,15.652-10.285,21.625-18.446
				c0.073-0.149,0.361-0.5,1.04-0.5c0.594,0,0.978,0.371,0.978,0.945c0,0.308-0.135,0.646-0.411,1.033
				c-6.288,8.155-13.518,14.448-21.499,18.719C728.518,274.975,724.689,276.195,721.546,276.195z"/>
			<path style="fill:#FFFFFF;" d="M685.099,350.885c-3.506,0-7.283-0.351-11.228-1.041c-5.367-0.998-10.126-3.092-14.148-6.225
				c-4.042-3.149-6.697-6.836-7.892-10.956c-0.541-1.911-0.815-3.745-0.815-5.454c0-2.116,0.387-4.165,1.149-6.089
				c0.379-0.872,0.894-1.052,1.261-1.052c0.378,0,0.818,0.246,0.818,0.941v0.443c0,0.058-0.01,0.115-0.029,0.169
				c-0.614,1.709-0.926,3.489-0.926,5.292c0,1.708,0.313,3.491,0.929,5.302c1.232,3.522,3.718,6.696,7.385,9.428
				c3.68,2.74,7.805,4.421,12.26,4.997c2.101,0.292,4.326,0.439,6.62,0.439c18.523,0,36.165-11.501,52.436-34.184
				c4.206-5.851,8.642-12.839,13.183-20.771c2.765-4.834,6.94-12.233,12.411-21.989c1.227-2.205,2.956-5.261,5.249-9.273
				c-2.373,2.666-5.404,5.963-9.063,9.86c-2.755,2.657-5.281,3.995-7.526,3.995c-1.753,0-3.843-0.727-3.843-4.19
				c0-1.238,0.332-2.738,0.985-4.458c1.813-4.855,4.863-9.75,9.064-14.543c4.204-4.8,8.665-8.342,13.259-10.528
				c2.598-1.208,5.232-1.82,7.837-1.82c0.525,0,1.015-0.008,1.467-0.026l5.316-8.176c0.842-1.428,1.666-2.13,2.506-2.13
				c1.503,0,2.266,1.459,2.266,4.338c0,0.971-0.292,1.951-0.867,2.913c-4.856,8.519-12.09,20.444-21.491,35.435
				c-6.465,10.024-15.622,24.326-27.219,42.514c-7.635,11.898-14.79,20.677-21.27,26.094
				C706.427,347.271,696.308,350.885,685.099,350.885z M773.431,242.245c-3.372,0-5.895,0.612-7.497,1.818
				c-6.982,5.317-11.956,13.371-14.778,23.937c-0.287,1.059-0.302,1.308-0.302,1.347c0,0.681,0.192,0.681,0.296,0.681
				c0.225,0,0.92-0.173,2.511-1.771c6.999-6.967,13.894-15.693,20.502-25.948C773.823,242.276,773.503,242.247,773.431,242.245z"/>
			<path style="fill:#FFFFFF;" d="M787.756,277.376c-2.305,0-4.743-0.717-7.249-2.131c-2.911-1.557-4.393-3.443-4.393-5.602
				c0-0.811,0.311-1.569,0.924-2.253c0.55-0.613,1.456-1.406,2.772-2.423c0.271-0.255,0.707-0.399,1.26-0.399
				c0.245,0,0.659,0.167,0.659,0.795c0,0.378-0.127,0.806-0.379,1.271c-0.17,0.315-0.257,0.632-0.257,0.943
				c0,0.799,0.462,2.06,1.372,3.748c1.296,2.406,3.494,3.575,6.722,3.575c3.571,0,6.3-1.427,8.344-4.362
				c1.749-2.48,2.897-5.634,3.417-9.377c0.103-0.771,0.369-4.881,0.792-12.211c0.222-3.002,2.111-5.808,5.617-8.347
				c3.946-2.845,6.697-4.228,8.41-4.228c2.513,0,2.888,1.331,2.888,2.124c0,1.94-1.025,3.009-2.888,3.009
				c-0.376,0-0.916-0.103-1.65-0.315c-0.645-0.183-1.161-0.275-1.533-0.275c-1.98,0-3.175,1.031-3.649,3.152
				c-0.207,0.951-0.524,5.344-0.944,13.055c-0.324,6.609-2.528,11.599-6.553,14.828C797.017,275.55,792.412,277.376,787.756,277.376
				z"/>
		</g>
	</g>
</g>
<g>
	
		<image style="overflow:visible;opacity:0.66;" width="301" height="435" xlink:href="375482F.png"  transform="matrix(1 0 0 1 31.5 58.5)">
	</image>
	<g>
		<g>
			<path style="fill:#FFFFFF;" d="M172.914,408.42c-12.118,2.479-24.215,5.077-36.291,7.693c-4.86,1.063-9.699,2.147-14.537,3.249
				c-8.447,1.93-16.894,3.917-25.235,6.158c-4.923,1.319-9.889,2.68-14.728,4.253c-3.671,1.181-7.279,2.401-10.845,3.818
				c-1.804,0.727-3.543,1.495-5.305,2.282c-2.038,0.926-4.521,2.203-6.325,3.467c-2.037,1.415-3.947,2.793-5.306,4.841
				c-1.125,1.711-1.125,2.93-0.913,4.859c0.106,1.042,0.276,2.086,0.467,3.109c0.36,1.771,0.891,3.483,1.655,5.137
				c2.801,6.004,8.871,9.229,14.919,12.024c4.18,1.931,8.595,3.582,12.924,5.197c1.719,0.648,3.459,1.297,5.178,1.947
				c1.274,0.474,2.505,0.982,3.8,1.377c1.931,0.612,2.95,2.539,2.292,4.332c-0.658,1.771-2.758,2.715-4.669,2.105
				c-2.313-0.727-4.753-1.301-7.088-1.93c-4.011-1.082-8.086-2.186-12.034-3.463c-7.47-2.442-14.453-5.118-20.183-10.294
				c-0.891-0.809-1.654-1.654-2.44-2.539c-1.677-1.89-3.034-4.29-4.053-6.533c-1.338-2.933-2.229-6.279-2.695-9.429
				c0,0.021,0,0.041,0.02,0.06c-0.318-1.712-0.446-3.444-0.212-5.197c1.486-10.883,13.201-17.634,22.921-22.001
				c5.794-2.599,11.779-4.705,17.847-6.673c8.724-2.833,17.701-5.213,26.614-7.438c20.205-5.041,40.641-9.232,61.038-13.521
				c3.904-0.826,7.788,1.456,8.658,5.078C179.259,404.012,176.819,407.594,172.914,408.42z"/>
			<path style="fill:#FFFFFF;" d="M114.148,81.775c-9.338,1.2-18.315,2.676-27.418,5.018c-1.571,0.394-3.184,0.886-4.755,1.397
				c-1.251,0.413-2.483,0.847-3.713,1.319c-2.866,1.141-5.412,2.361-7.831,4.172c-0.721,0.551-1.975,1.771-2.25,2.618
				c-0.36,1.121-0.105,1.731-0.254,2.893c-0.084,0.65,0.106,1.574,0.403,2.185c0.424,0.846,0.85,1.495,1.464,2.224
				c1.04,1.2,2.292,2.224,3.565,3.149c1.761,1.26,3.587,2.302,5.519,3.327c2.758,1.436,5.857,2.696,8.807,3.758
				c12.118,4.369,24.938,6.829,37.798,8.522c6.261,0.827,12.627,1.398,18.952,1.732c5.645,0.314,11.375,0.492,17.063,0.414
				c-0.107,0-0.192,0-0.297,0c5.814-0.257,11.608-0.493,17.423-0.69c6.622-0.236,13.243-0.374,19.843-0.413
				c3.735-0.021,7.449,0.02,11.185,0.098c3.968,0.079,7.958,0.276,11.926,0.552c3.014,0.196,6.07,0.492,9.062,0.905
				c1.592,0.216,3.227,0.432,4.797,0.748c9.125,1.792,20.417,4.881,23.451,14.21c0.446,1.416,0.68,2.991,0.637,4.468
				c-0.084,3.089-0.424,5.609-1.315,8.581c-1.146,3.877-3.247,8.03-5.582,11.395c-3.82,5.51-8.022,10.234-13.074,14.82
				c-7.024,6.377-14.58,11.828-22.687,16.965c-2.695,1.692-5.496,3.347-8.298,4.901c-1.529,0.845-3.099,1.653-4.605,2.558
				c-1.72,0.985-3.99,0.472-5.051-1.121c-1.061-1.594-0.531-3.702,1.209-4.686c2.547-1.397,5.114-3.07,7.513-4.702
				c3.098-2.087,6.219-4.193,9.168-6.457c2.95-2.244,5.879-4.508,8.659-6.928c2.441-2.145,4.733-4.27,7.025-6.514
				c3.481-3.405,6.6-7.104,9.381-11.002c0.743-1.043,1.528-2.223,2.144-3.346c1.911-3.463,3.65-6.947,4.16-10.844
				c0.191-1.614,0.169-2.854,0.106-4.449c0,0.159,0.021,0.316,0.042,0.473c-0.148-0.729-0.213-0.925-0.509-1.574
				c-0.446-0.944-1.762-1.752-2.632-2.303c-1.93-1.219-5.263-2.164-7.533-2.637c-6.346-1.377-13.308-1.947-19.823-2.086
				c-3.99-0.079-7.959-0.176-11.948-0.137c-9.996,0.137-19.927,0.531-29.903,1.063c-6.537,0.334-13.009,0.866-19.546,0.845
				c-14.813-0.019-29.118-1.121-43.697-3.444c-8.468-1.337-17.126-3.286-25.256-5.844c-2.886-0.905-5.729-1.91-8.552-3.031
				c-11.906-4.743-26.635-13.266-25.362-27.121c-0.021,0.296-0.021,0.572-0.021,0.847c-0.085-1.24-0.022-2.342,0.148-3.562
				c1.401-10.215,13.477-16.316,22.921-19.327c1.569-0.512,3.141-0.984,4.732-1.458c2.779-0.805,5.645-1.495,8.468-2.085
				c3.798-0.807,7.598-1.535,11.439-2.146c3.628-0.59,7.258-1.042,10.908-1.574c3.947-0.512,7.619,2.066,8.17,5.726
				C120.876,77.858,118.117,81.262,114.148,81.775z"/>
			<path style="fill:#FFFFFF;" d="M98.211,236.664c-0.891,0.236-1.804,0.412-2.717,0.552c-0.042,0-0.085-0.021-0.106-0.06
				c0-0.04,0.021-0.099,0.063-0.099c0.891-0.236,1.804-0.433,2.717-0.571c0.042,0,0.106,0.02,0.106,0.079
				C98.274,236.605,98.253,236.644,98.211,236.664z"/>
			<path style="fill:#FFFFFF;" d="M97.107,243.69c-8.785,1.869-17.466,4.073-25.68,7.558c-3.395,1.436-7.746,3.601-10.229,6.219
				c-0.212,0.196-0.551,0.59-0.679,0.846c-0.065,0.118-0.17,0.374-0.212,0.413l0.02-0.098c0.064,0.807-0.106,1.751-0.106,2.598
				c-0.021,1.812,0.468,3.759,1.274,5.412c2.313,4.645,7.278,8.03,11.905,10.529c4.669,2.521,9.933,4.566,15.026,6.22
				c6.495,2.104,13.138,3.857,19.843,5.333c3.799,0.847,7.619,1.634,11.461,2.362c11.587,2.203,23.323,3.718,35.06,4.959
				c14.708,1.555,29.457,2.717,44.184,3.917c7.004,0.57,14.008,1.181,21.011,1.81c5.816,0.532,11.63,1.083,17.446,1.713
				c5.624,0.63,11.227,1.26,16.85,1.968c5.391,0.689,10.759,1.457,16.129,2.264c4.309,0.669,8.659,1.339,12.925,2.185
				c2.759,0.552,5.475,1.122,8.192,1.791c1.952,0.492,3.948,0.984,5.857,1.574c8.722,2.735,18.655,6.396,23.451,14.21
				c0.893,1.456,1.337,2.952,1.719,4.586c0.297,1.357,0.254,2.854,0.128,4.23c-0.17,1.753-0.807,3.621-1.507,5.216
				c-1.209,2.678-3.098,5.235-5.072,7.458c-3.63,4.075-7.767,7.282-12.119,10.628c-1.569,1.221-3.883,1.025-5.178-0.432
				c-1.316-1.438-1.104-3.583,0.467-4.804c2.568-1.968,4.988-4.133,7.236-6.454c1.507-1.534,3.141-3.326,4.33-5.077
				c1.083-1.634,1.846-2.933,2.547-4.743c0.233-0.591,0.297-1.142,0.445-1.731c0.106-0.395,0.148-1.397,0.085-1.812
				c-0.128-0.688-0.19-1.161-0.467-1.83c-1.4-3.286-5.666-5.57-8.935-7.006c-1.146-0.513-2.313-0.906-3.48-1.358
				c-1.083-0.434-2.314-0.787-3.438-1.122c-2.145-0.61-4.288-1.181-6.452-1.653c-1.761-0.395-3.544-0.769-5.306-1.083
				c-3.055-0.53-6.091-0.983-9.167-1.456c0.021,0.021,0.041,0.021,0.064,0.021c-5.306-0.689-10.612-1.358-15.94-1.948
				c-12.095-1.339-24.277-2.362-36.417-3.229c-15.216-1.103-30.455-2.008-45.671-3.07c-12.904-0.886-25.7-2.007-38.541-3.425
				c-7.788-0.865-15.514-2.066-23.217-3.425c-4.096-0.727-8.214-1.554-12.266-2.46c-3.756-0.806-7.471-1.712-11.184-2.677
				c-2.653-0.688-5.285-1.456-7.896-2.262c-2.759-0.847-5.454-1.792-8.149-2.795c-11.207-4.133-24.406-11.179-29.308-21.983
				c-0.893-1.949-1.444-3.661-1.911-5.728c-0.552-2.402-0.573-5.157-0.359-7.617c-0.022,0.236-0.022,0.473-0.022,0.708
				c-0.085-1.082,0.085-2.381,0.361-3.424c1.421-5.746,6.6-9.919,11.714-12.95c1.316-0.787,2.695-1.516,4.097-2.185
				c1.889-0.925,3.862-1.791,5.836-2.56c3.013-1.18,6.049-2.242,9.147-3.187c2.738-0.826,5.497-1.576,8.276-2.284
				c2.843-0.729,5.709-1.318,8.574-1.967c3.884-0.828,7.789,1.436,8.68,5.038C103.432,239.242,101.013,242.844,97.107,243.69z"/>
		</g>
	</g>
</g>
<text transform="matrix(1.0783 0 0 1 14.4258 662.9307)" style="fill:#FFFFFF; font-family:'Gabriola'; font-size:55.825;">All your wedding essentials in one place...</text>
</svg>
