<svg xmlns="http://www.w3.org/2000/svg" xmlns:xlink="http://www.w3.org/1999/xlink" width="841" height="595" viewBox="0 0 841 595"><path fill-rule="evenodd" clip-rule="evenodd" fill="#ff007a" d="M-94.385-50.892h1207.439v793.46H-94.385z"/><path d="M105.766 503.46l-24.512 9.366c11.523-54.299 21.796-213.99 19.249-228.731-2.271-3.76-2.992-8.108-3.82-13.206-4.817-6.83-3.522-25.172-3.438-40.681l1.804-2.696c-.616-2.401-1.189-5.079-1.422-10.844-2.781-4.664-5.625-8.622-6.728-11.808-.68-3.426-2.123-6.436-4.457-8.956l-3.566-78.861c3.184-3.543 2.483-12.497-.998-15.095l-.508-11.434c7.641-5.806 15.79-11.475 24.788-16.984v-3.091l13.434-8.856c1.995.059 4.075-.334 6.325-1.595.849-.647 1.677-1.594 2.525-4.093.51-5.157.276-9.958-.191-14.644l.998-1.002c.085-7.991 2.866-15.412 9.381-22.102 6.41-4.802 12.861-3.169 19.759 1.692 6.091-2.086 17.954 8.443 21.837 14.131l1.273.59c-.954 1.889-.339 3.425 0 5.02-1.23.039-1.93.294-1.464 1.002l.277.669-.53 1.083h-1.083c.255 5.708-2.101 9.938-5.05 13.796.126 3.603.211 7.224.614 10.293-1.336.669-3.438.965-5.772 1.181l-.084 3.247-1.443.177.084.669-.892.334c-2.333.217-3.309 1.692-3.247 4.113-.275 1.91-6.282 2.047-7.322.414-2.058-3.188-8.212-.925-8.106 1.671 0 3.936-.255 6.181-1.804 5.768-1.57 2.047-1.719 4.074-1.549 6.101 2.292 1.831 4.414 3.758 5.433 6.278-.021 2.913.488 4.329 1.421 4.605 2.398 1.634 4.84 3.207 5.879 6.357 1.337 2.283 2.293 5.63 3.163 9.27.784.178 1.549.434 2.058 1.772.468 2.321.318 4.624.383 6.947 4.308 3.424 4.032 10.824 4.139 17.89 1.23 2.046 1.442 4.075 1.804 6.121 1.633 9.427 1.761 21.176 2.632 33.044.827.217 2.673.256 4.223-.177 3.015-8.128 6.303-13.265 10.017-14.13a30.85 30.85 0 0 0 1.167-4.352 849.982 849.982 0 0 1-6.94-6.021c-1.888-1.909-3.395-3.818-1.995-5.944 4.479-6.987 8.193-14.663 11.46-22.751-.636-4.606 5.073-9.23 9.466-13.837 1.76-4.88 2.271-10.372 2.1-17.003-2.843-3.346-3.267-4.507-3.352-10.194a49.897 49.897 0 0 0-8.129-4.488c-5.348-.945-6.154-3.266-4.01-5.767.169-.688.36-1.397.552-2.085l.189-2.657.85-1.24v-2.854l1.167-.235c.255-.75.531-1.497.829-2.205l-1.423-2.854c2.271-2.047 5.072-3.484 8.213-4.508l.255-3.581c2.695-2.854 5.177-5.649 11.481-9.468 1.994-.649 3.713-1.199 5.771-1.081 3.1-.079 6.347.176 9.892.923 3.331.414 6.557.826 9.209 1.24 5.052-3.09 9.189-3.836 15.132-3.836 8.467.511 14.411 3.462 18.358 10.528 1.569 7.853.19 13.325-2.145 18.027-1.401 2.795-3.926 4.036-7.216 4.173l.361 16.532-2.143 2.165c-2.441 1.437-5.03 2.401-7.938 2.52l-17.467.157-8.637-4.842c-2.971 0-2.993 1.831-1.783 4.409 1.337 3.837 2.907 7.694 5.709 11.553 6.473 5.432 12.457 7.95 13.561 18.343.021 18.795-2.61 31.726-8.085 45.423l-4.945 12.281-3.396 3.13c-2.547 5.137-4.5 10.272-5.709 15.409-1.358 13.462 2.504 22.417 11.948 29.837 9.04 2.814 17.615 8.817 25.956 16.139 12.691 10.844 23.43 23.852 32.705 38.496 39.325 57.35 67.042 114.601 87.479 152.842" fill-rule="evenodd" clip-rule="evenodd" fill="#fff"/><path d="M227.096 168.843c-.85 3.896-1.4 7.282-1.719 10.49-.87 8.403 2.144 26.116 3.035 28.222 13.455 32.021 32.259 50.285 69.143 77.052 22.539 16.353 43.677 34.343 68.506 55.933 19.037 16.552 66.893 79.903 71.563 90.04 6.261 13.602 21.413 73.372 22.368 91.517l-1.04 3.229c-21.18 8.913-36.121 18.38-56.282 21.057-39.707 5.255-71.202 2.638-93.613-2.892-18.4-4.549-72.051-28.401-80.583-30.821-28.65-8.146-42.806-19.542-69.122-21.235-21.542-1.378-37.522 6.456-57.514 9.998-1.549-8.798 6.77-72.88 9.635-94.922 3.141-24.188 12.374-52.666 20.905-75.417 6.43-17.122 34.168-83.427 48.981-100.963 3.077-3.661 12.946-20.842 11.587-43.18-.255-3.958.127-7.223-.573-12.596-.383-2.834-1.846-9.86-3.268-12.399-3.884-6.928-5.073-9.566-2.653-13.383 3.331-3.956 7.449-6.554 13.625-13.895.47 18.341 23.262 31.783 27.019 34.165z" fill="#ff007a"/><path d="M227.096 168.843c-.85 3.896-1.4 7.282-1.719 10.49-.87 8.403 2.144 26.116 3.035 28.222 13.455 32.021 32.259 50.285 69.143 77.052 22.539 16.353 43.677 34.343 68.506 55.933 19.037 16.552 66.893 79.903 71.563 90.04 6.261 13.602 21.413 73.372 22.368 91.517l-1.04 3.229c-21.18 8.913-36.121 18.38-56.282 21.057-39.707 5.255-71.202 2.638-93.613-2.892-18.4-4.549-72.051-28.401-80.583-30.821-28.65-8.146-42.806-19.542-69.122-21.235-21.542-1.378-37.522 6.456-57.514 9.998-1.549-8.798 6.77-72.88 9.635-94.922 3.141-24.188 12.374-52.666 20.905-75.417 6.43-17.122 34.168-83.427 48.981-100.963 3.077-3.661 12.946-20.842 11.587-43.18-.255-3.958.127-7.223-.573-12.596-.383-2.834-1.846-9.86-3.268-12.399-3.884-6.928-5.073-9.566-2.653-13.383 3.331-3.956 7.449-6.554 13.625-13.895.47 18.341 23.262 31.783 27.019 34.165z" fill="#fff"/><path d="M193.054 187.421c-.043-.097.192 3.662-.128 11.022-.338 7.262-1.421 18.678-8.764 31.51-7.025 12.398-14.9 25.388-21.266 38.396-6.43 12.969-11.757 25.645-15.853 36.154-4.266 11.415-8.086 21.55-12.415 34.579-4.393 12.732-8.957 28.381-12.967 44.774-8.256 33.124-11.864 67.21-12.861 73.923-2.992 23.874-4.117 38.041-4.437 42.942.127-5.354.043-21.393 1.507-47.115.552-6.731 2.164-40.327 8.913-73.135 3.249-16.158 7.131-31.668 11.227-44.322 4.075-12.891 8.107-23.065 13.137-34.243 4.563-10.511 10.972-23.126 18.549-35.919 7.492-12.852 16.681-25.624 24.364-37.531 7.916-12.084 9.55-23.086 10.292-30.23.702-7.202.682-10.902.702-10.805zm-35.441 304.76c3.8.059 15.237.571 29.903 3.798 14.686 3.109 32.344 9.016 49.428 15.473 16.893 6.377 32.98 12.713 46.456 17.416 13.752 4.802 24.788 8.306 37.5 11.552 11.799 2.914 26.613 5.709 42.466 6.298 15.854.689 32.64-1.044 47.602-4.646 30.392-7.557 44.589-16.414 44.547-15.88-.021-.512-13.943 9.033-44.229 18.42-14.812 4.369-31.6 7.263-47.877 7.655-16.277.494-31.855-1.415-44.333-3.995-13.456-2.637-25.256-6.16-39.602-11.435-14.113-5.175-30.583-12.438-47.645-19.661-17.211-7.3-34.699-13.914-49.215-17.438-14.495-3.659-25.785-4.369-29.5-4.545-17.147-.964-29.732 1.81-37.669 3.857-4.33 1.18-7.344 2.185-9.148 2.833 2.187-.906 6.113-2.479 11.928-4.309 8.678-2.695 21.922-5.824 39.388-5.393z" fill="#ff007a"/><path d="M157.613 492.181c3.8.059 15.237.571 29.903 3.798 14.686 3.109 32.344 9.016 49.428 15.473 16.893 6.377 32.98 12.713 46.456 17.416 13.752 4.802 24.788 8.306 37.5 11.552 11.799 2.914 26.613 5.709 42.466 6.298 15.854.689 32.64-1.044 47.602-4.646 30.392-7.557 44.589-16.414 44.547-15.88-.021-.512-13.943 9.033-44.229 18.42-14.812 4.369-31.6 7.263-47.877 7.655-16.277.494-31.855-1.415-44.333-3.995-13.456-2.637-25.256-6.16-39.602-11.435-14.113-5.175-30.583-12.438-47.645-19.661-17.211-7.3-34.699-13.914-49.215-17.438-14.495-3.659-25.785-4.369-29.5-4.545-17.147-.964-29.732 1.81-37.669 3.857-4.33 1.18-7.344 2.185-9.148 2.833 2.187-.906 6.113-2.479 11.928-4.309 8.678-2.695 21.922-5.824 39.388-5.393z" fill="#ff007a"/><image width="357" height="67" xlink:href="3754829.png" transform="translate(102.5 488.5)" overflow="visible" opacity=".01"/><path d="M157.613 492.181c3.8.059 15.237.571 29.903 3.798 14.686 3.109 32.344 9.016 49.428 15.473 16.893 6.377 32.98 12.713 46.456 17.416 13.752 4.802 24.788 8.306 37.5 11.552 11.799 2.914 26.613 5.709 42.466 6.298 15.854.689 32.64-1.044 47.602-4.646 30.392-7.557 44.589-16.414 44.547-15.88-.021-.512-13.943 9.033-44.229 18.42-14.812 4.369-31.6 7.263-47.877 7.655-16.277.494-31.855-1.415-44.333-3.995-13.456-2.637-25.256-6.16-39.602-11.435-14.113-5.175-30.583-12.438-47.645-19.661-17.211-7.3-34.699-13.914-49.215-17.438-14.495-3.659-25.785-4.369-29.5-4.545-17.147-.964-29.732 1.81-37.669 3.857-4.33 1.18-7.344 2.185-9.148 2.833 2.187-.906 6.113-2.479 11.928-4.309 8.678-2.695 21.922-5.824 39.388-5.393z" fill="#ff007a"/><path d="M432.977 434.634c-8.107-14.367-20.246-31.233-34.169-46.662-13.646-15.292-28.269-28.912-40.663-39.993-12.668-11.276-23.027-20.133-34.592-30.366-21.373-18.915-54.373-46.073-76.169-74.533-4.71-6.18-8.489-12.024-11.481-17.378 6.791 15.705 14.39 28.282 19.588 32.493h.022c21.69 17.713 37.395 55.579 39.114 61.582.403 1.417 1.421 3.325 1.74 4.782 1.847 4.447 3.311 9.801 3.841 12.341 1.02 4.525 3.459 10.745 7.407 16.985 1.995 3.068 4.859 6.021 8.574 7.537 3.649 1.437 8.085 2.006 11.375.451 3.333-1.494 5.54-4.645 5.284-7.598-.149-2.95-2.759-5.018-5.115-5.844-3.967-1.16-7.13.983-8.212 1.397-1.188.709-1.592 1.102-2.229 1.043-.446 0-1.337-.847-.085-2.813.637-.886 1.846-1.85 3.693-2.56 1.677-.552 4.775-1.456 8.043.138 3.098 1.358 6.41 4.565 6.345 8.661 0 3.992-3.035 7.438-6.918 9.013-8.469 2.973-18.762-2.283-22.157-8.896a101.786 101.786 0 0 1-3.969-7.42c1.231 3.798 2.228 6.77 3.035 8.6 4.413 12.104 15.237 23.304 22.475 22.557 8.404-.533 10.674-4.312 11.141-4.882.848-.984 1.104-2.52 2.249-2.914.659-.393 2.845-.531 3.672 3.346 1.062 3.779-4.753 11.652-17.105 10.647-1.274-.157-2.505-.371-3.8-.746.149.492.107 1.021-.042 1.495.084 2.065-5.793 4.271-14.028-5.549-4.329-5.768-8.256-13.739-10.018-22.201-1.167-10.471-1.804-18.304-2.694-24.936-.021-.02-.021-.039-.043-.078.085.491-3.354-13.148-6.918-20.47-2.059-5.313-14.686-34.106-33.191-51.071.255.452.487.905.721 1.358 16.426 18.165 28.459 42.727 31.537 49.831 6.6 15.253 2.632 59.339-1.041 71.463a43.912 43.912 0 0 0-.104 3.857c.275 6.927 2.207 16.688 6.344 26.863 2.122 4.978 5.561 10.018 10.653 13.146 5.01 2.973 11.397 4.843 16.683 3.308 5.347-1.436 9.465-5.589 9.868-9.999.593-4.406-2.717-8.087-5.963-9.84-5.561-2.655-10.823-.216-12.521.158-1.953.746-2.653 1.261-3.586 1.023-.68-.097-1.762-1.574.636-4.172 1.189-1.18 3.226-2.322 6.154-2.934 2.632-.432 7.45-1.044 11.863 2.066 4.203 2.737 8.236 8.248 7.025 14.309-1.082 5.886-6.495 10.274-12.668 11.689-13.33 2.441-27.125-7.733-30.35-18.302-2.695-7.283-4.392-17.005-5.241-24.622-.976 9.035-1.274 18.442.615 27.948 2.016 11.119 8.468 22.043 18.591 29.364a55.292 55.292 0 0 0 10.887 5.511c2.865 1.201 5.943 2.204 9.231 3.129a.6.6 0 0 0 .234.059c4.393.789 17.084 2.655 34.89-.374 10.803-2.048 24.257-6.102 33.957-16.293 9.571-10.177 10.632-28.382.233-41.666-9.911-13.543-30.751-17.655-42.105-8.643-12.035 8.229-12.31 24.248-4.563 32.298 7.11 8.68 17.636 12.262 23.749 10.745 2.779-.607 4.583-2.341 5.56-3.504 1.295-1.397 1.952-3.403 1.464-5.213-.063-.336-.233-.65-.404-.966-.635-1.101-1.781-1.929-3.076-2.283a4.938 4.938 0 0 0-1.783-.078c-.36.02-.826.139-.997.472-.233.475.339.649.7.807.319.158.593.315.891.474.998.668 2.101 1.988 1.74 3.168-.319.964-1.441 1.712-2.44 1.948-.658.158-1.655.08-2.313-.139-2.356-.767-2.822-4.112-1.846-5.844 1.526-2.638 4.33-3.426 7.279-1.909.806.395 1.676 1.24 2.187 1.987.933 1.359 1.103 3.268.785 4.823-.127.334-.318.864-.425 1.062-.977 3.031-3.778 4.881-7.45 5.824-6.112 1.596-16.787-2.162-24.215-10.921-8.149-8.228-8.171-24.996 4.33-33.753 11.862-9.545 33.849-5.354 44.207 8.856 10.781 13.875 9.591 32.769-.511 43.238-10.144 10.49-23.833 14.327-34.804 16.198-5.115.807-9.784 1.2-13.985 1.338 1.973-.038 3.925-.099 5.899-.178 14.028-.607 27.887-1.652 41.043.433 13.116 1.931 25.617 7.204 33.638 15.806 8.002 8.443 12.756 18.38 14.03 27.671 1.442 9.309-1.677 18.165-7.684 22.948-5.815 4.742-12.755 6.908-18.336 6.12-4.542-.393-7.854-1.594-10.187-2.914-2.271-1.082-4.244-2.557-5.836-4.684-.998-1.379-2.144-3.108-2.59-4.684-1.294-4.35.807-7.951 2.823-10.982-.658 1.417-1.231 3.347-.553 5.177.68 1.989 2.908 3.029 4.712 2.854-1.485.57-2.547 2.264-3.12 3.68-.381.925-.297 2.479 0 3.425.405 1.162 1.295 2.105 2.229 2.893 2.864 2.322 6.387 3.72 10.016 4.586.786.098 1.613.218 2.484.275 5.496.649 12.18-1.612 17.743-6.356 5.709-4.723 8.53-13.204 7.002-22.218-1.4-8.955-6.197-18.639-14.069-26.668-7.79-8.17-19.759-13.089-32.493-14.861-12.904-1.89-26.485-.806-40.663-.136-1.209.079-2.461.116-3.714.176 4.902.414 9.805.769 14.644 1.24 12.542 1.044 24.598 3.718 33.554 7.734 8.53 3.661 12.096 9.15 12.967 12.223.828 3.248-.171 4.31-.914 4.369-.891.116-1.762-.513-3.183-2.5-1.528-1.929-3.819-5.688-11.1-9.841-7.788-4.507-19.1-7.853-31.516-9.525-4.095-.608-8.339-1.141-12.542-1.634.276.021.509.099.807.198 12.925 3.306 29.86 9.819 35.419 25.151 2.802 7.222 3.015 15.015.764 21.728-2.375 6.752-7.279 12.183-13.114 15.567-12.118 7.263-27.187 2.422-34.338-4.841-7.471-7.243-9.635-17.3-4.988-21.256.659-.69 1.422-1.141 2.038-1.516.808-.55 2.06-.808 3.013-.943 1.614-.177 3.461.136 4.818.982.68.476 1.506 1.222 1.954 1.91.997 1.712 1.315 3.856 0 5.43-1.041 1.24-3.036 2.188-4.754 2.205-.935-.038-2.123-.412-2.845-1.021-1.125-.966-1.634-2.541-1.125-3.8.446-.984 1.507-1.869 2.675-1.988 1.527-.157 2.886 1.183 3.354 2.479.105.278.105.671.36.887 1.167.807 1.4-1.869 1.317-2.362-.171-1.277-.786-2.42-1.933-3.208a4.178 4.178 0 0 0-.933-.491c-1.146-.472-2.462-.491-3.671-.275a6.384 6.384 0 0 0-3.035 1.377c-.191.237-.426.413-.636.65-.127.099-.213.256-.319.336 0 .02-.021.02-.021.02-3.926 4.152-1.952 13.401 5.243 20.153 7.109 6.944 21.689 11.373 33.17 4.309 5.519-3.325 10.273-8.561 12.479-14.998 2.122-6.453 1.91-13.973-.785-20.919-5.286-14.623-21.542-21.06-34.38-24.506-1.72-.45-3.419-.862-5.115-1.296 3.692.943 7.385 2.124 10.717 4.526 3.12 2.225 5.879 5.863 6.579 9.349.892 4.428-1.548 7.853-3.841 10.667.786-1.338 1.549-3.208 1.061-5.078-.53-2.008-2.653-3.229-4.477-3.206 1.549-.455 2.737-2.05 3.416-3.368 2.526-4.762-4.415-9.111-8.594-10.903-2.886-1.2-5.816-2.204-8.723-2.893.827.197 1.718.393 2.546.592-1.401-.356-2.759-.631-4.117-.985-2.039-.276-4.032-.611-5.985-.945-8.83-.709-17.658-2.637-25.85-7.183-13.772-7.36-22.687-20.96-24.937-34.305-3.141-16.452-.148-32.827 2.801-48.847 1.422-7.519 2.866-15.057 3.693-22.674.744-6.631-.084-13.206-.127-11.08-.318 14.82-10.166 45.503-20.904 55.816-3.076 2.932-6.812 5.156-9.996 7.204-1.994 1.277-3.862 2.479-5.263 3.579-4.648 3.622-8.149 6.949-10.229 11.298-2.759 5.787-2.759 12.675 0 18.4 2.122 4.469 5.646 7.64 9.911 8.936 7.237 2.204 13.455.809 17.105-3.837 3.312-4.23 3.056-10.844-.573-14.74-2.187-2.383-5.773-3.801-9.127-3.644-2.355.14-4.286 1.046-5.41 2.6-1.549 2.066-1.19 4.349-.171 5.687 1.062 1.378 2.781 1.91 4.69 1.42 1.55-.394 2.271-1.833 2.081-2.993-.043-.335-.043-.335-1.613-1.378-1.612-1.063 3.354-.335 3.63 1.91.34 2.479-1.634 3.778-3.736 4.309-2.25.572-5.072-.45-6.345-2.105-1.444-1.908-1.868-4.448-.425-7.184 1.018-1.907 4.457-4.212 7.089-4.35 3.607-.177 8.489 1.615 10.865 4.173 3.884 4.174 5.583 11.967 1.019 17.694-3.904 4.92-12.691 7.319-20.31 4.998-4.499-1.358-8.935-5.471-11.184-10.136-2.845-5.965-2.547-13.936.317-19.937 2.123-4.488 6.982-9.014 11.715-12.714 1.443-1.123 11.376-6.712 14.049-9.882 5.837-6.926 8.745-10.96 9.063-16.158-.593.789-1.167 1.556-1.782 2.324-5.793 6.849-14.071 13.814-22.326 17.969-12.989 6.475-30.327 5.275-41.087-4.823-10.59-9.958-14.537-21.55-9.169-37.156 1.041-3.091 5.497-6.672 9.275-7.361 3.565-.629 9.402 2.834 9.656 6.416.254 3.878-4.521 7.145-7.661 3.582-4.308-4.763 1.655-4.212 4.754-1.987 4.711-2.717-1.656-5.925-4.606-6.239-5.963-.589-9.443 4.881-10.695 9.624-1.718 6.378-.022 13.581 2.823 19.643 6.048 12.891 21.244 21.669 35.717 19.798 13.221-1.634 24.47-10.843 32.089-20.35a81.68 81.68 0 0 0 3.076-4.112c0-.021 0-.021.022-.04a71.005 71.005 0 0 0 10.059-21.749c-3.267 8.838-6.408 18.049-13.9 24.504-5.264 4.525-13.307 7.242-20.649 5.983-9.36-1.653-16.003-9.073-21.393-15.863 2.632 2.598 6.346 5.53 10.314 5.944 4.266.511 7.28-2.814 7.598-6.455.596 3.404 3.672 7.045 6.282 9.465 9.297 8.68 19.758-1.909 24.28-8.975 2.992-4.645 5.518-9.564 7.492-14.701 1.316-4.881 2.122-9.762 2.333-14.505.022-.433 0-.865.022-1.278-.234.649-.424 1.338-.679 2.008-3.459 7.931-9.317 14.543-17.296 18.933-8.256 3.778-19.27 2.303-24.81-4.508-5.37-6.889-4.754-16.511-.127-21.609 4.584-5.53 13.965-6.199 17.827-2.164 3.885 4.093 5.05 8.423 2.397 12.123-1.654 2.381-4.838 2.676-4.732 2.775-.105-.1 2.123-1.103 3.756-3.505 1.38-2.164 2.292-6.336-1.506-10.213-3.82-3.779-12.183-3.366-16.342 1.987-4.287 4.94-5.263 13.737-.169 19.739 5.114 6.044 15.365 7.009 22.538 3.346 6.897-4.054 12.437-10.942 14.984-18.007 2.271-7.263 2.44-15.824.637-22.181-3.588-12.694-19.08-35.701-27.144-47.215 4.329 9.053 5.73 15.508 3.947 12.773-1.167-1.771-2.145-3.622-2.781-4.841 3.459 7.518 5.858 17.181 4.118 26.135-1.167 5.216-3.692 11.08-7.003 15.47-5.199 6.829-14.962 9.171-23.854 6.356-8.722-2.774-17.233-7.813-17.042-17.378.042-1.987 1.062-5.058 2.929-6.377 1.762-1.259 5.984-.826 7.173 1.064 1.273 2.065-.381 5.058-3.141 3.896-3.757-1.516-.339-2.736 2.037-2.283 1.761-2.696-2.673-2.834-4.372-2.264-3.459 1.181-3.757 5.078-3.035 7.991.933 3.916 3.989 7.459 7.321 10.057 7.11 5.531 18.019 6.495 25.405 1.811 6.77-4.251 10.228-12.144 11.608-19.268 1.167-5.982 1.146-7.794-.806-.591-1.083 3.957-5.178 7.342-9.572 8.523-5.624 1.455-11.439-.946-16.405-3.288 2.207.748 5.113 1.417 7.406.65 2.483-.808 3.163-3.385 2.271-5.473 1.314 1.713 4.095 2.934 6.239 3.603 7.64 2.401 10.251-6.042 10.653-11.062.277-3.305-1.932-15.862-3.205-18.499-.106-.256-.255-.493-.36-.729.064.433.148.866.211 1.299.446 5.214-.828 10.312-3.904 14.74-3.417 4.173-10.229 6.711-15.28 4.369-4.966-2.4-7.598-8.284-6.58-12.26.891-4.172 6.6-7.479 9.91-6.238 3.333 1.259 5.178 3.444 4.819 6.141-.213 1.731-2.059 3.011-1.973 3.05-.086-.04.826-1.142 1.018-2.874.127-1.536-.594-4.055-3.84-5.236-3.184-1.081-7.662 1.24-8.362 5.236-.892 3.798 1.166 8.856 5.708 10.864 4.583 2.026 10.484-.039 13.349-3.857 2.589-3.976 3.587-9.151 2.907-13.678-1.295-9.841-2.992-11.908-6.536-16.493-8.235-10.706-16.958-30.447-20.884-44.499a70.468 70.468 0 0 1-1.845-5.314c-3.949-13.147-3.1-30.604-2.081-35.111.021-.452.807-1.121 1.124-2.185-5.39-2.381-13.264-9.092-15.684-11.099-1.357-1.043-2.461-2.107-3.757-3.563a31.41 31.41 0 0 1-3.756-5.314c-2.417-4.112-3.311-8.737-3.395-9.623-.404-3.307-.213-5.196-.191-5.806.042.669.148 2.833 1.188 6.14.212.866 1.656 5.058 4.245 8.601 1.231 1.772 2.61 3.346 3.82 4.605a101.047 101.047 0 0 0 3.353 3.445c2.165 2.105 5.583 5.018 8.914 7.065 3.354 2.085 6.049 3.325 6.027 3.307 1.529-4.369-.403 3.797-.616 6.002-.954 6.062-1.676 20.92 2.378 33.478 2.78 8.599 9.083 20.861 20.883 34.362 23.006 26.471 57.492 50.305 79.99 68.647 12.307 9.644 23.174 18.619 36.226 30.644 12.754 11.79 27.632 26.786 41.236 43.712 13.815 17.043 25.36 35.643 32.724 51.23 7.472 15.566 11.036 27.925 12.224 31.979 5.264 18.758 6.6 32.948 7.236 42.098.447 7.026.447 11.179.51 12.557-.339-3.582-.572-24.681-13.179-58.138-1.571-3.853-6.029-15.445-14.262-29.773z" fill="#ff007a"/><path d="M192.143 199.211c4.435-6.988 13.519-36.252 15.577-68.254 0 0 1.231-12.221 9.188-13.914 0 0 10.802-.925 9.36 14.308 0 0-5.561 42.117-22.814 79.866-23.494 3.07-39.136-18.718-46.626-26.983l2.78-8.935s22.134 19.011 32.535 23.912z" fill="#ff007a"/><path d="M161.285 188.663c5.899 6.691 12.33 13.264 20.479 17.634 4.244 2.263 8.978 3.896 13.858 4.368 1.571.157 5.879.729 7.217-.256 1.421-1.043 2.185-4.861 2.843-6.475 6.876-16.887 12.013-34.344 15.853-52.037 1.55-7.144 8.957-28.44-.699-33.32-13.753-6.947-14.156 27.357-14.941 32.1a226.825 226.825 0 0 1-6.982 29.581c-1.824 5.944-3.29 13.659-6.77 18.932 2.737-4.25 3.84-10.292 5.348-15.035 2.653-8.463 4.733-17.103 6.345-25.782 1.698-9.172 2.165-18.441 3.29-27.592.742-6.002 4.668-16.217 12.649-14.15 13.794 3.582 5.072 29.205 3.204 37.55-4.159 18.559-9.74 36.902-17.529 54.437-1.657 3.72-1.657 3.623-6.41 3.623-5.857-.02-11.587-1.654-16.702-4.252-4.584-2.322-8.638-5.471-12.352-8.855-1.889-1.713-3.65-3.524-5.37-5.394a122.073 122.073 0 0 1-2.165-2.342c-1.146-1.28-1.4-1.575-1.166-2.735zm30.858 10.527c-2.993-1.337-12.564-8.048-17.722-12.083-.063 1.318 6.156 5.353 7.471 6.278 2.801 1.929 9.719 6.102 10.251 5.805z" fill="#ff007a"/><path d="M217.333 418.239c-.976.672-.339 2.953 1.401 5.099 1.74 2.146 3.926 3.345 4.902 2.676.956-.688.34-2.973-1.4-5.116-1.74-2.144-3.926-3.328-4.903-2.659zm.637-1.376c.148 1.101 2.588 1.753 5.476 1.416 2.864-.315 5.07-1.496 4.923-2.598-.148-1.12-2.59-1.751-5.476-1.437-2.866.335-5.072 1.498-4.923 2.619zm-.976-1.22c1.104.451 2.929-1.201 4.074-3.661 1.125-2.479 1.146-4.823.022-5.274-1.104-.434-2.929 1.2-4.075 3.681-1.125 2.46-1.147 4.819-.021 5.254zm-1.274 2.775c-1.104-.434-2.929 1.219-4.075 3.68-1.125 2.459-1.146 4.822-.022 5.274 1.104.434 2.929-1.22 4.075-3.681 1.125-2.46 1.147-4.821.022-5.273zm-.339-2.579c.976-.668.339-2.952-1.4-5.117-1.741-2.144-3.926-3.326-4.902-2.657-.956.689-.341 2.974 1.399 5.118 1.741 2.145 3.926 3.326 4.903 2.656zm-5.56 3.995c2.864-.334 5.071-1.494 4.923-2.617-.149-1.104-2.59-1.751-5.476-1.417-2.866.313-5.072 1.496-4.923 2.597.149 1.123 2.589 1.752 5.476 1.437zm113.052 61.62c-.955.691-.339 2.974 1.4 5.121 1.741 2.144 3.926 3.322 4.903 2.654.976-.669.34-2.972-1.401-5.116-1.739-2.127-3.924-3.326-4.902-2.659zm.637-1.377c.148 1.123 2.588 1.752 5.476 1.438 2.865-.336 5.072-1.496 4.923-2.617-.148-1.103-2.588-1.752-5.453-1.417-2.887.314-5.095 1.476-4.946 2.596zm-.976-1.199c1.124.432 2.95-1.202 4.075-3.681 1.124-2.461 1.146-4.821.02-5.274-1.103-.434-2.928 1.221-4.052 3.682-1.147 2.458-1.147 4.84-.043 5.273zm-1.274 2.776c-1.104-.454-2.928 1.197-4.053 3.657-1.147 2.481-1.167 4.842-.043 5.276 1.104.434 2.93-1.201 4.076-3.681 1.125-2.459 1.145-4.82.02-5.252zm-.34-2.599c.977-.669.34-2.953-1.399-5.098-1.741-2.145-3.927-3.346-4.902-2.677-.956.689-.341 2.971 1.4 5.118 1.74 2.145 3.925 3.326 4.901 2.657zm-5.56 3.995c2.865-.315 5.071-1.497 4.924-2.598-.127-1.122-2.59-1.752-5.454-1.435-2.865.332-5.094 1.495-4.944 2.594.147 1.123 2.61 1.774 5.474 1.439zM208.589 329.479c-.955.669-.339 2.952 1.4 5.098 1.741 2.146 3.949 3.325 4.903 2.657.976-.669.34-2.952-1.4-5.098-1.742-2.146-3.926-3.325-4.903-2.657zm.637-1.398c.149 1.122 2.59 1.772 5.476 1.438 2.866-.315 5.073-1.496 4.923-2.618-.149-1.102-2.589-1.73-5.454-1.416-2.885.333-5.092 1.494-4.945 2.596zm-.976-1.199c1.125.452 2.95-1.202 4.074-3.682 1.125-2.459 1.146-4.821.022-5.254-1.104-.452-2.929 1.2-4.054 3.681-1.146 2.46-1.146 4.82-.042 5.255zm-1.252 2.774c-1.125-.433-2.951 1.201-4.074 3.68-1.125 2.461-1.147 4.822-.042 5.276 1.103.432 2.949-1.222 4.073-3.682 1.125-2.48 1.147-4.841.043-5.274zm-.361-2.578c.977-.688.361-2.972-1.38-5.117-1.74-2.146-3.948-3.325-4.923-2.656-.955.668-.318 2.971 1.401 5.117 1.761 2.124 3.947 3.325 4.902 2.656zm-5.559 3.976c2.864-.314 5.071-1.496 4.923-2.598-.127-1.122-2.589-1.752-5.454-1.437-2.866.334-5.094 1.494-4.945 2.598.148 1.122 2.609 1.772 5.476 1.437zm85.25 120.31c-.701.491-.255 2.165 1.019 3.721 1.274 1.554 2.864 2.419 3.565 1.926.7-.491.254-2.163-1.018-3.718-1.273-1.556-2.865-2.423-3.566-1.929zm.466-1.006c.106.808 1.889 1.281 3.97 1.044 2.079-.236 3.693-1.081 3.585-1.908-.106-.807-1.889-1.26-3.967-1.023-2.102.235-3.693 1.081-3.588 1.887zm-.721-.883c.828.334 2.144-.865 2.972-2.656.827-1.793.827-3.525.021-3.84-.806-.314-2.145.887-2.95 2.679-.828 1.789-.848 3.522-.043 3.817zm-.912 2.027c-.807-.317-2.144.886-2.951 2.677-.828 1.789-.848 3.502-.042 3.817.806.314 2.143-.866 2.971-2.676.829-1.791.829-3.504.022-3.818zm-.255-1.891c.701-.492.255-2.145-1.019-3.699-1.253-1.555-2.845-2.44-3.566-1.948-.701.492-.232 2.165 1.019 3.718 1.274 1.554 2.866 2.422 3.566 1.929zm-4.032 2.913c2.08-.235 3.672-1.083 3.565-1.909-.105-.807-1.867-1.259-3.969-1.022-2.08.235-3.692 1.083-3.587 1.889.108.807 1.889 1.279 3.991 1.042zm138.307 47.825c-.7.471-.233 2.147 1.019 3.701 1.273 1.555 2.866 2.42 3.565 1.928.7-.493.254-2.146-1.02-3.7-1.251-1.574-2.842-2.421-3.564-1.929zm.467-1.024c.106.827 1.889 1.281 3.989 1.044 2.081-.235 3.693-1.081 3.589-1.89-.108-.807-1.891-1.279-3.991-1.044-2.08.238-3.693 1.084-3.587 1.89zm-.7-.866c.806.314 2.122-.884 2.95-2.676.827-1.791.848-3.503.021-3.839-.808-.314-2.122.888-2.951 2.678-.826 1.792-.826 3.523-.02 3.837zm-.934 2.009c-.806-.315-2.122.885-2.949 2.675-.827 1.792-.827 3.504-.021 3.839.806.313 2.122-.885 2.95-2.676.827-1.792.847-3.524.02-3.838zm-.233-1.87c.7-.493.233-2.164-1.018-3.719-1.274-1.557-2.867-2.423-3.567-1.932-.699.493-.253 2.166 1.019 3.702 1.253 1.556 2.844 2.421 3.566 1.949zm-4.054 2.892c2.081-.235 3.693-1.082 3.587-1.888-.106-.808-1.888-1.281-3.967-1.045-2.103.237-3.694 1.082-3.609 1.891.106.807 1.889 1.279 3.989 1.042zm8.256-57.151c-.701.491-.234 2.162 1.018 3.718 1.273 1.555 2.865 2.422 3.566 1.93.7-.492.254-2.146-1.02-3.721-1.251-1.556-2.863-2.421-3.564-1.927zm.467-1.007c.106.807 1.888 1.281 3.968 1.044s3.692-1.083 3.588-1.89c-.107-.807-1.889-1.279-3.97-1.044-2.079.238-3.692 1.087-3.586 1.89zm-.701-.863c.808.314 2.123-.887 2.95-2.679.828-1.791.828-3.504.021-3.838-.807-.313-2.144.886-2.95 2.677-.827 1.79-.848 3.523-.021 3.84zm-.933 2.005c-.807-.315-2.144.887-2.951 2.679-.828 1.791-.848 3.503-.042 3.818.828.334 2.143-.867 2.972-2.658.827-1.812.827-3.525.021-3.839zm-.255-1.868c.701-.492.255-2.167-1.018-3.721-1.252-1.555-2.844-2.419-3.566-1.949-.7.492-.233 2.167 1.018 3.721 1.274 1.554 2.865 2.418 3.566 1.949zm-4.054 2.894c2.102-.237 3.693-1.083 3.586-1.893-.105-.805-1.867-1.278-3.967-1.041-2.081.236-3.693 1.083-3.588 1.89.108.807 1.889 1.279 3.969 1.044zm-72.411-5.905c-.7.492-.234 2.145 1.019 3.698 1.272 1.574 2.864 2.442 3.565 1.949.721-.491.255-2.167-.997-3.721-1.273-1.553-2.866-2.417-3.587-1.926zm.467-1.004c.104.806 1.889 1.278 3.968 1.042 2.1-.236 3.714-1.082 3.607-1.908-.105-.809-1.888-1.258-3.989-1.022-2.079.234-3.691 1.08-3.586 1.888zm-.701-.885c.806.314 2.123-.868 2.95-2.66.828-1.811.848-3.522.021-3.835-.806-.316-2.123.885-2.949 2.677-.828 1.79-.828 3.503-.022 3.818zm-.933 2.025c-.806-.335-2.123.867-2.95 2.678-.827 1.79-.827 3.503-.021 3.817.806.315 2.123-.886 2.95-2.676s.849-3.503.021-3.819zm-.234-1.889c.701-.492.234-2.145-1.019-3.699-1.272-1.575-2.864-2.439-3.565-1.947-.702.491-.255 2.164 1.017 3.72 1.253 1.553 2.845 2.418 3.567 1.926zm-4.054 2.914c2.08-.257 3.694-1.101 3.587-1.909-.105-.807-1.889-1.261-3.969-1.024-2.1.236-3.692 1.081-3.586 1.889.085.808 1.889 1.279 3.968 1.044zm19.822-74.691c-.721.492-.254 2.167.998 3.722 1.274 1.552 2.866 2.421 3.565 1.927.7-.492.255-2.145-.997-3.718-1.274-1.555-2.865-2.423-3.566-1.931zm.446-1.002c.106.808 1.888 1.279 3.967 1.043 2.103-.235 3.715-1.084 3.609-1.89-.107-.826-1.89-1.278-3.99-1.043-2.079.237-3.691 1.081-3.586 1.89zm-.7-.868c.806.315 2.123-.885 2.95-2.676.828-1.792.85-3.503.021-3.838-.806-.314-2.122.888-2.951 2.678-.827 1.788-.827 3.524-.02 3.836zm-.934 2.009c-.807-.316-2.122.886-2.95 2.675-.828 1.791-.828 3.504-.022 3.819.808.334 2.123-.865 2.951-2.656.828-1.791.849-3.522.021-3.838zm-.233-1.869c.7-.493.234-2.165-1.019-3.72-1.273-1.556-2.866-2.422-3.564-1.949-.701.512-.255 2.164 1.019 3.719 1.251 1.574 2.863 2.423 3.564 1.95zm-4.054 2.892c2.081-.236 3.692-1.082 3.587-1.891-.106-.806-1.889-1.277-3.969-1.04-2.101.234-3.713 1.081-3.608 1.889.107.805 1.911 1.279 3.99 1.042zm-40.28-39.264c-.701.493-.255 2.166.996 3.721 1.274 1.574 2.866 2.42 3.566 1.948.722-.512.255-2.165-.997-3.72-1.273-1.555-2.866-2.421-3.565-1.949zm.445-1.002c.106.806 1.888 1.278 3.99 1.042 2.081-.236 3.692-1.082 3.587-1.889-.106-.808-1.889-1.279-3.99-1.044-2.08.237-3.693 1.083-3.587 1.891zm-.7-.868c.807.315 2.122-.865 2.95-2.675.827-1.791.849-3.504.021-3.838-.806-.315-2.122.886-2.951 2.695-.826 1.791-.826 3.504-.02 3.818zm-.932 2.009c-.809-.314-2.124.886-2.951 2.677-.828 1.79-.828 3.503-.021 3.837.807.315 2.144-.885 2.95-2.676.827-1.793.848-3.524.022-3.838zm-.236-1.871c.7-.492.235-2.165-1.019-3.72-1.273-1.554-2.864-2.421-3.565-1.929-.701.493-.254 2.166 1.019 3.72 1.253 1.556 2.844 2.423 3.565 1.929zm-4.053 2.894c2.08-.235 3.692-1.082 3.587-1.89-.107-.807-1.89-1.279-3.969-1.042-2.1.235-3.692 1.081-3.608 1.888.127.809 1.91 1.28 3.99 1.044zm-73.451-73.586c-.7.492-.233 2.163 1.019 3.719 1.273 1.555 2.865 2.42 3.565 1.929.7-.493.255-2.145-1.019-3.719-1.252-1.536-2.843-2.422-3.565-1.929zm.467-1.005c.105.808 1.889 1.279 3.968 1.043 2.101-.236 3.715-1.083 3.587-1.889-.084-.808-1.867-1.28-3.969-1.043-2.08.236-3.692 1.082-3.586 1.889zm-.701-.866c.806.314 2.144-.887 2.949-2.677.829-1.792.849-3.504.022-3.838-.807-.314-2.124.886-2.95 2.676-.827 1.792-.827 3.524-.021 3.839zm-.934 2.007c-.806-.315-2.122.887-2.95 2.677-.827 1.792-.827 3.503-.021 3.838.806.315 2.122-.886 2.949-2.677.828-1.79.85-3.522.022-3.838zm-.233-1.869c.701-.492.233-2.165-1.018-3.719-1.273-1.556-2.866-2.421-3.566-1.949-.7.512-.255 2.165 1.019 3.739 1.251 1.555 2.842 2.402 3.565 1.929zm-4.053 2.894c2.079-.237 3.693-1.083 3.586-1.89-.105-.807-1.889-1.278-3.968-1.044-2.101.237-3.692 1.083-3.587 1.891.106.805 1.868 1.279 3.969 1.043zm161.376 275.375c-.573.393-.191 1.731.829 3.012 1.039 1.259 2.313 1.967 2.907 1.572.552-.412.19-1.75-.827-3.029-1.041-1.242-2.336-1.968-2.909-1.555zm.382-.826c.085.669 1.528 1.041 3.226.847 1.697-.178 2.992-.889 2.907-1.535-.085-.652-1.526-1.045-3.226-.847-1.697.194-2.991.885-2.907 1.535zm-.573-.708c.658.255 1.741-.71 2.397-2.167.659-1.456.68-2.853.021-3.107-.657-.257-1.74.727-2.397 2.164-.679 1.455-.679 2.853-.021 3.11zm-.763 1.634c-.638-.257-1.719.728-2.398 2.183-.659 1.438-.679 2.835 0 3.091.637.275 1.719-.709 2.398-2.164.657-1.458.678-2.856 0-3.11zm-.192-1.517c.573-.395.192-1.752-.827-3.01-1.018-1.282-2.313-1.969-2.887-1.578-.572.395-.212 1.754.828 3.013 1.018 1.259 2.313 1.967 2.886 1.575zm-3.289 2.341c1.698-.176 2.992-.866 2.907-1.535-.083-.648-1.527-1.022-3.226-.826-1.698.178-2.992.867-2.906 1.537.084.648 1.527 1.022 3.225.824zm-96.118-55.124c-.595.391-.212 1.749.806 3.01 1.042 1.261 2.335 1.967 2.909 1.576.551-.395.19-1.754-.828-3.014-1.039-1.259-2.335-1.967-2.887-1.572zm.362-.828c.085.67 1.527 1.044 3.226.847 1.697-.177 2.992-.867 2.907-1.536-.084-.648-1.529-1.022-3.226-.826-1.698.177-2.992.866-2.907 1.515zm-.574-.709c.659.275 1.74-.709 2.398-2.165.658-1.455.68-2.833.022-3.107-.658-.259-1.741.707-2.398 2.183-.68 1.454-.68 2.835-.022 3.089zm-.743 1.634c-.658-.255-1.739.729-2.397 2.184-.679 1.456-.679 2.837-.021 3.11.637.255 1.719-.729 2.399-2.184.657-1.458.677-2.834.019-3.11zm-.213-1.516c.573-.393.192-1.753-.826-3.011-1.019-1.279-2.314-1.968-2.887-1.574-.574.393-.191 1.751.828 3.012 1.019 1.259 2.313 1.968 2.885 1.573zm-3.288 2.361c1.697-.194 3.014-.884 2.929-1.554-.086-.65-1.55-1.022-3.227-.828-1.696.178-3.013.867-2.929 1.536.106.652 1.551 1.024 3.227.846zm-49.088-127.748c-.572.394-.213 1.731.827 3.012 1.019 1.259 2.314 1.968 2.887 1.573.573-.413.212-1.77-.828-3.031-1.018-1.259-2.313-1.967-2.886-1.554zm.361-.826c.105.648 1.549 1.043 3.226.847 1.697-.198 3.013-.888 2.928-1.537-.084-.668-1.526-1.022-3.226-.845-1.698.197-3.013.886-2.928 1.535zm-.574-.709c.659.256 1.74-.709 2.42-2.165.658-1.456.658-2.854 0-3.111-.658-.254-1.719.711-2.399 2.167-.657 1.455-.679 2.853-.021 3.109zm-.743 1.633c-.658-.255-1.719.709-2.398 2.166-.678 1.457-.678 2.854-.021 3.109s1.74-.71 2.399-2.167c.679-1.454.679-2.852.02-3.108zm-.19-1.516c.551-.413.19-1.751-.828-3.01-1.04-1.28-2.334-1.988-2.886-1.575-.595.395-.212 1.753.807 3.012 1.039 1.259 2.334 1.968 2.907 1.573zm-3.29 2.344c1.698-.18 2.993-.886 2.908-1.535-.085-.65-1.528-1.024-3.226-.847-1.696.196-2.992.886-2.907 1.533.084.669 1.528 1.045 3.225.849zm42.319-38.458c-.595.394-.212 1.752.807 3.012 1.039 1.279 2.334 1.969 2.908 1.575.571-.395.19-1.753-.829-3.012-1.041-1.259-2.335-1.967-2.886-1.575zm.36-.806c.085.648 1.527 1.022 3.226.826 1.697-.178 3.014-.866 2.907-1.536-.085-.648-1.527-1.023-3.226-.826-1.697.178-2.992.866-2.907 1.536zm-.572-.729c.657.275 1.74-.708 2.397-2.165.679-1.456.679-2.833.021-3.089-.657-.276-1.74.709-2.398 2.164-.679 1.457-.679 2.835-.02 3.09zm-.744 1.653c-.658-.255-1.739.708-2.397 2.166-.681 1.456-.701 2.833-.022 3.109.658.255 1.719-.71 2.398-2.186.657-1.435.678-2.832.021-3.089zm-.212-1.534c.573-.394.212-1.752-.828-3.013-1.018-1.259-2.313-1.968-2.886-1.573-.573.393-.19 1.752.828 3.01 1.018 1.28 2.313 1.969 2.886 1.576zm-3.288 2.36c1.696-.196 3.012-.885 2.927-1.534-.084-.67-1.549-1.044-3.226-.847-1.697.197-3.013.866-2.928 1.536.085.649 1.549 1.024 3.227.845zm33.699 79.099c-.572.414-.212 1.752.828 3.01 1.019 1.28 2.313 1.968 2.887 1.576.572-.393.19-1.752-.828-3.011s-2.312-1.968-2.887-1.575zm.362-.808c.085.65 1.528 1.023 3.226.848 1.697-.197 3.012-.888 2.928-1.557-.105-.648-1.548-1.022-3.226-.826-1.698.178-3.013.867-2.928 1.535zm-.574-.709c.659.255 1.742-.706 2.398-2.163.68-1.477.68-2.854.021-3.109-.658-.276-1.719.709-2.397 2.164-.658 1.456-.68 2.854-.022 3.108zm-.742 1.634c-.658-.256-1.74.709-2.397 2.167-.68 1.454-.68 2.832-.021 3.107.658.258 1.74-.708 2.398-2.164.677-1.457.677-2.854.02-3.11zm-.191-1.536c.552-.392.191-1.75-.848-3.009-1.019-1.261-2.314-1.969-2.887-1.575-.572.415-.19 1.751.828 3.031 1.04 1.261 2.334 1.949 2.907 1.553zm-3.289 2.362c1.676-.195 2.991-.885 2.906-1.534-.084-.671-1.527-1.043-3.226-.846-1.697.197-2.992.886-2.928 1.536.085.649 1.549 1.042 3.248.844zm84.509 13.541c-.574.395-.213 1.754.826 3.012 1.021 1.28 2.315 1.968 2.887 1.574.574-.395.192-1.751-.828-3.01-1.019-1.26-2.313-1.967-2.885-1.576zm.359-.806c.085.649 1.53 1.024 3.227.847 1.698-.197 3.014-.886 2.928-1.555-.085-.649-1.528-1.024-3.226-.826-1.697.176-3.014.865-2.929 1.534zm-.572-.708c.657.255 1.74-.709 2.398-2.166.679-1.454.679-2.852.021-3.128-.658-.237-1.719.728-2.398 2.186-.658 1.455-.679 2.852-.021 3.108zm-.744 1.635c-.657-.257-1.74.707-2.397 2.164-.658 1.456-.679 2.834-.02 3.108.657.256 1.739-.708 2.397-2.185.679-1.435.679-2.833.02-3.087zm-.211-1.538c.573-.394.211-1.731-.807-3.012-1.04-1.258-2.334-1.968-2.906-1.572-.574.412-.193 1.77.826 3.03 1.04 1.26 2.335 1.949 2.887 1.554zm-3.269 2.364c1.698-.199 2.992-.886 2.907-1.537-.083-.669-1.526-1.042-3.226-.844-1.697.194-2.992.886-2.928 1.535.107.647 1.55 1.041 3.247.846zm-12.605 89.567c-.573.395-.212 1.75.806 3.011 1.039 1.278 2.334 1.969 2.908 1.596.572-.415.191-1.771-.828-3.032-1.041-1.259-2.336-1.97-2.886-1.575zm.36-.808c.085.65 1.527 1.046 3.226.849 1.697-.198 3.013-.886 2.907-1.536-.084-.668-1.529-1.043-3.205-.845-1.697.196-3.013.883-2.928 1.532zm-.572-.707c.658.255 1.739-.709 2.397-2.165.679-1.457.679-2.854.021-3.11s-1.741.71-2.397 2.166c-.679 1.455-.679 2.852-.021 3.109zm-.744 1.633c-.658-.258-1.74.708-2.397 2.165-.68 1.457-.68 2.855-.022 3.109.659.255 1.72-.709 2.398-2.166.658-1.455.68-2.852.021-3.108zm-.213-1.515c.574-.415.213-1.751-.828-3.031-1.019-1.258-2.313-1.969-2.886-1.555-.573.395-.19 1.732.829 3.011 1.018 1.26 2.313 1.969 2.885 1.575zm-3.267 2.342c1.676-.198 2.993-.887 2.907-1.536-.085-.649-1.529-1.044-3.225-.845-1.698.195-3.015.883-2.908 1.533.085.67 1.528 1.045 3.226.848zm-164.03-108.188c-.573.395-.211 1.733.828 3.014 1.019 1.258 2.313 1.967 2.886 1.572.573-.413.192-1.77-.827-3.031-1.019-1.258-2.315-1.967-2.887-1.555zm.361-.826c.084.669 1.528 1.044 3.226.849 1.698-.197 2.993-.887 2.907-1.536-.084-.65-1.527-1.044-3.204-.846-1.699.195-3.014.883-2.929 1.533zm-.572-.707c.656.256 1.739-.709 2.397-2.167.679-1.455.679-2.852.02-3.108-.658-.255-1.719.709-2.397 2.165-.658 1.454-.679 2.852-.02 3.11zm-.744 1.634c-.658-.258-1.741.708-2.399 2.164-.657 1.456-.678 2.854-.021 3.11.659.256 1.719-.709 2.398-2.167.658-1.455.681-2.851.022-3.107zm-.192-1.516c.553-.413.192-1.751-.826-3.012-1.041-1.278-2.335-1.987-2.908-1.576-.573.396-.19 1.752.828 3.013 1.018 1.259 2.334 1.968 2.906 1.575zm-3.288 2.342c1.696-.179 2.992-.867 2.907-1.535-.084-.649-1.528-1.025-3.225-.847-1.699.197-3.014.886-2.909 1.535.086.668 1.529 1.043 3.227.847zm50.488-344.339c-.572.394-.212 1.731.807 3.011 1.04 1.259 2.334 1.949 2.907 1.574.573-.413.19-1.751-.829-3.03-1.017-1.26-2.312-1.968-2.885-1.555zm.36-.826c.085.649 1.529 1.042 3.227.846 1.696-.197 3.012-.885 2.928-1.535-.085-.65-1.528-1.043-3.226-.846-1.698.196-3.013.885-2.929 1.535zm-.573-.709c.658.256 1.741-.709 2.398-2.164.68-1.458.68-2.854.022-3.11-.659-.255-1.719.708-2.398 2.166-.658 1.455-.679 2.852-.022 3.108zm-.742 1.634c-.659-.256-1.741.709-2.398 2.164-.679 1.458-.679 2.854-.021 3.11.658.255 1.718-.708 2.397-2.166.66-1.454.68-2.852.022-3.108zm-.211-1.535c.572-.394.212-1.732-.829-3.011-1.018-1.26-2.313-1.968-2.886-1.576-.573.414-.191 1.772.828 3.032 1.018 1.259 2.313 1.968 2.887 1.555zm-3.291 2.362c1.699-.196 3.013-.886 2.929-1.536-.085-.649-1.549-1.023-3.226-.846-1.697.197-3.013.886-2.928 1.535.084.669 1.548 1.043 3.225.847z" fill-rule="evenodd" clip-rule="evenodd" fill="#ff007a"/><path d="M147.468 185.395s-26.21 21.925-28.013 23.913c0 .412.021.845.064 1.259.232 2.617 1.421 4.743 3.311 5.982.084.059.19.119.275.177 3.184 1.988 6.388 2.027 8.957.177a6.292 6.292 0 0 0 1.464-1.476c1.337-1.83 1.761-4.311.955-6.2-.425-.964-1.188-1.791-2.123-2.381a5.5 5.5 0 0 0-1.74-.708c-1.189-.256-2.25-.041-3.078.571-.255.216-.488.432-.658.668-.51.708-.595 1.536-.403 2.105.125.415.38.729.721.945.318.198.721.315 1.208.315.489 0 .914-.255 1.147-.59.127-.177.212-.354.233-.531.042-.119.064-.473-.212-.611a.42.42 0 0 0-.191-.079l-.128-.058c-.169-.118-.253-.315-.19-.492a.31.31 0 0 1 .084-.139.507.507 0 0 1 .51-.197c.169.04.339.1.467.197.509.295.721.886.595 1.497a2.207 2.207 0 0 1-.404.905 2.397 2.397 0 0 1-1.973 1.003c-.638-.02-1.231-.177-1.699-.472-.531-.315-.892-.787-1.082-1.397-.319-.944-.085-2.008.551-2.873a4.41 4.41 0 0 1 .85-.887c1.083-.807 2.461-1.081 3.905-.767a6.63 6.63 0 0 1 2.058.845c1.061.67 1.932 1.634 2.419 2.737.956 2.204.468 4.999-1.039 7.065a8.515 8.515 0 0 1-1.699 1.713c-2.928 2.105-6.6 2.046-10.038-.1 0 0 0-.019-.021-.019-.085-.06-.192-.118-.298-.197-2.101-1.397-3.417-3.739-3.692-6.592-.021-.119 0-.238-.021-.375-3.227 3.76-6.325 8.385-6.728 13.619-1.74 5.216-1.634 11.514.594 16.67 2.589 5.039 9.146 8.541 14.982 6.967 5.794-1.555 9.275-7.164 9.02-11.808 0-4.862-4.796-8.424-8.808-7.696-4.074.788-5.454 3.641-5.624 5.491-.148 2.066.723 3.542.616 3.582.107-.04-1.825-1.889-1.719-3.976.128-3.247 2.781-5.492 6.982-6.396 4.16-.865 10.23 4.055 10.399 9.172.402 4.881-3.947 11.356-10.314 13.324-6.451 1.851-14.007-2.381-17.169-7.912-2.716-5.786-3.141-12.063-1.528-18.146.149-.492.339-1.004.531-1.476-.192.256-.403.512-.595.767-2.058 2.913-3.842 6.141-5.306 9.584a55.784 55.784 0 0 0-2.334 11.711c-.572 6.003.742 16.473 10.292 14.997 2.674-.394 6.198-1.338 8.107-3.129-1.486 2.303-1.21 5.472 1.549 6.869 2.545 1.319 6.133 1.042 8.891.551-6.366 1.909-13.73 3.68-20.075.944-4.945-2.164-8.49-6.985-9.529-11.768-1.465-6.83.913-13.562 3.056-20.115-2.716 6.318-4.288 13.364-4.138 20.646.127 8.699 2.568 18.637 9.699 24.876 7.745 6.869 20.841 7.676 30.413 2.42 4.499-2.48 8.849-6.1 10.758-10.568 1.443-3.326 1.911-7.99-1.909-9.998-1.89-.984-7.173-1.614-5.645 1.889 2.887-.097 6.685 1.949 1.931 3.071-3.523.866-4.837-2.972-2.908-5.176 1.804-2.028 6.877-1.771 8.703.019 1.952 1.909 2.503 5.727 2.144 8.069-1.762 11.337-12.884 15.785-23.791 17.496-9.487 1.477-17.976-2.106-23.196-8.817 9.593 15.215 23.43 25.172 23.472 25.192 2.44 2.027 9.634 7.696 22.05 12.046 7.619 2.518 17.72 4.742 27.993 1.73 10.186-3.011 18.292-14.071 17.21-26.057-.657-11.986-12.054-21.925-22.898-20.272-10.909.944-17.637 10.903-16.087 18.678.934 7.951 6.069 13.915 10.506 15.114 1.995.592 3.841.139 4.923-.256 1.379-.393 2.632-1.436 3.056-2.755a2.79 2.79 0 0 0 .149-.747c.042-.905-.34-1.831-.998-2.521a3.812 3.812 0 0 0-1.081-.669c-.235-.117-.574-.197-.808-.039-.361.197-.085.511.084.748.149.197.256.393.361.609.362.769.509 1.969-.19 2.598-.595.492-1.613.553-2.335.355-.466-.119-1.061-.531-1.4-.886-1.147-1.319-.085-3.583 1.251-4.311 2.038-1.141 4.117-.648 5.348 1.339.34.531.552 1.378.552 2.028.042 1.181-.658 2.439-1.485 3.307-.213.157-.213 1.239-.383 1.317-1.847 1.555-5.008 1.595-7.703.906-4.5-1.161-10.314-7.597-11.397-15.725-1.761-8.03 6.579-19.897 18.018-20.98 11.354-1.83 24.258 10.076 24.915 22.653 1.104 12.497-9.338 24.778-19.97 27.79-10.652 3.011-20.415-.236-28.078-2.933 7.259 3.621 14.348 7.302 20.31 12.084 7.429 5.826 13.115 13.56 14.624 21.767 1.57 8.128.488 16.041-2.527 22.317-2.906 6.358-8.234 11.436-13.962 12.321-5.604.926-11.354-.235-14.539-2.677-2.695-1.85-4.223-3.935-5.135-5.569-.976-1.477-1.423-3.523-1.549-5.394-.064-1.219-.085-2.716.296-3.876.977-3.171 3.756-4.684 6.261-5.886-.976.649-2.144 1.653-2.462 3.051-.381 1.476.595 2.933 1.783 3.465-1.167-.176-2.526.511-3.459 1.199-.616.454-1.209 1.438-1.4 2.146-.233.866-.043 1.771.211 2.597.85 2.479 2.485 4.606 4.415 6.417.445.354.913.689 1.443 1.043 3.184 2.343 8.319 3.286 13.73 2.265 5.519-.946 10.761-5.296 13.5-11.474 2.8-6.123 3.755-13.897 2.1-21.71-1.549-7.873-7.046-15.174-14.325-20.763-7.302-5.747-16.278-9.841-25.446-14.407-.806-.394-1.613-.807-2.419-1.22 2.928 2.007 5.858 3.955 8.702 5.943 7.448 5.079 13.899 11.002 17.889 16.67 3.842 5.313 3.842 10.018 3.121 12.261-.806 2.322-1.868 2.637-2.355 2.402-.616-.237-.891-.927-.976-2.677-.149-1.772-.064-4.921-2.929-10.098-3.034-5.57-8.765-11.67-15.895-17.082a356.956 356.956 0 0 0-7.195-5.452c.169.118.275.256.424.433 6.771 6.613 15.725 17.359 12.946 28.951-1.188 5.512-4.118 10.273-8.278 13.698-4.265 3.403-10.611 5.57-15.661 5.649-10.57.294-19.398-9.015-20.925-16.1-1.72-7.185 1.932-14.426 6.472-15.272.7-.197 1.549-.414 2.101-.433.744-.06 1.974.137 2.653.412 1.061.453 2.08 1.338 2.568 2.342.233.532.616 1.812.616 2.401-.085 1.437-1.104 2.735-2.569 3.268-1.146.434-2.802.314-3.884-.276-.573-.354-1.168-1.023-1.358-1.653-.318-1.004 0-2.164.849-2.774.658-.472 1.699-.649 2.484-.314 1.019.452 1.337 1.751 1.082 2.734-.042.218-.212.474-.127.689.403.926 1.655-.689 1.804-1.003.403-.867.466-1.811.085-2.696a1.847 1.847 0 0 0-.382-.65c-.531-.708-1.337-1.181-2.186-1.476a5.088 5.088 0 0 0-2.483-.197c-.212.078-.425.118-.658.178-.127.02-.234.098-.339.117h-.021c-4.162 1.221-6.707 7.716-4.968 14.486 1.614 6.888 8.978 14.798 19.058 14.407 4.817-.139 9.953-1.772 13.965-5.021 3.989-3.307 6.94-8.107 8.107-13.422 2.675-11.041-4.902-20.803-11.566-27.493-.891-.887-1.784-1.753-2.675-2.619 1.932 1.89 3.778 3.937 4.881 6.612 1.041 2.501 1.295 5.768.297 8.188-1.273 3.089-4.18 4.408-6.791 5.352 1.061-.569 2.292-1.475 2.758-2.813.488-1.457-.36-2.973-1.507-3.602 1.147.275 2.569-.315 3.523-.905 3.545-2.107.977-7.263-.933-9.86a35.567 35.567 0 0 0-4.266-4.9c.425.433.89.846 1.337 1.259-.723-.709-1.465-1.358-2.187-2.047a243.897 243.897 0 0 1-3.353-2.696c-5.264-3.562-17.402-14.918-21.669-20.055-8.043-9.664-9.571-16.649-9.996-17.831-.021-.04-.021-.059-.042-.099v-.019c-2.016-5.097-3.184-10.962-3.417-16.118-.169-10.982 2.611-25.389 15.896-41.331 20.569-21.563 33.025-26.109 33.025-26.109z" fill="#ff007a"/><path d="M171.578 184.529c-.978.668-.362 2.992 1.4 5.156s3.969 3.366 4.945 2.676c.977-.669.34-2.992-1.4-5.156-1.762-2.164-3.969-3.365-4.945-2.676zm.636-1.398c.127 1.123 2.611 1.772 5.518 1.437 2.886-.334 5.114-1.516 4.988-2.638-.149-1.121-2.632-1.751-5.519-1.437-2.907.336-5.136 1.516-4.987 2.638zm-.998-1.219c1.125.452 2.973-1.221 4.118-3.721 1.145-2.479 1.145-4.859.021-5.313-1.124-.434-2.95 1.219-4.096 3.718-1.146 2.482-1.168 4.883-.043 5.316zm-1.273 2.794c-1.125-.432-2.972 1.221-4.118 3.72-1.146 2.479-1.167 4.861-.021 5.313 1.125.433 2.95-1.219 4.097-3.719 1.146-2.48 1.166-4.861.042-5.314zm-.339-2.597c.976-.689.339-2.993-1.422-5.176-1.762-2.146-3.969-3.366-4.945-2.678-.976.689-.34 2.991 1.401 5.157 1.76 2.165 3.989 3.365 4.966 2.697zm-5.624 4.015c2.886-.335 5.136-1.516 4.988-2.618-.17-1.143-2.632-1.772-5.54-1.458-2.887.335-5.114 1.516-4.988 2.638.17 1.122 2.632 1.772 5.54 1.438zm-9.211-13.306c-.977.689-.339 2.992 1.422 5.158 1.74 2.164 3.968 3.365 4.944 2.675.976-.668.34-2.991-1.421-5.156-1.74-2.163-3.969-3.365-4.945-2.677zm.637-1.397c.148 1.122 2.63 1.771 5.518 1.437 2.907-.334 5.136-1.515 4.987-2.636-.148-1.124-2.61-1.752-5.517-1.437-2.887.335-5.138 1.515-4.988 2.636zm-.976-1.221c1.125.454 2.97-1.219 4.096-3.719 1.146-2.48 1.167-4.861.042-5.314-1.125-.433-2.949 1.221-4.095 3.721-1.147 2.479-1.168 4.861-.043 5.312zm-1.274 2.796c-1.146-.434-2.971 1.22-4.117 3.719-1.146 2.481-1.168 4.862-.043 5.315 1.125.453 2.972-1.22 4.117-3.72 1.146-2.479 1.167-4.861.043-5.314zm-.36-2.599c.976-.688.36-2.991-1.401-5.175-1.762-2.145-3.99-3.366-4.945-2.677-.997.688-.361 3.011 1.401 5.156 1.761 2.165 3.969 3.365 4.945 2.696zm-5.624 4.015c2.907-.314 5.135-1.494 4.986-2.618-.148-1.121-2.61-1.77-5.517-1.456-2.908.334-5.137 1.516-4.988 2.638.148 1.122 2.632 1.771 5.519 1.436zm4.032 18.934c-1.168-.294-2.78 1.555-3.565 4.153-.807 2.618-.489 4.98.678 5.294 1.188.315 2.781-1.554 3.588-4.173.783-2.598.487-4.959-.701-5.274zm1.592-.373c-.871.787.063 3.01 2.101 4.959 2.037 1.948 4.393 2.874 5.285 2.086.87-.788-.085-3.013-2.122-4.94-2.039-1.948-4.396-2.892-5.264-2.105zm.444-1.457c.298 1.102 2.844 1.457 5.667.786 2.844-.669 4.902-2.084 4.605-3.187-.298-1.103-2.844-1.457-5.688-.788-2.821.65-4.881 2.087-4.584 3.189zm-3.161.747c-.318-1.101-2.844-1.456-5.687-.788-2.823.65-4.882 2.067-4.584 3.188.297 1.102 2.843 1.457 5.666.788 2.842-.668 4.902-2.085 4.605-3.188zm2.016-1.829c1.188.294 2.78-1.554 3.586-4.173.786-2.597.489-4.959-.678-5.274-1.188-.314-2.802 1.555-3.587 4.154-.807 2.616-.488 4.977.679 5.293zm-6.855-1.732c2.037 1.948 4.392 2.893 5.263 2.106.892-.788-.064-3.012-2.079-4.959-2.038-1.949-4.415-2.874-5.286-2.087-.869.786.064 3.011 2.102 4.94zm-11.184-6.593c-1.125-.473-2.993 1.141-4.224 3.601-1.209 2.46-1.294 4.842-.19 5.314 1.126.473 3.013-1.143 4.224-3.603 1.208-2.459 1.293-4.841.19-5.312zm1.634-.158c-.998.65-.446 2.992 1.251 5.196 1.699 2.204 3.862 3.463 4.883 2.813.996-.668.402-2.991-1.274-5.194-1.698-2.204-3.883-3.465-4.86-2.815zm.679-1.379c.106 1.123 2.568 1.831 5.476 1.576 2.908-.257 5.178-1.358 5.051-2.5-.105-1.122-2.568-1.831-5.476-1.575-2.907.257-5.179 1.379-5.051 2.499zm-3.269.297c-.105-1.141-2.568-1.831-5.475-1.594-2.907.256-5.179 1.376-5.071 2.519.126 1.121 2.588 1.831 5.496 1.574 2.907-.256 5.178-1.378 5.05-2.499zm2.315-1.536c1.103.472 2.992-1.143 4.223-3.602 1.209-2.46 1.293-4.842.19-5.313-1.125-.473-3.014 1.14-4.223 3.6-1.209 2.461-1.294 4.844-.19 5.315zm-6.495-2.657c1.675 2.205 3.861 3.464 4.859 2.815.998-.669.424-2.992-1.273-5.197-1.677-2.204-3.863-3.463-4.86-2.814-.998.669-.425 2.992 1.274 5.196zm5.709-13.383c-1.188-.275-2.76 1.595-3.523 4.212-.764 2.616-.425 4.959.742 5.274 1.189.295 2.759-1.594 3.523-4.211.764-2.598.446-4.96-.742-5.275zm1.591-.374c-.871.788.085 2.991 2.143 4.921 2.059 1.929 4.437 2.833 5.306 2.026.87-.787-.105-2.991-2.165-4.92-2.058-1.908-4.413-2.834-5.284-2.027zm.424-1.476c.32 1.102 2.845 1.437 5.668.728 2.822-.688 4.88-2.125 4.563-3.227-.319-1.103-2.865-1.418-5.688-.729-2.824.69-4.861 2.146-4.543 3.228zm-3.162.787c-.317-1.103-2.864-1.418-5.687-.729-2.824.689-4.861 2.126-4.542 3.228.296 1.103 2.843 1.437 5.667.729 2.823-.688 4.86-2.145 4.562-3.228zm1.996-1.85c1.188.295 2.758-1.594 3.543-4.211.743-2.619.425-4.979-.764-5.275-1.167-.295-2.759 1.594-3.523 4.212-.763 2.598-.423 4.959.744 5.274zm-6.876-1.652c2.058 1.93 4.436 2.834 5.305 2.027.848-.787-.106-2.993-2.164-4.921-2.059-1.929-4.437-2.834-5.306-2.046-.85.806.106 3.01 2.165 4.94zm42.508 6.1c-1.167-.294-2.738 1.575-3.522 4.193-.765 2.617-.424 4.979.765 5.274 1.167.295 2.758-1.574 3.522-4.191s.424-4.98-.765-5.276zm1.592-.393c-.87.806.106 3.011 2.166 4.939 2.058 1.91 4.435 2.834 5.283 2.028.871-.788-.105-2.992-2.142-4.921-2.06-1.928-4.437-2.833-5.307-2.046zm.424-1.456c.318 1.102 2.864 1.417 5.687.728s4.86-2.145 4.542-3.248c-.297-1.083-2.844-1.417-5.667-.728-2.821.689-4.859 2.145-4.562 3.248zm-3.162.768c-.317-1.083-2.865-1.418-5.688-.729-2.821.689-4.859 2.145-4.541 3.247.318 1.083 2.865 1.418 5.687.729 2.822-.69 4.861-2.146 4.542-3.247zm2.016-1.851c1.167.295 2.759-1.574 3.522-4.191.765-2.617.425-4.98-.742-5.275-1.189-.294-2.781 1.594-3.545 4.192-.762 2.617-.423 4.979.765 5.274zm-6.875-1.634c2.059 1.909 4.414 2.834 5.284 2.027.87-.788-.106-3.011-2.165-4.921-2.059-1.929-4.415-2.834-5.285-2.047-.869.808.107 3.012 2.166 4.941zm-11.461-6.12c-1.188-.295-2.759 1.594-3.523 4.191-.763 2.618-.424 4.98.744 5.275 1.188.295 2.758-1.575 3.543-4.193.764-2.617.424-4.978-.764-5.273zm1.592-.394c-.871.808.085 3.012 2.143 4.941 2.059 1.909 4.436 2.813 5.305 2.026.871-.787-.106-3.011-2.165-4.919-2.057-1.93-4.413-2.835-5.283-2.048zm.425-1.456c.318 1.083 2.865 1.417 5.687.727 2.823-.687 4.86-2.145 4.541-3.248-.316-1.081-2.864-1.416-5.687-.728-2.823.69-4.86 2.147-4.541 3.249zm-3.162.767c-.318-1.082-2.866-1.416-5.688-.727-2.822.687-4.86 2.145-4.542 3.246.297 1.083 2.844 1.417 5.667.729 2.822-.689 4.86-2.146 4.563-3.248zm1.994-1.851c1.188.295 2.76-1.573 3.543-4.192.766-2.617.426-4.979-.763-5.274-1.167-.294-2.758 1.594-3.523 4.193-.764 2.617-.424 4.979.743 5.273zm-6.876-1.652c2.059 1.928 4.436 2.833 5.307 2.047.869-.808-.107-3.012-2.166-4.941-2.059-1.908-4.436-2.813-5.305-2.026-.849.787.105 3.011 2.164 4.92z" fill-rule="evenodd" clip-rule="evenodd" fill="#ff007a"/><g fill="#fff"><g opacity=".66"><path d="M319.362 185.431c-5.507 0-8.299-1.36-8.299-4.042 0-.775.277-1.716.847-2.877 1.59-3.343 5.938-10.514 12.92-21.307 6.118-9.394 11.735-18.622 16.696-27.429 3.104-5.397 3.755-7.42 3.755-8.168.002-.041-.064-.09-.296-.09-1.878 0-5.18.247-9.815.735-4.236.394-7.625.593-10.079.593-2.913 0-3.524-1.155-3.524-2.124 0-.313.106-.908 1.021-2.467.105-.195.451-.837 1.065-.837.318 0 .744.167.96.959.031.094.595 1.107 8.885 1.107 4.723 0 9.681-.149 14.736-.442 12.093-1.031 16.073-1.416 17.074-1.546a.449.449 0 0 1 .259-.079c5.448 0 9.85.815 13.083 2.423 5.029 2.449 7.581 6.289 7.581 11.412 0 4.958-2.345 9.765-6.969 14.288-4.059 3.89-8.791 6.745-14.067 8.489-5.254 1.737-10.349 2.618-15.143 2.618-2.702 0-5.064-.44-7.021-1.309-.474-.152-.772-.556-.772-1.089 0-.191.082-.816 1.137-.816.234 0 .771.042 2.864.375 1.499.241 2.73.363 3.662.363 4.468 0 8.414-.779 11.727-2.315 5.918-2.792 10.556-7.142 13.78-12.927 1.542-2.765 2.324-5.861 2.324-9.204 0-6.715-4.314-9.98-13.188-9.98-2.912 0-5.277.243-7.031.721-1.151.267-2.117 1.036-2.889 2.289-13.163 20.367-23.472 37.204-30.647 50.052-1.161 1.981-1.747 3.679-1.747 5.054 0 3.03 2.7 4.502 8.254 4.502h2.388c1.169 0 1.295.659 1.295.943 0 .32-.156.886-1.204 1.082a91.469 91.469 0 0 1-13.622 1.043zm62.548 0c-5.295 0-7.98-2.254-7.98-6.699 0-1.218.111-2.346.33-3.354.968-4.289 3.169-8.627 6.542-12.898 3.373-4.268 7.147-7.539 11.218-9.725 2.507-1.313 4.888-1.979 7.08-1.979 3.5 0 5.275 1.062 5.275 3.157 0 2.511-3.017 4.979-9.222 7.547-3.035 1.262-6.523 2.298-10.372 3.083-2.313 4.158-3.485 8.08-3.485 11.659 0 3.736 1.763 5.552 5.389 5.552 1.229 0 2.634-.194 4.177-.576 8.026-1.933 15.592-7.189 22.493-15.625a1.415 1.415 0 0 1 1.183-.626c.594 0 .978.37.978.943 0 .34-.161.662-.478.957-4.012 4.703-8.925 8.859-14.563 12.312-6.732 4.161-12.979 6.272-18.565 6.272zm14.166-32.031c-1.146 0-2.375.556-3.654 1.651-2.246 1.91-4.35 4.359-6.266 7.292 7.519-1.709 11.329-4.238 11.329-7.524 0-1.007-.408-1.419-1.409-1.419z"/><path d="M405.464 184.545c-.781 0-2.092-.352-2.092-2.711 0-.693.39-1.649 1.191-2.921 1.953-3.108 4.585-7.422 7.823-12.821l8.566-14.042c.503-.935 1.133-1.42 1.86-1.42 1.965 0 3.047 1.112 3.047 3.131 0 .502-.211 1.03-.646 1.615a386.376 386.376 0 0 1-2.989 4.914c2.165-1.988 4.773-3.903 7.809-5.75 4.256-2.631 7.519-3.911 9.969-3.911 3.306 0 4 1.396 4 2.566 0 .534-.333 1.132-1.019 1.827-.554.559-1.358 1.719-2.395 3.448-.41.573-.89.686-1.224.686-.401 0-.729-.199-.92-.561-.953-1.499-2.532-2.244-4.811-2.244-2.623 0-5.404 1.25-8.268 3.717-2.399 2.126-4.865 4.906-7.324 8.257-2.464 3.353-6.238 8.591-11.218 15.567-.215.3-.624.653-1.359.653z"/><path d="M339.411 272.52c-4.525 0-8.253-.869-11.082-2.582-3.499-2.03-5.721-5.221-6.598-9.479a.487.487 0 0 1-.01-.101v-.443c0-1.012.626-1.09.818-1.09.336 0 .929.169 1.129 1.299.507 3.278 2.459 5.888 5.804 7.769 2.566 1.427 5.86 2.15 9.787 2.15 11.31 0 23.618-4.341 36.583-12.902 13.003-8.589 25.578-20.864 37.374-36.483 7.488-10.069 16.906-24.849 27.989-43.925a4239.364 4239.364 0 0 1 12.851-21.814 76.228 76.228 0 0 0-.971-.007c-3.025 0-6.822.19-11.283.565a.62.62 0 0 1-.363.138c-.726 0-.982-.479-.982-.89 0-1.119 1.511-1.795 4.898-2.192.877-.088 2.286-.133 4.196-.133h5.924c10.945-18.275 21.397-34.422 31.071-48 7.317-10.247 14.525-18.242 21.423-23.761 6.316-5.074 12.309-7.698 17.811-7.799h.646c2.625 0 4.746.471 6.304 1.399.882.468 1.358 1.284 1.358 2.349v.59a.483.483 0 0 1-.012.108c-.733 3.302-1.212 7.247-1.422 11.724.001.649-.435 1.067-1.135 1.067-.594 0-.978-.37-.978-.943v-.147c0-.066 0-.189.244-1.774.155-1.005.233-1.849.233-2.507 0-3.244-2.807-4.867-8.58-4.961h-1.106c-4.124 0-8.048 1.221-11.66 3.629-5.968 4.005-12.135 10.507-18.33 19.323-4.216 6.098-11.757 19.321-22.409 39.301-.299.558-2.144 3.869-5.797 10.402h13.632c3.229.082 5.741.123 7.48.123.518 0 .906.237 1.094.669a.509.509 0 0 1 .042.2c0 1.028-1.536 1.238-3.842 1.238-2.216 0-5.721.042-10.416.125-4.547.08-7.771.122-9.32.122h-.028c-5.31 9.308-10.297 17.768-14.825 25.15-9.199 15.103-19.228 29.128-29.806 41.686-14.184 16.884-27.983 29.705-41.015 38.107-13.075 8.427-25.429 12.7-36.721 12.7zm139.264-87.089c-5.296 0-7.98-2.254-7.98-6.699 0-1.218.111-2.346.33-3.354.968-4.289 3.169-8.627 6.542-12.898 3.372-4.267 7.146-7.539 11.218-9.725 2.508-1.313 4.888-1.979 7.08-1.979 3.5 0 5.274 1.062 5.274 3.157 0 2.511-3.017 4.979-9.222 7.547-3.033 1.261-6.522 2.298-10.371 3.083-2.313 4.158-3.485 8.08-3.485 11.659 0 3.736 1.763 5.552 5.39 5.552 1.229 0 2.634-.194 4.177-.576 8.026-1.933 15.593-7.189 22.493-15.625a1.413 1.413 0 0 1 1.183-.626c.594 0 .978.37.978.943 0 .34-.161.662-.478.957-4.014 4.704-8.927 8.86-14.563 12.312-6.733 4.161-12.98 6.272-18.566 6.272zM492.84 153.4c-1.146 0-2.374.556-3.653 1.651-2.246 1.91-4.35 4.359-6.266 7.292 7.52-1.709 11.329-4.238 11.329-7.524 0-1.007-.408-1.419-1.41-1.419z"/><path d="M513.052 185.136c-5.929 0-8.936-2.552-8.936-7.585 0-1.734.496-3.739 1.476-5.958 4.384-10.018 11.599-17.059 21.442-20.929 1.349-.521 2.397-.773 3.207-.773 2.638 0 4.663 1.437 6.021 4.269.257.6.367.979.367 1.25 0 .658-.336 1.241-.999 1.73-.063.064-.676.609-1.796 1.597-1.592 1.407-2.133 1.601-2.479 1.601-.473 0-.978-.287-.978-1.09v-.295c0-.035.004-.07.011-.104.099-.462.148-.825.148-1.077 0-1.433-.477-3.338-4.594-3.338-3.71 0-7.31 3.189-10.7 9.479-1.874 3.474-3.033 6.99-3.446 10.45l.004 1.564c0 3.835 1.763 5.7 5.389 5.7 4.004 0 9.147-2.447 15.289-7.273a87.187 87.187 0 0 0 12.504-11.89 1.412 1.412 0 0 1 1.175-.616c.722 0 .978.429.978.795 0 .329-.182.699-.59 1.201-8.834 9.971-17.147 16.473-24.722 19.342-3.442 1.294-6.393 1.95-8.771 1.95z"/><path d="M546.793 184.545c-5.401 0-8.14-2.453-8.14-7.29 0-3.775 3.095-10.842 9.456-21.586l-6.542.387c-1.708 0-1.959-.775-1.959-1.237 0-.781.433-1.423 1.286-1.91.765-.436 1.785-.656 3.033-.656h6.245c3.554-5.804 7.581-11.841 11.971-17.948 1.209-1.733 2.614-2.981 4.175-3.704 3.811-1.818 6.432-2.703 8.009-2.703.473 0 .978.287.978 1.09 0 .519-.304.908-.832 1.069-2.334.659-4.014 1.643-5.001 2.926-4.976 6.404-9.416 12.882-13.208 19.27h17.427c.085 0 .169.022.243.063.728.406 1.053.65 1.053 1.027 0 .868-.484 1.386-1.296 1.386-8.257.191-14.688.478-19.112.852-5.573 9.785-8.399 16.748-8.399 20.697 0 3.146 1.51 4.611 4.752 4.611 2.978 0 7.182-1.469 12.494-4.367.311-.144.595-.208.876-.208.593 0 .977.37.977.943 0 .382-.24.724-.714 1.016-7.059 4.164-13.036 6.272-17.772 6.272zm-44.564 91.945c-.911 0-1.455-.518-1.455-1.386 0-.31.136-.647.414-1.031.466-.696.76-1.855.86-3.429 1.161-14.408 1.75-30.138 1.75-46.759 0-.714-.106-1.566-.614-1.566-.398 0-.819.204-1.251.606-5.108 4.356-13.727 11.973-25.632 22.653-11.921 10.693-21.603 19.995-28.777 27.646-.813.862-1.757 1.41-2.81 1.628-2.558.396-3.001.527-3.077.558-2.832.97-3.652 1.081-4.027 1.081-.7 0-1.136-.418-1.137-1.091a.5.5 0 0 1 .294-.456c.366-.608 1.607-3.154 5.637-12.466 2.017-4.642 5.279-13.095 9.697-25.125 4.946-13.502 7.507-21.417 7.61-23.525.039-.553-.065-.96-.309-1.222-.292-.313-.823-.473-1.579-.473-1.016 0-2.509.195-4.438.581-2.013.404-3.269.6-3.838.6-1.202 0-1.296-.834-1.296-1.09 0-.302.117-1.027 1.204-1.23 3.887-.681 10.042-1.823 18.301-3.395 2.159-.429 3.043-.634 3.403-.73a.45.45 0 0 1 .354-.165c1.2.001 1.294.835 1.294 1.091 0 .57-.247 1.023-.716 1.311-.462.335-1.798 2.199-5.209 10.684-5.484 13.692-10.72 28.604-15.562 44.318v.145a.561.561 0 0 0 .273-.144c14.504-13.057 35.068-31.235 61.129-54.034a2.065 2.065 0 0 1 1.442-.566c1.601 0 1.773.969 1.773 1.386 0 .428-.194 1.011-1.122 1.354-.676.234-1.088.925-1.271 2.116-1.159 8.199-1.854 17.714-2.063 28.274v7.223c0 7.281.052 12.248.159 15.186 0 .282.039.435.069.504.065-.064.167-.174.315-.357 13.111-14.515 22.755-24.949 28.679-31.032 10.996-11.375 21.397-21.17 30.915-29.114 5.582-4.68 10.295-7.054 14.008-7.054.996 0 2.17.206 3.49.612 1.24.361 2.899.99 2.899 2.249 0 .456-.299.943-1.137.943-.247 0-.579-.048-1.013-.147h-1.057c-4.321 0-10.644 3.242-18.791 9.636-9.699 7.625-19.535 16.549-29.235 26.524-12.864 13.201-22.537 24.648-28.749 34.025-.714.993-2.04 1.824-4.067 2.556-3.265 1.089-4.266 1.503-4.533 1.659-.517.3-.899.438-1.204.438zm-9.349-53.766a.5.5 0 1 1 0-1 .5.5 0 0 1 0 1zm67.76 51.995c-5.296 0-7.98-2.254-7.98-6.699 0-1.218.111-2.346.33-3.354.968-4.289 3.169-8.627 6.542-12.898 3.372-4.267 7.146-7.539 11.218-9.725 2.508-1.313 4.888-1.979 7.08-1.979 3.5 0 5.274 1.062 5.274 3.157 0 2.511-3.017 4.979-9.222 7.547-3.033 1.261-6.522 2.298-10.371 3.083-2.313 4.158-3.485 8.08-3.485 11.659 0 3.736 1.763 5.552 5.39 5.552 1.229 0 2.634-.194 4.177-.576 8.026-1.933 15.593-7.189 22.493-15.625a1.413 1.413 0 0 1 1.183-.626c.594 0 .978.37.978.943 0 .34-.161.662-.478.957-4.014 4.704-8.927 8.86-14.563 12.312-6.733 4.161-12.98 6.272-18.566 6.272zm14.165-32.031c-1.146 0-2.374.556-3.653 1.651-2.246 1.91-4.35 4.359-6.266 7.292 7.52-1.709 11.329-4.238 11.329-7.524 0-1.008-.408-1.419-1.41-1.419z"/><path d="M608.386 279.737c-2.914 0-6.389-1.265-6.389-7.29 0-2.219.547-4.787 1.624-7.631.808-2.136 1.933-4.766 3.356-7.844-2.625 2.808-6.195 6.382-10.659 10.67-2.973 2.451-5.596 3.682-7.827 3.682-2.618 0-4.002-1.347-4.002-3.895 0-1.96.885-4.288 2.63-6.919 7.634-11.601 17.522-18.514 29.392-20.548 9.17-15.324 18.678-28.688 28.264-39.727 9.336-10.924 18.071-18.22 25.96-21.681 3.334-1.496 6.348-2.256 8.955-2.256 1.108 0 4.479 0 4.479 1.976 0 .289-.122.783-1.029 2.255-.771 1.251-1.007 1.723-1.068 1.897-.35 1.126-1.056 1.367-1.586 1.367-.143 0-.408 0-2.63-.766-1.375-.471-2.632-.71-3.736-.71-3.604 0-6.783.82-9.45 2.437-4.806 2.906-10.327 8.524-16.41 16.698-17.51 23.38-30.716 45.346-39.254 65.289-1.135 2.676-1.711 4.994-1.711 6.888 0 2.86 1.531 3.19 2.684 3.19 1.702 0 3.922-.772 6.597-2.296 6.9-3.877 13.911-11.173 20.838-21.687.322-.449.673-.667 1.055-.667.594 0 .978.37.978.942 0 .276-.073.554-.218.826-7.034 10.582-14.209 18.131-21.35 22.481-3.566 2.202-6.761 3.319-9.493 3.319zm6.457-36.848c-4.771.402-8.954 2.608-12.448 6.567-6.571 7.353-9.902 13.001-9.902 16.792 0 .533.157.533.296.533.313 0 .694-.166 1.135-.492 4.4-3.4 9.676-8.739 15.672-15.861 2.239-2.77 4.003-5.303 5.247-7.539z"/><path d="M652.472 279.737c-2.914 0-6.389-1.265-6.389-7.29 0-2.219.547-4.787 1.624-7.631.808-2.136 1.933-4.766 3.356-7.844-2.625 2.808-6.195 6.382-10.659 10.67-2.973 2.451-5.596 3.682-7.827 3.682-2.618 0-4.002-1.347-4.002-3.895 0-1.96.885-4.288 2.63-6.919 7.634-11.601 17.522-18.514 29.392-20.548 9.17-15.324 18.678-28.688 28.264-39.727 9.336-10.924 18.071-18.22 25.96-21.681 3.334-1.496 6.348-2.256 8.955-2.256 1.108 0 4.479 0 4.479 1.976 0 .289-.122.783-1.029 2.255-.771 1.251-1.007 1.723-1.068 1.897-.35 1.126-1.056 1.367-1.586 1.367-.143 0-.408 0-2.63-.766-1.375-.471-2.632-.71-3.736-.71-3.604 0-6.783.82-9.45 2.437-4.806 2.906-10.327 8.524-16.41 16.698-17.51 23.38-30.716 45.346-39.254 65.289-1.135 2.676-1.711 4.994-1.711 6.888 0 2.86 1.531 3.19 2.684 3.19 1.702 0 3.922-.772 6.597-2.296 6.9-3.877 13.911-11.173 20.838-21.687.322-.449.673-.667 1.055-.667.594 0 .978.37.978.942 0 .276-.073.554-.218.826-7.034 10.582-14.209 18.131-21.35 22.481-3.567 2.202-6.761 3.319-9.493 3.319zm6.457-36.848c-4.771.402-8.954 2.608-12.448 6.567-6.571 7.353-9.902 13.001-9.902 16.792 0 .533.157.533.296.533.313 0 .694-.166 1.135-.492 4.4-3.4 9.676-8.739 15.672-15.861 2.239-2.77 4.003-5.303 5.247-7.539z"/><path d="M681.278 273.686c-4.979 0-7.503-1.857-7.503-5.519 0-1.648.606-3.709 1.803-6.126 3.073-6.389 6.892-12.625 11.349-18.53 1.469-1.991 3.211-3.003 5.175-3.003 1.011 0 1.614.518 1.614 1.386 0 .49-.188 1.029-.558 1.6-5.681 8.195-9.514 15.547-11.4 21.865-.303 1.031-.457 1.828-.457 2.366 0 1.975 1.055 2.895 3.32 2.895 2.033 0 4.365-.676 6.932-2.01 7.435-3.788 13.857-9.105 19.095-15.806.298-.416.648-.634 1.03-.634.378 0 .818.247.818.942 0 .433-.165.815-.479 1.105-5.171 6.17-11.21 11.372-17.906 15.413-4.409 2.69-8.727 4.056-12.833 4.056zm17.868-47.53c-1.581 0-2.452-.807-2.452-2.271 0-1.403.592-2.758 1.759-4.028 1.177-1.283 2.56-1.933 4.108-1.933 1.686 0 2.613.859 2.613 2.419 0 1.314-.652 2.625-1.938 3.898-1.285 1.271-2.661 1.915-4.09 1.915z"/><path d="M721.546 276.195c-4.492 0-5.435-2.611-5.435-4.801 0-2.362 1.151-5.348 3.422-8.875 3.962-6.219 6.72-11.35 8.197-15.25v-.291c-.107.011-.146.029-.146.029-5.487 3.335-10.366 7.267-14.55 11.722-2.129 3.546-5.553 8.754-10.176 15.479-.563.657-1.052.955-1.526.955-.431 0-.818-.356-1.381-1.271-.693-1.178-1.028-2.129-1.028-2.918 0-.887.296-1.776.881-2.642 1.894-2.537 4.674-6.503 8.276-11.81 1.873-3.479 4.767-8.696 8.573-15.463.425-.659 1.011-.993 1.709-.993.543 0 1.163.275 1.897.843.773.599 1.149 1.163 1.149 1.724 0 .398-.183.874-.558 1.453-1.156 1.897-2.671 4.74-4.508 8.461 5.904-4.871 12.005-9.14 18.161-12.708a2.298 2.298 0 0 1 1.206-.362c2.097 0 2.41 1.331 2.41 2.124 0 .611-.294 1.29-.899 2.077-6.091 8.376-10.462 15.936-12.981 22.459-.4 1.021-.603 1.902-.603 2.624 0 2.177 1.055 3.19 3.319 3.19 1.299 0 2.724-.38 4.233-1.129 8.378-4.079 15.652-10.285 21.625-18.446.073-.149.361-.5 1.04-.5.594 0 .978.371.978.945 0 .308-.135.646-.411 1.033-6.288 8.155-13.518 14.448-21.499 18.719-4.403 2.402-8.232 3.622-11.375 3.622z"/><path d="M685.099 350.885c-3.506 0-7.283-.351-11.228-1.041-5.367-.998-10.126-3.092-14.148-6.225-4.042-3.149-6.697-6.836-7.892-10.956-.541-1.911-.815-3.745-.815-5.454 0-2.116.387-4.165 1.149-6.089.379-.872.894-1.052 1.261-1.052.378 0 .818.246.818.941v.443c0 .058-.01.115-.029.169a15.609 15.609 0 0 0-.926 5.292c0 1.708.313 3.491.929 5.302 1.232 3.522 3.718 6.696 7.385 9.428 3.68 2.74 7.805 4.421 12.26 4.997 2.101.292 4.326.439 6.62.439 18.523 0 36.165-11.501 52.436-34.184 4.206-5.851 8.642-12.839 13.183-20.771 2.765-4.834 6.94-12.233 12.411-21.989a986.04 986.04 0 0 1 5.249-9.273c-2.373 2.666-5.404 5.963-9.063 9.86-2.755 2.657-5.281 3.995-7.526 3.995-1.753 0-3.843-.727-3.843-4.19 0-1.238.332-2.738.985-4.458 1.813-4.855 4.863-9.75 9.064-14.543 4.204-4.8 8.665-8.342 13.259-10.528 2.598-1.208 5.232-1.82 7.837-1.82.525 0 1.015-.008 1.467-.026l5.316-8.176c.842-1.428 1.666-2.13 2.506-2.13 1.503 0 2.266 1.459 2.266 4.338 0 .971-.292 1.951-.867 2.913-4.856 8.519-12.09 20.444-21.491 35.435-6.465 10.024-15.622 24.326-27.219 42.514-7.635 11.898-14.79 20.677-21.27 26.094-8.756 7.131-18.875 10.745-30.084 10.745zm88.332-108.64c-3.372 0-5.895.612-7.497 1.818-6.982 5.317-11.956 13.371-14.778 23.937-.287 1.059-.302 1.308-.302 1.347 0 .681.192.681.296.681.225 0 .92-.173 2.511-1.771 6.999-6.967 13.894-15.693 20.502-25.948-.34-.033-.66-.062-.732-.064zm14.325 35.131c-2.305 0-4.743-.717-7.249-2.131-2.911-1.557-4.393-3.443-4.393-5.602 0-.811.311-1.569.924-2.253.55-.613 1.456-1.406 2.772-2.423.271-.255.707-.399 1.26-.399.245 0 .659.167.659.795 0 .378-.127.806-.379 1.271-.17.315-.257.632-.257.943 0 .799.462 2.06 1.372 3.748 1.296 2.406 3.494 3.575 6.722 3.575 3.571 0 6.3-1.427 8.344-4.362 1.749-2.48 2.897-5.634 3.417-9.377.103-.771.369-4.881.792-12.211.222-3.002 2.111-5.808 5.617-8.347 3.946-2.845 6.697-4.228 8.41-4.228 2.513 0 2.888 1.331 2.888 2.124 0 1.94-1.025 3.009-2.888 3.009-.376 0-.916-.103-1.65-.315-.645-.183-1.161-.275-1.533-.275-1.98 0-3.175 1.031-3.649 3.152-.207.951-.524 5.344-.944 13.055-.324 6.609-2.528 11.599-6.553 14.828-4.421 3.597-9.026 5.423-13.682 5.423z"/></g><path d="M319.362 185.431c-5.507 0-8.299-1.36-8.299-4.042 0-.775.277-1.716.847-2.877 1.59-3.343 5.938-10.514 12.92-21.307 6.118-9.394 11.735-18.622 16.696-27.429 3.104-5.397 3.755-7.42 3.755-8.168.002-.041-.064-.09-.296-.09-1.878 0-5.18.247-9.815.735-4.236.394-7.625.593-10.079.593-2.913 0-3.524-1.155-3.524-2.124 0-.313.106-.908 1.021-2.467.105-.195.451-.837 1.065-.837.318 0 .744.167.96.959.031.094.595 1.107 8.885 1.107 4.723 0 9.681-.149 14.736-.442 12.093-1.031 16.073-1.416 17.074-1.546a.449.449 0 0 1 .259-.079c5.448 0 9.85.815 13.083 2.423 5.029 2.449 7.581 6.289 7.581 11.412 0 4.958-2.345 9.765-6.969 14.288-4.059 3.89-8.791 6.745-14.067 8.489-5.254 1.737-10.349 2.618-15.143 2.618-2.702 0-5.064-.44-7.021-1.309-.474-.152-.772-.556-.772-1.089 0-.191.082-.816 1.137-.816.234 0 .771.042 2.864.375 1.499.241 2.73.363 3.662.363 4.468 0 8.414-.779 11.727-2.315 5.918-2.792 10.556-7.142 13.78-12.927 1.542-2.765 2.324-5.861 2.324-9.204 0-6.715-4.314-9.98-13.188-9.98-2.912 0-5.277.243-7.031.721-1.151.267-2.117 1.036-2.889 2.289-13.163 20.367-23.472 37.204-30.647 50.052-1.161 1.981-1.747 3.679-1.747 5.054 0 3.03 2.7 4.502 8.254 4.502h2.388c1.169 0 1.295.659 1.295.943 0 .32-.156.886-1.204 1.082a91.469 91.469 0 0 1-13.622 1.043zm62.548 0c-5.295 0-7.98-2.254-7.98-6.699 0-1.218.111-2.346.33-3.354.968-4.289 3.169-8.627 6.542-12.898 3.373-4.268 7.147-7.539 11.218-9.725 2.507-1.313 4.888-1.979 7.08-1.979 3.5 0 5.275 1.062 5.275 3.157 0 2.511-3.017 4.979-9.222 7.547-3.035 1.262-6.523 2.298-10.372 3.083-2.313 4.158-3.485 8.08-3.485 11.659 0 3.736 1.763 5.552 5.389 5.552 1.229 0 2.634-.194 4.177-.576 8.026-1.933 15.592-7.189 22.493-15.625a1.415 1.415 0 0 1 1.183-.626c.594 0 .978.37.978.943 0 .34-.161.662-.478.957-4.012 4.703-8.925 8.859-14.563 12.312-6.732 4.161-12.979 6.272-18.565 6.272zm14.166-32.031c-1.146 0-2.375.556-3.654 1.651-2.246 1.91-4.35 4.359-6.266 7.292 7.519-1.709 11.329-4.238 11.329-7.524 0-1.007-.408-1.419-1.409-1.419z"/><path d="M405.464 184.545c-.781 0-2.092-.352-2.092-2.711 0-.693.39-1.649 1.191-2.921 1.953-3.108 4.585-7.422 7.823-12.821l8.566-14.042c.503-.935 1.133-1.42 1.86-1.42 1.965 0 3.047 1.112 3.047 3.131 0 .502-.211 1.03-.646 1.615a386.376 386.376 0 0 1-2.989 4.914c2.165-1.988 4.773-3.903 7.809-5.75 4.256-2.631 7.519-3.911 9.969-3.911 3.306 0 4 1.396 4 2.566 0 .534-.333 1.132-1.019 1.827-.554.559-1.358 1.719-2.395 3.448-.41.573-.89.686-1.224.686-.401 0-.729-.199-.92-.561-.953-1.499-2.532-2.244-4.811-2.244-2.623 0-5.404 1.25-8.268 3.717-2.399 2.126-4.865 4.906-7.324 8.257-2.464 3.353-6.238 8.591-11.218 15.567-.215.3-.624.653-1.359.653z"/><path d="M339.411 272.52c-4.525 0-8.253-.869-11.082-2.582-3.499-2.03-5.721-5.221-6.598-9.479a.487.487 0 0 1-.01-.101v-.443c0-1.012.626-1.09.818-1.09.336 0 .929.169 1.129 1.299.507 3.278 2.459 5.888 5.804 7.769 2.566 1.427 5.86 2.15 9.787 2.15 11.31 0 23.618-4.341 36.583-12.902 13.003-8.589 25.578-20.864 37.374-36.483 7.488-10.069 16.906-24.849 27.989-43.925a4239.364 4239.364 0 0 1 12.851-21.814 76.228 76.228 0 0 0-.971-.007c-3.025 0-6.822.19-11.283.565a.62.62 0 0 1-.363.138c-.726 0-.982-.479-.982-.89 0-1.119 1.511-1.795 4.898-2.192.877-.088 2.286-.133 4.196-.133h5.924c10.945-18.275 21.397-34.422 31.071-48 7.317-10.247 14.525-18.242 21.423-23.761 6.316-5.074 12.309-7.698 17.811-7.799h.646c2.625 0 4.746.471 6.304 1.399.882.468 1.358 1.284 1.358 2.349v.59a.483.483 0 0 1-.012.108c-.733 3.302-1.212 7.247-1.422 11.724.001.649-.435 1.067-1.135 1.067-.594 0-.978-.37-.978-.943v-.147c0-.066 0-.189.244-1.774.155-1.005.233-1.849.233-2.507 0-3.244-2.807-4.867-8.58-4.961h-1.106c-4.124 0-8.048 1.221-11.66 3.629-5.968 4.005-12.135 10.507-18.33 19.323-4.216 6.098-11.757 19.321-22.409 39.301-.299.558-2.144 3.869-5.797 10.402h13.632c3.229.082 5.741.123 7.48.123.518 0 .906.237 1.094.669a.509.509 0 0 1 .042.2c0 1.028-1.536 1.238-3.842 1.238-2.216 0-5.721.042-10.416.125-4.547.08-7.771.122-9.32.122h-.028c-5.31 9.308-10.297 17.768-14.825 25.15-9.199 15.103-19.228 29.128-29.806 41.686-14.184 16.884-27.983 29.705-41.015 38.107-13.075 8.427-25.429 12.7-36.721 12.7zm139.264-87.089c-5.296 0-7.98-2.254-7.98-6.699 0-1.218.111-2.346.33-3.354.968-4.289 3.169-8.627 6.542-12.898 3.372-4.267 7.146-7.539 11.218-9.725 2.508-1.313 4.888-1.979 7.08-1.979 3.5 0 5.274 1.062 5.274 3.157 0 2.511-3.017 4.979-9.222 7.547-3.033 1.261-6.522 2.298-10.371 3.083-2.313 4.158-3.485 8.08-3.485 11.659 0 3.736 1.763 5.552 5.39 5.552 1.229 0 2.634-.194 4.177-.576 8.026-1.933 15.593-7.189 22.493-15.625a1.413 1.413 0 0 1 1.183-.626c.594 0 .978.37.978.943 0 .34-.161.662-.478.957-4.014 4.704-8.927 8.86-14.563 12.312-6.733 4.161-12.98 6.272-18.566 6.272zM492.84 153.4c-1.146 0-2.374.556-3.653 1.651-2.246 1.91-4.35 4.359-6.266 7.292 7.52-1.709 11.329-4.238 11.329-7.524 0-1.007-.408-1.419-1.41-1.419z"/><path d="M513.052 185.136c-5.929 0-8.936-2.552-8.936-7.585 0-1.734.496-3.739 1.476-5.958 4.384-10.018 11.599-17.059 21.442-20.929 1.349-.521 2.397-.773 3.207-.773 2.638 0 4.663 1.437 6.021 4.269.257.6.367.979.367 1.25 0 .658-.336 1.241-.999 1.73-.063.064-.676.609-1.796 1.597-1.592 1.407-2.133 1.601-2.479 1.601-.473 0-.978-.287-.978-1.09v-.295c0-.035.004-.07.011-.104.099-.462.148-.825.148-1.077 0-1.433-.477-3.338-4.594-3.338-3.71 0-7.31 3.189-10.7 9.479-1.874 3.474-3.033 6.99-3.446 10.45l.004 1.564c0 3.835 1.763 5.7 5.389 5.7 4.004 0 9.147-2.447 15.289-7.273a87.187 87.187 0 0 0 12.504-11.89 1.412 1.412 0 0 1 1.175-.616c.722 0 .978.429.978.795 0 .329-.182.699-.59 1.201-8.834 9.971-17.147 16.473-24.722 19.342-3.442 1.294-6.393 1.95-8.771 1.95z"/><path d="M546.793 184.545c-5.401 0-8.14-2.453-8.14-7.29 0-3.775 3.095-10.842 9.456-21.586l-6.542.387c-1.708 0-1.959-.775-1.959-1.237 0-.781.433-1.423 1.286-1.91.765-.436 1.785-.656 3.033-.656h6.245c3.554-5.804 7.581-11.841 11.971-17.948 1.209-1.733 2.614-2.981 4.175-3.704 3.811-1.818 6.432-2.703 8.009-2.703.473 0 .978.287.978 1.09 0 .519-.304.908-.832 1.069-2.334.659-4.014 1.643-5.001 2.926-4.976 6.404-9.416 12.882-13.208 19.27h17.427c.085 0 .169.022.243.063.728.406 1.053.65 1.053 1.027 0 .868-.484 1.386-1.296 1.386-8.257.191-14.688.478-19.112.852-5.573 9.785-8.399 16.748-8.399 20.697 0 3.146 1.51 4.611 4.752 4.611 2.978 0 7.182-1.469 12.494-4.367.311-.144.595-.208.876-.208.593 0 .977.37.977.943 0 .382-.24.724-.714 1.016-7.059 4.164-13.036 6.272-17.772 6.272zm-44.564 91.945c-.911 0-1.455-.518-1.455-1.386 0-.31.136-.647.414-1.031.466-.696.76-1.855.86-3.429 1.161-14.408 1.75-30.138 1.75-46.759 0-.714-.106-1.566-.614-1.566-.398 0-.819.204-1.251.606-5.108 4.356-13.727 11.973-25.632 22.653-11.921 10.693-21.603 19.995-28.777 27.646-.813.862-1.757 1.41-2.81 1.628-2.558.396-3.001.527-3.077.558-2.832.97-3.652 1.081-4.027 1.081-.7 0-1.136-.418-1.137-1.091a.5.5 0 0 1 .294-.456c.366-.608 1.607-3.154 5.637-12.466 2.017-4.642 5.279-13.095 9.697-25.125 4.946-13.502 7.507-21.417 7.61-23.525.039-.553-.065-.96-.309-1.222-.292-.313-.823-.473-1.579-.473-1.016 0-2.509.195-4.438.581-2.013.404-3.269.6-3.838.6-1.202 0-1.296-.834-1.296-1.09 0-.302.117-1.027 1.204-1.23 3.887-.681 10.042-1.823 18.301-3.395 2.159-.429 3.043-.634 3.403-.73a.45.45 0 0 1 .354-.165c1.2.001 1.294.835 1.294 1.091 0 .57-.247 1.023-.716 1.311-.462.335-1.798 2.199-5.209 10.684-5.484 13.692-10.72 28.604-15.562 44.318v.145a.561.561 0 0 0 .273-.144c14.504-13.057 35.068-31.235 61.129-54.034a2.065 2.065 0 0 1 1.442-.566c1.601 0 1.773.969 1.773 1.386 0 .428-.194 1.011-1.122 1.354-.676.234-1.088.925-1.271 2.116-1.159 8.199-1.854 17.714-2.063 28.274v7.223c0 7.281.052 12.248.159 15.186 0 .282.039.435.069.504.065-.064.167-.174.315-.357 13.111-14.515 22.755-24.949 28.679-31.032 10.996-11.375 21.397-21.17 30.915-29.114 5.582-4.68 10.295-7.054 14.008-7.054.996 0 2.17.206 3.49.612 1.24.361 2.899.99 2.899 2.249 0 .456-.299.943-1.137.943-.247 0-.579-.048-1.013-.147h-1.057c-4.321 0-10.644 3.242-18.791 9.636-9.699 7.625-19.535 16.549-29.235 26.524-12.864 13.201-22.537 24.648-28.749 34.025-.714.993-2.04 1.824-4.067 2.556-3.265 1.089-4.266 1.503-4.533 1.659-.517.3-.899.438-1.204.438zm-9.349-53.766a.5.5 0 1 1 0-1 .5.5 0 0 1 0 1zm67.76 51.995c-5.296 0-7.98-2.254-7.98-6.699 0-1.218.111-2.346.33-3.354.968-4.289 3.169-8.627 6.542-12.898 3.372-4.267 7.146-7.539 11.218-9.725 2.508-1.313 4.888-1.979 7.08-1.979 3.5 0 5.274 1.062 5.274 3.157 0 2.511-3.017 4.979-9.222 7.547-3.033 1.261-6.522 2.298-10.371 3.083-2.313 4.158-3.485 8.08-3.485 11.659 0 3.736 1.763 5.552 5.39 5.552 1.229 0 2.634-.194 4.177-.576 8.026-1.933 15.593-7.189 22.493-15.625a1.413 1.413 0 0 1 1.183-.626c.594 0 .978.37.978.943 0 .34-.161.662-.478.957-4.014 4.704-8.927 8.86-14.563 12.312-6.733 4.161-12.98 6.272-18.566 6.272zm14.165-32.031c-1.146 0-2.374.556-3.653 1.651-2.246 1.91-4.35 4.359-6.266 7.292 7.52-1.709 11.329-4.238 11.329-7.524 0-1.008-.408-1.419-1.41-1.419z"/><path d="M608.386 279.737c-2.914 0-6.389-1.265-6.389-7.29 0-2.219.547-4.787 1.624-7.631.808-2.136 1.933-4.766 3.356-7.844-2.625 2.808-6.195 6.382-10.659 10.67-2.973 2.451-5.596 3.682-7.827 3.682-2.618 0-4.002-1.347-4.002-3.895 0-1.96.885-4.288 2.63-6.919 7.634-11.601 17.522-18.514 29.392-20.548 9.17-15.324 18.678-28.688 28.264-39.727 9.336-10.924 18.071-18.22 25.96-21.681 3.334-1.496 6.348-2.256 8.955-2.256 1.108 0 4.479 0 4.479 1.976 0 .289-.122.783-1.029 2.255-.771 1.251-1.007 1.723-1.068 1.897-.35 1.126-1.056 1.367-1.586 1.367-.143 0-.408 0-2.63-.766-1.375-.471-2.632-.71-3.736-.71-3.604 0-6.783.82-9.45 2.437-4.806 2.906-10.327 8.524-16.41 16.698-17.51 23.38-30.716 45.346-39.254 65.289-1.135 2.676-1.711 4.994-1.711 6.888 0 2.86 1.531 3.19 2.684 3.19 1.702 0 3.922-.772 6.597-2.296 6.9-3.877 13.911-11.173 20.838-21.687.322-.449.673-.667 1.055-.667.594 0 .978.37.978.942 0 .276-.073.554-.218.826-7.034 10.582-14.209 18.131-21.35 22.481-3.566 2.202-6.761 3.319-9.493 3.319zm6.457-36.848c-4.771.402-8.954 2.608-12.448 6.567-6.571 7.353-9.902 13.001-9.902 16.792 0 .533.157.533.296.533.313 0 .694-.166 1.135-.492 4.4-3.4 9.676-8.739 15.672-15.861 2.239-2.77 4.003-5.303 5.247-7.539z"/><path d="M652.472 279.737c-2.914 0-6.389-1.265-6.389-7.29 0-2.219.547-4.787 1.624-7.631.808-2.136 1.933-4.766 3.356-7.844-2.625 2.808-6.195 6.382-10.659 10.67-2.973 2.451-5.596 3.682-7.827 3.682-2.618 0-4.002-1.347-4.002-3.895 0-1.96.885-4.288 2.63-6.919 7.634-11.601 17.522-18.514 29.392-20.548 9.17-15.324 18.678-28.688 28.264-39.727 9.336-10.924 18.071-18.22 25.96-21.681 3.334-1.496 6.348-2.256 8.955-2.256 1.108 0 4.479 0 4.479 1.976 0 .289-.122.783-1.029 2.255-.771 1.251-1.007 1.723-1.068 1.897-.35 1.126-1.056 1.367-1.586 1.367-.143 0-.408 0-2.63-.766-1.375-.471-2.632-.71-3.736-.71-3.604 0-6.783.82-9.45 2.437-4.806 2.906-10.327 8.524-16.41 16.698-17.51 23.38-30.716 45.346-39.254 65.289-1.135 2.676-1.711 4.994-1.711 6.888 0 2.86 1.531 3.19 2.684 3.19 1.702 0 3.922-.772 6.597-2.296 6.9-3.877 13.911-11.173 20.838-21.687.322-.449.673-.667 1.055-.667.594 0 .978.37.978.942 0 .276-.073.554-.218.826-7.034 10.582-14.209 18.131-21.35 22.481-3.567 2.202-6.761 3.319-9.493 3.319zm6.457-36.848c-4.771.402-8.954 2.608-12.448 6.567-6.571 7.353-9.902 13.001-9.902 16.792 0 .533.157.533.296.533.313 0 .694-.166 1.135-.492 4.4-3.4 9.676-8.739 15.672-15.861 2.239-2.77 4.003-5.303 5.247-7.539z"/><path d="M681.278 273.686c-4.979 0-7.503-1.857-7.503-5.519 0-1.648.606-3.709 1.803-6.126 3.073-6.389 6.892-12.625 11.349-18.53 1.469-1.991 3.211-3.003 5.175-3.003 1.011 0 1.614.518 1.614 1.386 0 .49-.188 1.029-.558 1.6-5.681 8.195-9.514 15.547-11.4 21.865-.303 1.031-.457 1.828-.457 2.366 0 1.975 1.055 2.895 3.32 2.895 2.033 0 4.365-.676 6.932-2.01 7.435-3.788 13.857-9.105 19.095-15.806.298-.416.648-.634 1.03-.634.378 0 .818.247.818.942 0 .433-.165.815-.479 1.105-5.171 6.17-11.21 11.372-17.906 15.413-4.409 2.69-8.727 4.056-12.833 4.056zm17.868-47.53c-1.581 0-2.452-.807-2.452-2.271 0-1.403.592-2.758 1.759-4.028 1.177-1.283 2.56-1.933 4.108-1.933 1.686 0 2.613.859 2.613 2.419 0 1.314-.652 2.625-1.938 3.898-1.285 1.271-2.661 1.915-4.09 1.915z"/><path d="M721.546 276.195c-4.492 0-5.435-2.611-5.435-4.801 0-2.362 1.151-5.348 3.422-8.875 3.962-6.219 6.72-11.35 8.197-15.25v-.291c-.107.011-.146.029-.146.029-5.487 3.335-10.366 7.267-14.55 11.722-2.129 3.546-5.553 8.754-10.176 15.479-.563.657-1.052.955-1.526.955-.431 0-.818-.356-1.381-1.271-.693-1.178-1.028-2.129-1.028-2.918 0-.887.296-1.776.881-2.642 1.894-2.537 4.674-6.503 8.276-11.81 1.873-3.479 4.767-8.696 8.573-15.463.425-.659 1.011-.993 1.709-.993.543 0 1.163.275 1.897.843.773.599 1.149 1.163 1.149 1.724 0 .398-.183.874-.558 1.453-1.156 1.897-2.671 4.74-4.508 8.461 5.904-4.871 12.005-9.14 18.161-12.708a2.298 2.298 0 0 1 1.206-.362c2.097 0 2.41 1.331 2.41 2.124 0 .611-.294 1.29-.899 2.077-6.091 8.376-10.462 15.936-12.981 22.459-.4 1.021-.603 1.902-.603 2.624 0 2.177 1.055 3.19 3.319 3.19 1.299 0 2.724-.38 4.233-1.129 8.378-4.079 15.652-10.285 21.625-18.446.073-.149.361-.5 1.04-.5.594 0 .978.371.978.945 0 .308-.135.646-.411 1.033-6.288 8.155-13.518 14.448-21.499 18.719-4.403 2.402-8.232 3.622-11.375 3.622z"/><path d="M685.099 350.885c-3.506 0-7.283-.351-11.228-1.041-5.367-.998-10.126-3.092-14.148-6.225-4.042-3.149-6.697-6.836-7.892-10.956-.541-1.911-.815-3.745-.815-5.454 0-2.116.387-4.165 1.149-6.089.379-.872.894-1.052 1.261-1.052.378 0 .818.246.818.941v.443c0 .058-.01.115-.029.169a15.609 15.609 0 0 0-.926 5.292c0 1.708.313 3.491.929 5.302 1.232 3.522 3.718 6.696 7.385 9.428 3.68 2.74 7.805 4.421 12.26 4.997 2.101.292 4.326.439 6.62.439 18.523 0 36.165-11.501 52.436-34.184 4.206-5.851 8.642-12.839 13.183-20.771 2.765-4.834 6.94-12.233 12.411-21.989a986.04 986.04 0 0 1 5.249-9.273c-2.373 2.666-5.404 5.963-9.063 9.86-2.755 2.657-5.281 3.995-7.526 3.995-1.753 0-3.843-.727-3.843-4.19 0-1.238.332-2.738.985-4.458 1.813-4.855 4.863-9.75 9.064-14.543 4.204-4.8 8.665-8.342 13.259-10.528 2.598-1.208 5.232-1.82 7.837-1.82.525 0 1.015-.008 1.467-.026l5.316-8.176c.842-1.428 1.666-2.13 2.506-2.13 1.503 0 2.266 1.459 2.266 4.338 0 .971-.292 1.951-.867 2.913-4.856 8.519-12.09 20.444-21.491 35.435-6.465 10.024-15.622 24.326-27.219 42.514-7.635 11.898-14.79 20.677-21.27 26.094-8.756 7.131-18.875 10.745-30.084 10.745zm88.332-108.64c-3.372 0-5.895.612-7.497 1.818-6.982 5.317-11.956 13.371-14.778 23.937-.287 1.059-.302 1.308-.302 1.347 0 .681.192.681.296.681.225 0 .92-.173 2.511-1.771 6.999-6.967 13.894-15.693 20.502-25.948-.34-.033-.66-.062-.732-.064zm14.325 35.131c-2.305 0-4.743-.717-7.249-2.131-2.911-1.557-4.393-3.443-4.393-5.602 0-.811.311-1.569.924-2.253.55-.613 1.456-1.406 2.772-2.423.271-.255.707-.399 1.26-.399.245 0 .659.167.659.795 0 .378-.127.806-.379 1.271-.17.315-.257.632-.257.943 0 .799.462 2.06 1.372 3.748 1.296 2.406 3.494 3.575 6.722 3.575 3.571 0 6.3-1.427 8.344-4.362 1.749-2.48 2.897-5.634 3.417-9.377.103-.771.369-4.881.792-12.211.222-3.002 2.111-5.808 5.617-8.347 3.946-2.845 6.697-4.228 8.41-4.228 2.513 0 2.888 1.331 2.888 2.124 0 1.94-1.025 3.009-2.888 3.009-.376 0-.916-.103-1.65-.315-.645-.183-1.161-.275-1.533-.275-1.98 0-3.175 1.031-3.649 3.152-.207.951-.524 5.344-.944 13.055-.324 6.609-2.528 11.599-6.553 14.828-4.421 3.597-9.026 5.423-13.682 5.423z"/></g><image width="301" height="435" xlink:href="375482F.png" transform="translate(31.5 58.5)" overflow="visible" opacity=".66"/><g fill="#fff"><path d="M172.914 408.42c-12.118 2.479-24.215 5.077-36.291 7.693-4.86 1.063-9.699 2.147-14.537 3.249-8.447 1.93-16.894 3.917-25.235 6.158-4.923 1.319-9.889 2.68-14.728 4.253-3.671 1.181-7.279 2.401-10.845 3.818-1.804.727-3.543 1.495-5.305 2.282-2.038.926-4.521 2.203-6.325 3.467-2.037 1.415-3.947 2.793-5.306 4.841-1.125 1.711-1.125 2.93-.913 4.859.106 1.042.276 2.086.467 3.109.36 1.771.891 3.483 1.655 5.137 2.801 6.004 8.871 9.229 14.919 12.024 4.18 1.931 8.595 3.582 12.924 5.197 1.719.648 3.459 1.297 5.178 1.947 1.274.474 2.505.982 3.8 1.377 1.931.612 2.95 2.539 2.292 4.332-.658 1.771-2.758 2.715-4.669 2.105-2.313-.727-4.753-1.301-7.088-1.93-4.011-1.082-8.086-2.186-12.034-3.463-7.47-2.442-14.453-5.118-20.183-10.294-.891-.809-1.654-1.654-2.44-2.539-1.677-1.89-3.034-4.29-4.053-6.533-1.338-2.933-2.229-6.279-2.695-9.429 0 .021 0 .041.02.06-.318-1.712-.446-3.444-.212-5.197 1.486-10.883 13.201-17.634 22.921-22.001 5.794-2.599 11.779-4.705 17.847-6.673 8.724-2.833 17.701-5.213 26.614-7.438 20.205-5.041 40.641-9.232 61.038-13.521 3.904-.826 7.788 1.456 8.658 5.078.871 3.624-1.569 7.206-5.474 8.032zM114.148 81.775c-9.338 1.2-18.315 2.676-27.418 5.018-1.571.394-3.184.886-4.755 1.397a82.651 82.651 0 0 0-3.713 1.319c-2.866 1.141-5.412 2.361-7.831 4.172-.721.551-1.975 1.771-2.25 2.618-.36 1.121-.105 1.731-.254 2.893-.084.65.106 1.574.403 2.185.424.846.85 1.495 1.464 2.224 1.04 1.2 2.292 2.224 3.565 3.149 1.761 1.26 3.587 2.302 5.519 3.327 2.758 1.436 5.857 2.696 8.807 3.758 12.118 4.369 24.938 6.829 37.798 8.522a243.11 243.11 0 0 0 18.952 1.732c5.645.314 11.375.492 17.063.414h-.297c5.814-.257 11.608-.493 17.423-.69a668.257 668.257 0 0 1 19.843-.413c3.735-.021 7.449.02 11.185.098 3.968.079 7.958.276 11.926.552 3.014.196 6.07.492 9.062.905 1.592.216 3.227.432 4.797.748 9.125 1.792 20.417 4.881 23.451 14.21.446 1.416.68 2.991.637 4.468-.084 3.089-.424 5.609-1.315 8.581-1.146 3.877-3.247 8.03-5.582 11.395-3.82 5.51-8.022 10.234-13.074 14.82-7.024 6.377-14.58 11.828-22.687 16.965a178.74 178.74 0 0 1-8.298 4.901c-1.529.845-3.099 1.653-4.605 2.558-1.72.985-3.99.472-5.051-1.121-1.061-1.594-.531-3.702 1.209-4.686 2.547-1.397 5.114-3.07 7.513-4.702 3.098-2.087 6.219-4.193 9.168-6.457 2.95-2.244 5.879-4.508 8.659-6.928a175.957 175.957 0 0 0 7.025-6.514c3.481-3.405 6.6-7.104 9.381-11.002.743-1.043 1.528-2.223 2.144-3.346 1.911-3.463 3.65-6.947 4.16-10.844.191-1.614.169-2.854.106-4.449 0 .159.021.316.042.473-.148-.729-.213-.925-.509-1.574-.446-.944-1.762-1.752-2.632-2.303-1.93-1.219-5.263-2.164-7.533-2.637-6.346-1.377-13.308-1.947-19.823-2.086-3.99-.079-7.959-.176-11.948-.137-9.996.137-19.927.531-29.903 1.063-6.537.334-13.009.866-19.546.845-14.813-.019-29.118-1.121-43.697-3.444-8.468-1.337-17.126-3.286-25.256-5.844a122.2 122.2 0 0 1-8.552-3.031c-11.906-4.743-26.635-13.266-25.362-27.121-.021.296-.021.572-.021.847-.085-1.24-.022-2.342.148-3.562 1.401-10.215 13.477-16.316 22.921-19.327 1.569-.512 3.141-.984 4.732-1.458a115.65 115.65 0 0 1 8.468-2.085 225.158 225.158 0 0 1 11.439-2.146c3.628-.59 7.258-1.042 10.908-1.574 3.947-.512 7.619 2.066 8.17 5.726.552 3.681-2.207 7.085-6.176 7.598zM98.211 236.664c-.891.236-1.804.412-2.717.552a.12.12 0 0 1-.106-.06c0-.04.021-.099.063-.099a25.603 25.603 0 0 1 2.717-.571c.042 0 .106.02.106.079 0 .04-.021.079-.063.099z"/><path d="M97.107 243.69c-8.785 1.869-17.466 4.073-25.68 7.558-3.395 1.436-7.746 3.601-10.229 6.219-.212.196-.551.59-.679.846-.065.118-.17.374-.212.413l.02-.098c.064.807-.106 1.751-.106 2.598-.021 1.812.468 3.759 1.274 5.412 2.313 4.645 7.278 8.03 11.905 10.529 4.669 2.521 9.933 4.566 15.026 6.22 6.495 2.104 13.138 3.857 19.843 5.333 3.799.847 7.619 1.634 11.461 2.362 11.587 2.203 23.323 3.718 35.06 4.959 14.708 1.555 29.457 2.717 44.184 3.917 7.004.57 14.008 1.181 21.011 1.81 5.816.532 11.63 1.083 17.446 1.713 5.624.63 11.227 1.26 16.85 1.968a738.278 738.278 0 0 1 16.129 2.264c4.309.669 8.659 1.339 12.925 2.185 2.759.552 5.475 1.122 8.192 1.791 1.952.492 3.948.984 5.857 1.574 8.722 2.735 18.655 6.396 23.451 14.21.893 1.456 1.337 2.952 1.719 4.586.297 1.357.254 2.854.128 4.23-.17 1.753-.807 3.621-1.507 5.216-1.209 2.678-3.098 5.235-5.072 7.458-3.63 4.075-7.767 7.282-12.119 10.628-1.569 1.221-3.883 1.025-5.178-.432-1.316-1.438-1.104-3.583.467-4.804a65.865 65.865 0 0 0 7.236-6.454c1.507-1.534 3.141-3.326 4.33-5.077 1.083-1.634 1.846-2.933 2.547-4.743.233-.591.297-1.142.445-1.731.106-.395.148-1.397.085-1.812-.128-.688-.19-1.161-.467-1.83-1.4-3.286-5.666-5.57-8.935-7.006-1.146-.513-2.313-.906-3.48-1.358-1.083-.434-2.314-.787-3.438-1.122-2.145-.61-4.288-1.181-6.452-1.653a122.878 122.878 0 0 0-5.306-1.083c-3.055-.53-6.091-.983-9.167-1.456.021.021.041.021.064.021-5.306-.689-10.612-1.358-15.94-1.948-12.095-1.339-24.277-2.362-36.417-3.229-15.216-1.103-30.455-2.008-45.671-3.07a932.047 932.047 0 0 1-38.541-3.425c-7.788-.865-15.514-2.066-23.217-3.425a283.318 283.318 0 0 1-12.266-2.46 267.78 267.78 0 0 1-11.184-2.677 179.92 179.92 0 0 1-7.896-2.262c-2.759-.847-5.454-1.792-8.149-2.795-11.207-4.133-24.406-11.179-29.308-21.983-.893-1.949-1.444-3.661-1.911-5.728-.552-2.402-.573-5.157-.359-7.617-.022.236-.022.473-.022.708-.085-1.082.085-2.381.361-3.424 1.421-5.746 6.6-9.919 11.714-12.95a49.73 49.73 0 0 1 4.097-2.185 76.514 76.514 0 0 1 5.836-2.56 125.205 125.205 0 0 1 9.147-3.187 197.124 197.124 0 0 1 8.276-2.284c2.843-.729 5.709-1.318 8.574-1.967 3.884-.828 7.789 1.436 8.68 5.038.893 3.621-1.526 7.223-5.432 8.069z"/></g><text transform="matrix(1.0783 0 0 1 14.426 662.93)" fill="#fff" font-family="Gabriola" font-size="55.825">All your wedding essentials in one place...</text></svg>